<svg width="200" height="186" viewBox="0 0 200 186" fill="none" xmlns="http://www.w3.org/2000/svg">
<path d="M199.91 128.56C199.91 120.68 193.523 114.292 185.644 114.292C177.765 114.292 171.378 120.68 171.378 128.56V171.355C171.378 179.235 177.765 185.623 185.644 185.623C193.523 185.623 199.91 179.235 199.91 171.355V128.56Z" fill="#EC008C"/>
<path d="M114.129 71.4969C114.129 63.6172 107.742 57.2295 99.8634 57.2295C91.9846 57.2295 85.5977 63.6172 85.5977 71.4969V171.355C85.5977 179.235 91.9846 185.623 99.8634 185.623C107.742 185.623 114.129 179.235 114.129 171.355V71.4969Z" fill="#EC008C"/>
<path d="M57.0663 85.7607C49.1884 85.7607 42.7989 92.1469 42.7989 100.028V128.56H42.659V135.851C42.659 139.754 39.4959 142.914 35.5969 142.914C31.6979 142.914 28.5348 139.75 28.5348 135.851V128.56C28.5348 120.682 22.1486 114.292 14.2674 114.292C6.38953 114.292 0 120.678 0 128.56V171.358C0 179.236 6.3862 185.626 14.2674 185.626C22.1453 185.626 28.5348 179.24 28.5348 171.358V164.113C28.5348 160.211 31.6979 157.051 35.5969 157.051C39.4959 157.051 42.659 160.214 42.659 164.113V171.358H42.7989C42.7989 179.236 49.1851 185.626 57.0663 185.626C64.9441 185.626 71.3337 179.24 71.3337 171.358V100.028C71.3337 92.1503 64.9475 85.7607 57.0663 85.7607Z" fill="#EC008C"/>
<path d="M185.689 71.327C181.687 71.327 178.068 72.9718 175.471 75.6256H175.411C173.536 78.0229 170.626 79.5712 167.35 79.5712C161.803 79.5712 157.301 75.1561 157.131 69.6522H157.115V36.0065C157.115 35.8899 157.108 35.7767 157.105 35.6635H157.115C157.115 31.7246 160.308 28.5315 164.247 28.5315C168.186 28.5315 171.379 31.7246 171.379 35.6635V42.6291C171.379 50.5069 177.765 56.8965 185.646 56.8965C193.524 56.8965 199.913 50.5103 199.913 42.6291V35.6635C199.913 15.9655 183.945 0 164.25 0C144.555 0 128.586 15.9688 128.586 35.6635H128.596C128.596 35.7767 128.586 35.8899 128.586 36.0065V171.355C128.586 179.233 134.973 185.623 142.854 185.623C150.732 185.623 157.121 179.237 157.121 171.355V101.86C157.121 96.2092 161.703 91.6277 167.353 91.6277C170.153 91.6277 172.681 92.7564 174.528 94.5811C177.152 97.8507 181.178 99.9451 185.693 99.9451C193.594 99.9451 200 93.5389 200 85.6377C200 77.7365 193.594 71.3304 185.693 71.3304L185.689 71.327Z" fill="#EC008C"/>
<path d="M0.862454 4.87123C0.28976 4.29854 0.00341797 3.62928 0.00341797 2.86347C0.00341797 2.09766 0.28976 1.40177 0.862454 0.842392C1.43515 0.279687 2.10441 0 2.87022 0C3.63603 0 4.33192 0.283017 4.89129 0.842392C5.454 1.4051 5.73368 2.07768 5.73368 2.86347C5.73368 3.64926 5.45067 4.29521 4.89129 4.87123C4.32859 5.44392 3.65601 5.73027 2.87022 5.73027C2.08443 5.73027 1.43848 5.44392 0.862454 4.87123ZM0.339707 7.41506H5.39739V25.6214H0.339707V7.41506Z" fill="#4D4D4F"/>
<path d="M7.41828 15.7124C7.41828 14.0043 7.80451 12.486 8.58031 11.1608C9.35611 9.8356 10.4249 8.79011 11.7834 8.02429C13.1419 7.26181 14.7001 6.87891 16.4515 6.87891C18.2029 6.87891 19.7212 7.25515 21.0697 8.00765C22.4182 8.76014 23.4837 9.79898 24.2728 11.1275C25.0586 12.4527 25.4515 13.981 25.4515 15.7124V25.6246H20.3938V15.7124C20.3938 14.5903 20.0175 13.6547 19.265 12.9155C18.5126 12.173 17.5736 11.8034 16.4482 11.8034C15.3228 11.8034 14.3505 12.173 13.598 12.9155C12.8455 13.658 12.4693 14.5903 12.4693 15.7124V25.6246H7.41162V15.7124H7.41828Z" fill="#4D4D4F"/>
<path d="M31.1384 24.8824C29.7566 24.03 28.6611 22.8713 27.852 21.4096C27.0429 19.9479 26.6367 18.3197 26.6367 16.5217C26.6367 15.1966 26.8665 13.9479 27.326 12.7792C27.7854 11.6106 28.4314 10.5817 29.2638 9.69269C30.0962 8.80369 31.0618 8.11446 32.1639 7.61835C33.266 7.12556 34.458 6.87584 35.7366 6.87584C36.792 6.87584 37.771 7.04898 38.6699 7.39859C39.5689 7.7482 40.3547 8.23766 41.0306 8.86362V1.68164H46.0883V25.6182H41.0306V24.1332C40.3547 24.7858 39.5689 25.2853 38.6699 25.6349C37.771 25.9845 36.792 26.1576 35.7366 26.1576C34.0518 26.1576 32.5168 25.7315 31.135 24.8757L31.1384 24.8824ZM39.7021 19.9113C40.5911 19.0223 41.034 17.8935 41.034 16.5217C41.034 15.646 40.8309 14.8469 40.428 14.1277C40.0218 13.4085 39.4724 12.8425 38.7765 12.4263C38.0806 12.0101 37.2815 11.8037 36.3825 11.8037C35.4835 11.8037 34.6811 12.0101 33.9719 12.4263C33.2627 12.8425 32.7066 13.4085 32.3037 14.1277C31.8975 14.8469 31.6977 15.646 31.6977 16.5217C31.6977 17.8935 32.1406 19.0223 33.0296 19.9113C33.9186 20.8003 35.034 21.2431 36.3858 21.2431C37.7377 21.2431 38.8198 20.8003 39.7055 19.9113H39.7021Z" fill="#4D4D4F"/>
<path d="M53.2905 25.4048C52.1118 24.8987 51.0829 24.2028 50.2039 23.3138C49.3282 22.4248 48.649 21.3993 48.1629 20.2272C47.6801 19.0585 47.437 17.8233 47.437 16.5181C47.437 14.7434 47.8599 13.1285 48.7023 11.6801C49.5447 10.2317 50.6967 9.06637 52.1584 8.19069C53.6201 7.315 55.2949 6.87549 57.1828 6.87549C59.0707 6.87549 60.7455 7.315 62.2072 8.19069C63.6689 9.06637 64.8209 10.2317 65.6633 11.6801C66.5057 13.1285 66.9286 14.7434 66.9286 16.5181C66.9286 17.8233 66.6855 19.0585 66.2027 20.2272C65.7199 21.3959 65.0407 22.4248 64.1617 23.3138C63.286 24.2028 62.2571 24.8987 61.0751 25.4048C59.8931 25.9109 58.5979 26.1639 57.1795 26.1639C55.761 26.1639 54.4658 25.9109 53.2838 25.4048H53.2905ZM59.5968 20.6002C60.306 20.174 60.862 19.6013 61.2649 18.8821C61.6711 18.1629 61.8709 17.3771 61.8709 16.5214C61.8709 15.6657 61.6678 14.8532 61.2649 14.144C60.862 13.4348 60.3026 12.8688 59.5968 12.4426C58.8876 12.0164 58.0851 11.8033 57.1861 11.8033C56.2871 11.8033 55.4847 12.0164 54.7755 12.4426C54.0663 12.8688 53.5102 13.4382 53.1073 14.144C52.7011 14.8532 52.5014 15.6457 52.5014 16.5214C52.5014 17.3971 52.7078 18.1629 53.124 18.8821C53.5402 19.6013 54.1029 20.174 54.8088 20.6002C55.518 21.0264 56.3104 21.2394 57.1861 21.2394C58.0618 21.2394 58.8876 21.0264 59.5968 20.6002Z" fill="#4D4D4F"/>
<path d="M71.5303 25.4382C70.305 24.9554 69.3261 24.2595 68.5969 23.3472C67.8677 22.4382 67.5015 21.3428 67.5015 20.0609H72.4593C72.5059 20.6901 72.8189 21.1863 73.4049 21.5459C73.9876 21.9055 74.6535 22.0853 75.3927 22.0853C76.2917 22.0853 76.9309 21.9288 77.3138 21.6125C77.6967 21.2961 77.8865 20.9166 77.8865 20.4671C77.8865 20.0176 77.73 19.668 77.4137 19.4216C77.0974 19.1752 76.7411 19.0287 76.3349 18.9821L73.1651 18.5758C71.547 18.3727 70.2484 17.8 69.2695 16.8578C68.2906 15.9155 67.8045 14.6769 67.8045 13.1486C67.8045 11.8667 68.1208 10.7612 68.7501 9.82895C69.3794 8.89665 70.2384 8.1708 71.3305 7.65471C72.4193 7.13862 73.6613 6.87891 75.0564 6.87891C76.4515 6.87891 77.7534 7.11531 78.8987 7.58812C80.0441 8.06092 80.9598 8.73017 81.6457 9.59587C82.3316 10.4616 82.6845 11.5004 82.7078 12.7157H77.7167C77.6501 12.1763 77.3671 11.7435 76.8743 11.4172C76.3782 11.0909 75.8521 10.9277 75.2894 10.9277C74.5936 10.9277 74.0375 11.0842 73.6213 11.4005C73.2051 11.7168 72.9987 12.1297 72.9987 12.6491C72.9987 13.1686 73.2051 13.5481 73.6213 13.7945C74.0375 14.0409 74.527 14.2007 75.0863 14.2673L77.0408 14.5037C78.9054 14.7301 80.3738 15.3128 81.4426 16.2584C82.508 17.2007 83.0441 18.3927 83.0441 19.8311C83.0441 21.113 82.7345 22.2251 82.1152 23.1674C81.4958 24.1097 80.6268 24.8488 79.5014 25.3749C78.376 25.9043 77.0608 26.1674 75.5558 26.1674C74.0508 26.1674 72.7523 25.9243 71.527 25.4415L71.5303 25.4382Z" fill="#4D4D4F"/>
<path d="M98.3835 8.1906C99.8452 9.06629 100.997 10.2317 101.84 11.68C102.682 13.1284 103.105 14.7433 103.105 16.518V25.6211H98.0473V24.2393C97.4612 24.8254 96.7387 25.2915 95.873 25.6378C95.0073 25.9874 94.0684 26.1605 93.0595 26.1605C91.7343 26.1605 90.4957 25.9075 89.3503 25.4014C88.2049 24.8953 87.2027 24.1994 86.3503 23.3104C85.4946 22.4214 84.8287 21.3959 84.3426 20.2238C83.8598 19.0551 83.6167 17.8198 83.6167 16.5146C83.6167 15.2094 83.8564 13.9475 84.3426 12.7888C84.8254 11.6301 85.5046 10.6079 86.3836 9.72223C87.2593 8.83322 88.2882 8.13733 89.4702 7.63123C90.6489 7.12513 91.9474 6.87207 93.3658 6.87207C95.2537 6.87207 96.9285 7.31158 98.3902 8.18727L98.3835 8.1906ZM95.7698 20.5967C96.479 20.1706 97.0351 19.5979 97.4379 18.8787C97.8441 18.1595 98.0439 17.3737 98.0439 16.518C98.0439 15.6623 97.8408 14.8498 97.4379 14.1406C97.0317 13.4314 96.4757 12.8654 95.7698 12.4392C95.0606 12.013 94.2582 11.7999 93.3592 11.7999C92.4602 11.7999 91.6577 12.013 90.9485 12.4392C90.2393 12.8654 89.6833 13.4347 89.2804 14.1406C88.8742 14.8498 88.6744 15.6423 88.6744 16.518C88.6744 17.3937 88.8775 18.1595 89.2804 18.8787C89.6866 19.5979 90.2426 20.1706 90.9485 20.5967C91.6577 21.0229 92.4602 21.236 93.3592 21.236C94.2582 21.236 95.0606 21.0229 95.7698 20.5967Z" fill="#4D4D4F"/>
<path d="M108.296 25.1353C107.08 24.4494 106.125 23.5104 105.429 22.3218C104.733 21.1298 104.383 19.7813 104.383 18.2763V3.03662H109.441V7.41839H114.129V12.3762H109.441V18.2763C109.441 19.1087 109.727 19.8112 110.3 20.3839C110.873 20.9566 111.575 21.243 112.408 21.243H114.126V26.1641H112.408C110.879 26.1641 109.508 25.8212 108.296 25.1353Z" fill="#4D4D4F"/>
</svg>
