<svg xmlns="http://www.w3.org/2000/svg" xmlns:xlink="http://www.w3.org/1999/xlink" width="50" height="50" viewBox="0 0 50 50">
  <defs>
    <clipPath id="clip-path">
      <rect id="Rectangle_58607" data-name="Rectangle 58607" width="50" height="50" transform="translate(4522 14824)" fill="#fff"/>
    </clipPath>
  </defs>
  <g id="Mask_Group_2001" data-name="Mask Group 2001" transform="translate(-4522 -14824)" clip-path="url(#clip-path)">
    <path id="_3" data-name="3" d="M32.981,20.91a12.631,12.631,0,0,1-1.121-.893c.118-.2.326-.508.516-.777a14.875,14.875,0,0,0,3.146-8.75,9.63,9.63,0,0,0-3.065-7.08C30.3,1.4,26.87,0,21.853,0A30.3,30.3,0,0,0,7.105,4.25,23.051,23.051,0,0,0,2.115,8.035a5.7,5.7,0,0,0-1.89,3.5,1.825,1.825,0,0,0,.57,1.322A5.844,5.844,0,0,0,4.2,13.982c1.528.16,3.4.16,5.425.16H9.99a53.135,53.135,0,0,1,6.69.285,5.368,5.368,0,0,1,1.51.394c.317.16.417.313.417.491a.75.75,0,0,1-.272.42,44.7,44.7,0,0,1-4.005,2.678,13.638,13.638,0,0,0-2.1,1.688,2.765,2.765,0,0,0-.9,1.786,2.37,2.37,0,0,0,1.058,1.883c1.917,1.455,5.9,1.84,7.983,2.215a3.523,3.523,0,0,1,2.332,1.17,2.459,2.459,0,0,1,.434,1.508A5.781,5.781,0,0,1,21.51,32.82a5.929,5.929,0,0,1-4.125,1.805h-.507a8.252,8.252,0,0,0,.064-1.027,6.41,6.41,0,0,0-2.224-5.026A8.6,8.6,0,0,0,9.03,26.785a8.74,8.74,0,0,0-6.635,2.867A9.371,9.371,0,0,0,0,35.9,12.641,12.641,0,0,0,4.818,45.59C8.028,48.215,12.784,50,18.977,50A23.443,23.443,0,0,0,32.72,45.59a16.345,16.345,0,0,0,6.861-13.518c0-6.357-4.33-9.5-6.6-11.161Zm-16.6-2.061a23.647,23.647,0,0,0,2.714-1.842,2.662,2.662,0,0,0,1.13-1.886A2,2,0,0,0,19.6,13.67a6.3,6.3,0,0,0-3.617-1.21,55.325,55.325,0,0,0-5.543-.177H9.826c-1.656,0-2.967,0-4.016-.062a50.284,50.284,0,0,0,4.982-2.412A46.134,46.134,0,0,1,20.2,5.714a4.091,4.091,0,0,0-1.149,2.51.811.811,0,0,0,.218.56.908.908,0,0,0,.714.267,6.855,6.855,0,0,0,1.891-.435A10.747,10.747,0,0,1,25.2,7.939a6.181,6.181,0,0,1,3.491,1.086,3.593,3.593,0,0,0-1.926.623,1.275,1.275,0,0,0-.57,1.015c0,.453.326.792.724,1.236A4.526,4.526,0,0,1,28.4,15.041a5.626,5.626,0,0,1-1.057,3.141v-.2a3.4,3.4,0,0,0-.615-2.1,1.293,1.293,0,0,0-.977-.445c-.651,0-1.211.5-2.052,1.175a21.316,21.316,0,0,1-2.261,1.673c-3.925,2.437-6.031,3.381-7.524,3.5-.56,0-1.393,0-.715-.623a21.7,21.7,0,0,1,3.183-2.313Zm.418,17.44a7.829,7.829,0,0,0,5.458-1.961,7.571,7.571,0,0,0,2.379-5.641,3.782,3.782,0,0,0-.9-2.615c3.279.778,6.693,2.453,8.585,4.978a6.34,6.34,0,0,0-2.046-.349,1.29,1.29,0,0,0-.875.461,1.273,1.273,0,0,0-.286.944,4.793,4.793,0,0,0,.324,1.352,10,10,0,0,1,.631,3.206,7.623,7.623,0,0,1-1.244,4.083,4.672,4.672,0,0,0-.792-2.74,1.146,1.146,0,0,0-1.893,0,7.156,7.156,0,0,0-.721,1.146,10.355,10.355,0,0,1-6.783,5.49,4.1,4.1,0,0,0,.614-1.961,1.523,1.523,0,0,0-.108-.6.82.82,0,0,0-.766-.538,7.618,7.618,0,0,0-1.711.358,13.406,13.406,0,0,1-3.6.626,7.343,7.343,0,0,1-4.549-1.567,2.771,2.771,0,0,0,1.4-.582,1.229,1.229,0,0,0,.478-.9c0-.519-.415-.895-.9-1.3A3.576,3.576,0,0,1,7.99,35.5a3.825,3.825,0,0,1,.225-1.245,3.324,3.324,0,0,0,.63,1.066,2,2,0,0,0,1.4.717.9.9,0,0,0,.9-.546,2.358,2.358,0,0,0,.127-.9,1.162,1.162,0,0,1,.378-.833,1.283,1.283,0,0,1,.9-.367,2,2,0,0,1,1.711,1.03,4.26,4.26,0,0,1,.612,2.157,3.51,3.51,0,0,1-.234,1.317l-.171.413.351-.269a5.073,5.073,0,0,0,1.432-1.792l.549.036ZM2.4,11.818c-.233-.135-.377-.278-.377-.5A4.7,4.7,0,0,1,3.695,8.7,28.276,28.276,0,0,1,21.854,1.427c3.856,0,7,.95,9.089,2.687a7.914,7.914,0,0,1,2.8,6.135,13.3,13.3,0,0,1-2.831,7.826,3.506,3.506,0,0,0-.9,1.792,1.557,1.557,0,0,0,.521,1.1,11.632,11.632,0,0,0,1.349,1.083c2.22,1.639,5.879,4.317,5.879,9.851a14.785,14.785,0,0,1-6.114,12.217,21.369,21.369,0,0,1-12.585,4.093c-11.372,0-17.25-6.27-17.25-12.476a7.767,7.767,0,0,1,1.878-5.115,7.006,7.006,0,0,1,5.394-2.354,7.726,7.726,0,0,1,4.162,1.146,5.054,5.054,0,0,1,2.239,4.478v.2a3.58,3.58,0,0,0-.495-.807,2.846,2.846,0,0,0-2.31-1.029,2.26,2.26,0,0,0-2.256,2.194,1.2,1.2,0,0,1-.054.43,1.268,1.268,0,0,1-.9-.619,3.108,3.108,0,0,1-.495-1.792,4.6,4.6,0,0,1,0-.482v-.358l-.243.269a5.15,5.15,0,0,0-1.564,3.421A4.785,4.785,0,0,0,8.918,38.7a4.639,4.639,0,0,1,.377.367l.145.161v.054c0,.063-.126.215-.432.34a4.267,4.267,0,0,1-1.591.243,8.518,8.518,0,0,1-.9,0h-.3l.161.269a8.39,8.39,0,0,0,6.661,3.286,14.225,14.225,0,0,0,4.027-.69,5.744,5.744,0,0,1,1.143-.286c.107,0,.152,0,.17.053a.321.321,0,0,1,0,.2,3.573,3.573,0,0,1-.476,1.406,6,6,0,0,1-1.169,1.567l-.278.25h.368c6.365-.815,8.486-4.477,9.529-6.385a8.354,8.354,0,0,1,.485-.815c.144-.215.289-.312.324-.3a.482.482,0,0,1,.26.215,5.982,5.982,0,0,1,.54,2.821A7.45,7.45,0,0,1,27.814,43l-.08.367.278-.259a8.576,8.576,0,0,0,3.056-6.484,11.247,11.247,0,0,0-.646-3.582A4.6,4.6,0,0,1,30.151,32a.473.473,0,0,1,.062-.286.306.306,0,0,1,.18-.1,9.016,9.016,0,0,1,3.659,1.048l.288.135-.081-.287c-1.959-4.568-6.292-6.529-10.58-7.6a60.782,60.782,0,0,0-6.005-1.155,20.741,20.741,0,0,1-3.192-.779l-.4-.179c2.427-.3,5.394-2.015,7.966-3.672A22.465,22.465,0,0,0,24.4,17.332a7.83,7.83,0,0,1,.9-.68,1.218,1.218,0,0,1,.548-.268.3.3,0,0,1,.243.116,2.979,2.979,0,0,1,.378,1.737,7.03,7.03,0,0,1-.233,1.792l-.062.313.26-.17a6.265,6.265,0,0,0,3.021-5.2,5.5,5.5,0,0,0-1.727-3.816c-.1-.116-.225-.25-.323-.375a1.593,1.593,0,0,1-.163-.287.484.484,0,0,1,.189-.232,3.544,3.544,0,0,1,2.031-.52,6.3,6.3,0,0,1,1.376.161l.323.072-.206-.26a6.9,6.9,0,0,0-5.681-2.8,11.836,11.836,0,0,0-3.6.689,6.529,6.529,0,0,1-1.375.35h-.073a2.969,2.969,0,0,1,.7-1.487,7.381,7.381,0,0,1,2.041-1.792l.323-.187h-.9c-3.658,0-8.378,2.687-11.857,4.479C8.324,9.99,3.767,12.623,2.4,11.817Z" transform="translate(4527.209 14824)"/>
  </g>
</svg>
