<svg width="9" height="10" viewBox="0 0 9 10" fill="none" xmlns="http://www.w3.org/2000/svg">
<g opacity="0.01">
<rect opacity="0.289481" x="0.1125" y="0.6125" width="8.775" height="8.775" rx="4.3875" stroke="#979797" stroke-width="0.225"/>
<rect opacity="0.390346" x="1.46406" y="0.6125" width="6.075" height="8.775" rx="0.3375" fill="#D8D8D8" stroke="#979797" stroke-width="0.225"/>
<rect opacity="0.296619" x="0.784375" y="1.28828" width="7.425" height="7.425" rx="0.3375" fill="#D8D8D8" stroke="#979797" stroke-width="0.225"/>
<rect opacity="0.265927" x="8.8875" y="1.96406" width="6.075" height="8.775" rx="0.3375" transform="rotate(90 8.8875 1.96406)" stroke="#979797" stroke-width="0.225"/>
</g>
<path fill-rule="evenodd" clip-rule="evenodd" d="M0.300031 4.39769C-0.0382605 4.0594 -0.0415123 3.51417 0.292768 3.17989C0.627048 2.84561 1.17228 2.84886 1.5106 3.18718L4.39752 6.07549L7.25162 3.22139C7.56919 2.90383 8.07713 2.89088 8.41718 3.18042L8.46942 3.22866C8.80771 3.56695 8.81096 4.11217 8.47668 4.44645L5.01801 7.90513C4.68373 8.23941 4.1385 8.23616 3.80021 7.89787L0.300031 4.39769Z" fill="#4C4D4F"/>
</svg>
