<svg width="9" height="10" viewBox="0 0 9 10" fill="none" xmlns="http://www.w3.org/2000/svg">
<g opacity="0.01">
<rect opacity="0.289481" x="0.5" y="1" width="8" height="8" rx="4" stroke="#979797"/>
<rect opacity="0.390346" x="1.84998" y="1" width="5.3" height="8" rx="1.5" fill="#D8D8D8" stroke="#979797"/>
<rect opacity="0.296619" x="1.17499" y="1.675" width="6.65" height="6.65" rx="1.5" fill="#D8D8D8" stroke="#979797"/>
<rect opacity="0.265927" x="8.5" y="2.35001" width="5.3" height="8" rx="1.5" transform="rotate(90 8.5 2.35001)" stroke="#979797"/>
</g>
<path fill-rule="evenodd" clip-rule="evenodd" d="M0.302778 5.82419C-0.0355139 6.16248 -0.0387657 6.70771 0.295515 7.04199C0.629795 7.37627 1.17502 7.37302 1.51334 7.0347L4.40027 4.14639L7.25437 7.00049C7.57193 7.31805 8.07988 7.331 8.41992 7.04145L8.47217 6.99322C8.81046 6.65493 8.81371 6.1097 8.47943 5.77542L5.02076 2.31675C4.68648 1.98247 4.14125 1.98572 3.80296 2.32401L0.302778 5.82419Z" fill="#ED1D25"/>
</svg>
