<svg width="96" height="96" viewBox="0 0 96 96" fill="none" xmlns="http://www.w3.org/2000/svg">
<rect width="96" height="96" rx="16" fill="#F8F8F8"/>
<mask id="mask0_335_12944" style="mask-type:alpha" maskUnits="userSpaceOnUse" x="0" y="0" width="96" height="96">
<rect width="96" height="96" rx="16" fill="white"/>
</mask>
<g mask="url(#mask0_335_12944)">
<g opacity="0.01">
<rect opacity="0.289481" x="30.7222" y="29.8335" width="34.5556" height="34.5556" rx="17.2778" stroke="#979797"/>
<rect opacity="0.390346" x="36.0557" y="29.8335" width="23.8889" height="34.5556" rx="1.5" fill="#D8D8D8" stroke="#979797"/>
<rect opacity="0.296619" x="33.3887" y="32.5" width="29.2222" height="29.2222" rx="1.5" fill="#D8D8D8" stroke="#979797"/>
<rect opacity="0.265927" x="65.2778" y="35.167" width="23.8889" height="34.5556" rx="1.5" transform="rotate(90 65.2778 35.167)" stroke="#979797"/>
</g>
<path fill-rule="evenodd" clip-rule="evenodd" d="M54.6332 62.8144L52.808 54.8145L50.2081 55.4076L52.0333 63.4076L54.6332 62.8144ZM45.7109 55.3946L43.1053 54.8274L41.3638 62.8274L43.9694 63.3946L45.7109 55.3946Z" fill="#ED2324"/>
<rect x="35.5557" y="62.2222" width="24.8889" height="2.66667" rx="1.33333" fill="#ED2324"/>
<path fill-rule="evenodd" clip-rule="evenodd" d="M60.4446 32.8891C60.4446 30.9254 58.8527 29.3335 56.889 29.3335H39.1112C37.1475 29.3335 35.5557 30.9254 35.5557 32.8891V44.4446C35.5557 51.3175 41.1272 56.8891 48.0001 56.8891C54.873 56.8891 60.4446 51.3175 60.4446 44.4446V32.8891ZM39.1112 32.0002H56.889L56.9927 32.0061C57.4347 32.0575 57.7779 32.4332 57.7779 32.8891V44.4446L57.7746 44.701C57.6387 49.9826 53.3145 54.2224 48.0001 54.2224C42.6 54.2224 38.2223 49.8447 38.2223 44.4446V32.8891L38.2283 32.7854C38.2797 32.3433 38.6554 32.0002 39.1112 32.0002Z" fill="#ED2324"/>
<path d="M46.3731 38.5306C47.1006 37.2003 48.9917 37.1465 49.7938 38.4332L50.0039 38.7703C50.2576 39.1773 50.6782 39.4514 51.153 39.5193C52.4504 39.7046 53.0058 41.2707 52.1151 42.2321L51.8367 42.5327C51.5099 42.8853 51.3554 43.3642 51.4143 43.8413C51.5798 45.1813 50.1388 46.1308 48.9729 45.4501L48.7842 45.3399C48.2906 45.0518 47.6799 45.0528 47.1874 45.3426L47.0243 45.4386C45.9176 46.0898 44.5595 45.133 44.8003 43.8716C44.8937 43.3824 44.737 42.8789 44.3826 42.529L44.1433 42.2928C43.1799 41.3418 43.7308 39.6987 45.0728 39.5208C45.5871 39.4526 46.038 39.1433 46.287 38.6882L46.3731 38.5306Z" fill="#ED2324"/>
<path fill-rule="evenodd" clip-rule="evenodd" d="M38.222 33.7778H34.6664C32.7027 33.7778 31.1108 35.3697 31.1108 37.3334V40.8889C31.1108 44.8163 34.2946 48.0001 38.222 48.0001L38.222 45.3334L38.0292 45.3293C35.664 45.2283 33.7775 43.2789 33.7775 40.8889V37.3334L33.7835 37.2297C33.8348 36.7876 34.2105 36.4445 34.6664 36.4445H38.222V33.7778Z" fill="#ED2324"/>
<path fill-rule="evenodd" clip-rule="evenodd" d="M57.7776 33.7778H61.3331C63.2968 33.7778 64.8887 35.3697 64.8887 37.3334V40.8889C64.8887 44.8163 61.7049 48.0001 57.7776 48.0001L57.7776 45.3334L57.9704 45.3293C60.3355 45.2283 62.222 43.2789 62.222 40.8889V37.3334L62.216 37.2297C62.1647 36.7876 61.789 36.4445 61.3331 36.4445H57.7776V33.7778Z" fill="#ED2324"/>
</g>
</svg>
