<svg width="111" height="113" viewBox="0 0 111 113" fill="none" xmlns="http://www.w3.org/2000/svg">
<ellipse cx="97" cy="41.5" rx="42" ry="41.5" fill="#FFCB0A"/>
<ellipse cx="69" cy="75.5" rx="59" ry="58.5" fill="#ED1D23"/>
<ellipse cx="42" cy="104.5" rx="42" ry="41.5" fill="#25BDAD"/>
<path fill-rule="evenodd" clip-rule="evenodd" d="M11 76.4869C18.6231 67.6127 29.8744 62 42.4244 62C65.386 62 84 80.7881 84 103.964C84 115.721 79.2099 126.349 71.4922 133.968C70.8452 133.989 70.1956 134 69.5435 134C37.7291 134 11.8397 108.394 11 76.4869Z" fill="#C6168D"/>
<path fill-rule="evenodd" clip-rule="evenodd" d="M64.1329 17.2381C65.8836 17.0805 67.6564 17 69.4479 17C100.194 17 125.426 40.7136 128 70.9238C120.397 78.9773 109.643 84 97.7203 84C74.6788 84 56 65.24 56 42.0984C56 32.7911 59.0214 24.1925 64.1329 17.2381Z" fill="#EC008C"/>
</svg>
