<svg width="73" height="72" viewBox="0 0 73 72" fill="none" xmlns="http://www.w3.org/2000/svg">
<g id="icon/system/checked green">
<g id="icon/system/usage">
<path id="Combined Shape" fill-rule="evenodd" clip-rule="evenodd" d="M72.3006 35.9003C72.3006 55.7292 56.2292 71.8006 36.4003 71.8006C16.5714 71.8006 0.5 55.7292 0.5 35.9003C0.5 16.0714 16.5714 0 36.4003 0C56.2292 0 72.3006 16.0714 72.3006 35.9003Z" fill="#B0E01F"/>
<g id="Combined Shape_2">
<path fill-rule="evenodd" clip-rule="evenodd" d="M25.4691 36.1457C24.5318 35.2085 23.0122 35.2085 22.075 36.1457C21.1377 37.083 21.1377 38.6026 22.075 39.5398L30.5603 48.0251C30.5639 48.0288 30.5676 48.0324 30.5713 48.0361C31.5094 48.9624 33.0208 48.9587 33.9544 48.0251L50.9249 31.0545C51.8622 30.1173 51.8622 28.5977 50.9249 27.6604C49.9877 26.7232 48.4681 26.7232 47.5308 27.6604L32.2573 42.9339L25.4691 36.1457Z" fill="white"/>
<path d="M30.5713 48.0361L31.2036 47.3956L30.5713 48.0361ZM47.5308 27.6604L48.1672 28.2968L47.5308 27.6604ZM32.2573 42.9339L31.6209 43.5703L32.2573 44.2067L32.8937 43.5703L32.2573 42.9339ZM22.7114 36.7821C23.2972 36.1963 24.2469 36.1963 24.8327 36.7821L26.1055 35.5093C24.8168 34.2206 22.7273 34.2206 21.4386 35.5093L22.7114 36.7821ZM22.7114 38.9034C22.1256 38.3176 22.1256 37.3679 22.7114 36.7821L21.4386 35.5093C20.1499 36.7981 20.1499 38.8875 21.4386 40.1762L22.7114 38.9034ZM31.1967 47.3887L22.7114 38.9034L21.4386 40.1762L29.9239 48.6615L31.1967 47.3887ZM31.2036 47.3956C31.2013 47.3933 31.199 47.391 31.1967 47.3887L29.9239 48.6615C29.9289 48.6665 29.9339 48.6715 29.9389 48.6765L31.2036 47.3956ZM33.318 47.3887C32.7345 47.9722 31.7899 47.9745 31.2036 47.3956L29.9389 48.6765C31.2289 49.9502 33.3071 49.9452 34.5908 48.6615L33.318 47.3887ZM50.2885 30.4182L33.318 47.3887L34.5908 48.6615L51.5613 31.6909L50.2885 30.4182ZM50.2885 28.2968C50.8743 28.8826 50.8743 29.8324 50.2885 30.4182L51.5613 31.6909C52.8501 30.4022 52.8501 28.3128 51.5613 27.024L50.2885 28.2968ZM48.1672 28.2968C48.753 27.711 49.7028 27.711 50.2885 28.2968L51.5613 27.024C50.2726 25.7353 48.1832 25.7353 46.8944 27.024L48.1672 28.2968ZM32.8937 43.5703L48.1672 28.2968L46.8944 27.024L31.6209 42.2975L32.8937 43.5703ZM24.8327 36.7821L31.6209 43.5703L32.8937 42.2975L26.1055 35.5093L24.8327 36.7821Z" fill="white"/>
</g>
</g>
</g>
</svg>
