<svg width="13" height="13" viewBox="0 0 13 13" fill="none" xmlns="http://www.w3.org/2000/svg">
<path fill-rule="evenodd" clip-rule="evenodd" d="M1.97814 0.275758C1.50308 -0.116431 0.798678 -0.0902854 0.354196 0.354196C-0.118065 0.826458 -0.118065 1.59215 0.354196 2.06441L4.78979 6.5L0.354197 10.9356C-0.118065 11.4079 -0.118065 12.1735 0.354197 12.6458C0.798678 13.0903 1.50308 13.1164 1.97814 12.7242L2.06441 12.6458L6.5 8.21021L10.9356 12.6458L11.0219 12.7242C11.4969 13.1164 12.2013 13.0903 12.6458 12.6458C13.1181 12.1735 13.1181 11.4079 12.6458 10.9356L8.21021 6.5L12.6458 2.06441C13.1181 1.59215 13.1181 0.826458 12.6458 0.354196C12.2013 -0.0902854 11.4969 -0.116431 11.0219 0.275758L10.9356 0.354196L6.5 4.78979L2.06441 0.354196L1.97814 0.275758Z" fill="white" fill-opacity="0.27"/>
</svg>
