<?xml version="1.0" encoding="utf-8"?>
<!-- Generator: Adobe Illustrator 26.2.1, SVG Export Plug-In . SVG Version: 6.00 Build 0)  -->
<svg version="1.1" id="Layer_1" xmlns="http://www.w3.org/2000/svg" xmlns:xlink="http://www.w3.org/1999/xlink" x="0px" y="0px"
	 viewBox="0 0 48 48" style="enable-background:new 0 0 48 48;" xml:space="preserve">
<style type="text/css">
	.st0{fill:none;stroke:#EC008C;stroke-width:3;stroke-linecap:round;stroke-linejoin:round;}
	.st1{fill-rule:evenodd;clip-rule:evenodd;fill:#EC008C;}
	.st2{fill:none;stroke:#EC008C;stroke-width:3;}
</style>
<g>
	<g transform="translate(13.2 13.2)">
		<path class="st0" d="M10.8,0C4.8,0,0,4.8,0,10.8c0,4.2,2.5,7.9,6,9.6 M10.8,21.6c2.2,0,4.3-0.7,6.1-1.9c1.4-1,2.6-2.3,3.4-3.7
			c0.9-1.6,1.3-3.4,1.3-5.1"/>
		<circle class="st1" cx="10.8" cy="10.8" r="2.4"/>
	</g>
	<path class="st2" d="M24,4c0.6,0,1.2,0.2,1.7,0.6c2,1.7,4.7,2.5,7.3,2.2c0.6-0.1,1.2,0.1,1.8,0.4c0.5,0.3,0.9,0.8,1.1,1.4
		c0.8,2.6,2.6,4.7,5,5.8c0.6,0.3,1,0.7,1.3,1.3c0.3,0.6,0.3,1.2,0.1,1.8c-0.7,2.6-0.3,5.3,1.1,7.6c0.7,1.1,0.5,2.5-0.5,3.4
		c-2,1.8-3.2,4.3-3.2,7c0,0.6-0.2,1.2-0.6,1.7c-0.4,0.5-1,0.8-1.6,0.9c-2.6,0.4-5,1.9-6.4,4.1c-0.7,1.1-2.1,1.5-3.3,1
		c-2.4-1.1-5.2-1.1-7.6,0c-0.6,0.3-1.2,0.3-1.8,0.1c-0.6-0.2-1.1-0.6-1.5-1.1c-1.5-2.2-3.8-3.7-6.4-4.1c-0.6-0.1-1.2-0.4-1.6-0.9
		c-0.4-0.5-0.6-1.1-0.6-1.7c0-2.7-1.2-5.2-3.2-7c-0.5-0.4-0.8-1-0.9-1.6c-0.1-0.6,0-1.2,0.4-1.8c1.4-2.3,1.8-5,1.1-7.6
		c-0.2-0.6-0.1-1.2,0.1-1.8c0.3-0.6,0.7-1,1.3-1.3c2.4-1.1,4.2-3.2,5-5.8c0.2-0.6,0.6-1.1,1.1-1.4c0.5-0.3,1.2-0.5,1.8-0.4
		c2.6,0.4,5.3-0.4,7.3-2.2C22.8,4.2,23.4,4,24,4z"/>
</g>
</svg>
