<?xml version="1.0" encoding="utf-8"?>
<!-- Generator: Adobe Illustrator 26.2.1, SVG Export Plug-In . SVG Version: 6.00 Build 0)  -->
<svg version="1.1" id="Layer_1" xmlns="http://www.w3.org/2000/svg" xmlns:xlink="http://www.w3.org/1999/xlink" x="0px" y="0px"
	 viewBox="0 0 48 48" style="enable-background:new 0 0 48 48;" xml:space="preserve">
<style type="text/css">
	.st0{fill:#EC008C;}
	.st1{fill-rule:evenodd;clip-rule:evenodd;fill:#EC008C;}
</style>
<g>
	<path class="st0" d="M14.4,28.4V40c0,1.1-0.9,2-2,2H5.6c-1.1,0-2-0.9-2-2V28.4c0-1.1,0.9-2,2-2h6.8C13.5,26.4,14.4,27.3,14.4,28.4z
		 M10.8,30H7.2v8.4h3.6C10.8,38.4,10.8,30,10.8,30z M28.8,18.8V40c0,1.1-0.9,2-2,2H20c-1.1,0-2-0.9-2-2V18.8c0-1.1,0.9-2,2-2h6.8
		C27.9,16.8,28.8,17.7,28.8,18.8z M25.2,20.4h-3.6v18h3.6C25.2,38.4,25.2,20.4,25.2,20.4z"/>
	<path class="st1" d="M9,2.4c1,0,1.8,0.8,1.8,1.8l0,0v23.4H7.2V4.2C7.2,3.2,8,2.4,9,2.4L9,2.4z M23.4,2.4c1,0,1.8,0.8,1.8,1.8v15
		h-3.6v-15C21.6,3.2,22.4,2.4,23.4,2.4z M37.8,2.4c1,0,1.8,0.8,1.8,1.8v5.4H36V4.2C36,3.2,36.8,2.4,37.8,2.4z M7.2,37.2h3.6v9.6H7.2
		V37.2z M21.6,37.2h3.6v9.6h-3.6V37.2z M36,40.8h3.6v6H36V40.8z"/>
	<path class="st0" d="M43.2,9.2V40c0,1.1-0.9,2-2,2h-6.8c-1.1,0-2-0.9-2-2V9.2c0-1.1,0.9-2,2-2h6.8C42.3,7.2,43.2,8.1,43.2,9.2z
		 M39.6,10.8H36v27.6h3.6C39.6,38.4,39.6,10.8,39.6,10.8z"/>
	<path class="st1" d="M4.2,44.4h39.6c1,0,1.8,0.8,1.8,1.8c0,1-0.8,1.8-1.8,1.8H4.2c-1,0-1.8-0.8-1.8-1.8C2.4,45.2,3.2,44.4,4.2,44.4
		z"/>
</g>
</svg>
