<?xml version="1.0" encoding="utf-8"?>
<!-- Generator: Adobe Illustrator 26.2.1, SVG Export Plug-In . SVG Version: 6.00 Build 0)  -->
<svg version="1.1" id="Layer_1" xmlns="http://www.w3.org/2000/svg" xmlns:xlink="http://www.w3.org/1999/xlink" x="0px" y="0px"
	 viewBox="0 0 48 48" style="enable-background:new 0 0 48 48;" xml:space="preserve">
<style type="text/css">
	.st0{fill:#EC008C;}
</style>
<g>
	<path class="st0" d="M19,7.8h-5.7c-3.1,0-5.6,2.5-5.6,5.6V19c0,3.1,2.5,5.6,5.6,5.6H19c3.1,0,5.6-2.5,5.6-5.6v-5.7
		C24.6,10.3,22.1,7.8,19,7.8z M13.4,11.4H19c1.1,0,2,0.9,2,2V19c0,1.1-0.9,2-2,2h0h-5.7c-1.1,0-2-0.9-2-2l0,0v-5.7
		C11.4,12.3,12.3,11.4,13.4,11.4L13.4,11.4z M19,25.8h-5.7c-3.1,0-5.6,2.5-5.6,5.6V37c0,3.1,2.5,5.6,5.6,5.6H19
		c3.1,0,5.6-2.5,5.6-5.6v-5.7C24.6,28.3,22.1,25.8,19,25.8L19,25.8L19,25.8z M13.4,29.4H19c1.1,0,2,0.9,2,2V37c0,1.1-0.9,2-2,2h0
		h-5.7c-1.1,0-2-0.9-2-2l0,0v-5.7C11.4,30.3,12.3,29.4,13.4,29.4L13.4,29.4z M37.3,26h-5.7c-3.1,0-5.6,2.5-5.6,5.6v5.7
		c0,3.1,2.5,5.6,5.6,5.6h5.7c3.1,0,5.6-2.5,5.6-5.6v-5.7C42.8,28.5,40.3,26,37.3,26L37.3,26z M31.6,29.6h5.7c1.1,0,2,0.9,2,2v5.7
		c0,1.1-0.9,2-2,2l0,0h-5.7c-1.1,0-2-0.9-2-2l0,0v-5.7C29.6,30.5,30.5,29.6,31.6,29.6L31.6,29.6z M31.6,8.2c1.1,0,2.1,0.3,3,0.9
		l0.3,0.2c0.8-0.6,1.7-0.9,2.6-1.1l0.3,0l0.3,0c1.5,0,2.8,0.6,3.9,1.7c1,1.1,1.6,2.5,1.6,3.9c0,1.4-0.5,2.7-1.4,3.7l-0.2,0.2l-5.7,6
		c-0.3,0.4-0.8,0.6-1.3,0.6c-0.4,0-0.9-0.2-1.2-0.4l-0.1-0.1l-5.7-6c-1-1.1-1.6-2.5-1.6-3.9c0-1.5,0.6-2.9,1.6-3.9
		C28.7,8.8,30.1,8.2,31.6,8.2z M31.6,11.9c-0.4,0-0.9,0.2-1.2,0.5c-0.3,0.4-0.5,0.8-0.5,1.3c0,0.4,0.1,0.9,0.4,1.2l0.1,0.1l4.4,4.6
		l4.4-4.6c0.3-0.3,0.5-0.7,0.5-1.1l0-0.2c0-0.5-0.2-1-0.5-1.3c-0.3-0.3-0.7-0.5-1.2-0.5c-0.4,0-0.8,0.1-1.1,0.4l-0.1,0.1l-0.7,0.7
		c-0.7,0.7-1.8,0.8-2.5,0.1l-0.1-0.1l-0.7-0.7C32.5,12.1,32,11.9,31.6,11.9L31.6,11.9z"/>
</g>
</svg>
