<?xml version="1.0" encoding="utf-8"?>
<!-- Generator: Adobe Illustrator 26.2.1, SVG Export Plug-In . SVG Version: 6.00 Build 0)  -->
<svg version="1.1" id="Layer_1" xmlns="http://www.w3.org/2000/svg" xmlns:xlink="http://www.w3.org/1999/xlink" x="0px" y="0px"
	 viewBox="0 0 48 49" style="enable-background:new 0 0 48 49;" xml:space="preserve">
<style type="text/css">
	.st0{fill:#EC008C;}
	.st1{fill:#FFFFFF;}
</style>
<g>
	<path class="st0" d="M23.8,8.2c0.4,0,0.8,0.3,0.9,0.7l13.5,40.8c0.2,0.7-0.1,1.4-0.8,1.7c-0.1,0-0.3,0.1-0.4,0.1h-3
		c-0.5,0-1-0.3-1.2-0.8c-1.9-5-4.9-7.5-9-7.5c-4.1,0-7.1,2.5-9,7.5c-0.2,0.5-0.7,0.8-1.2,0.8h-3c-0.7,0-1.3-0.6-1.3-1.3
		c0-0.1,0-0.3,0.1-0.4L22.8,8.9C23,8.5,23.4,8.2,23.8,8.2z M23.8,17.6l-8.4,25.4l0.2-0.2c2.1-2,4.8-3.2,7.8-3.2l0.4,0
		c3.2,0,6,1.1,8.2,3.2l0.2,0.2L23.8,17.6L23.8,17.6z"/>
	<path class="st0" d="M16.1,31.3L27.5,24c0.6-0.4,1.3-0.2,1.7,0.4c0.4,0.6,0.2,1.3-0.4,1.7c0,0,0,0,0,0l-11.4,7.3
		c-0.6,0.4-1.3,0.2-1.7-0.4C15.3,32.4,15.5,31.6,16.1,31.3C16.1,31.3,16.1,31.3,16.1,31.3z"/>
	<path class="st0" d="M27,35.3l-8.8-5.1c-0.6-0.4-1.3-0.2-1.7,0.3c-0.4,0.6-0.2,1.3,0.3,1.7c0,0,0,0,0,0l8.8,5.1
		c0.6,0.4,1.3,0.2,1.7-0.4S27.6,35.7,27,35.3C27,35.4,27,35.4,27,35.3L27,35.3z"/>
	<path class="st0" d="M14.6,42.4l14.8-9c0.6-0.4,1.3-0.2,1.7,0.4s0.2,1.3-0.4,1.7c0,0,0,0,0,0l-14.8,9c-0.6,0.4-1.3,0.2-1.7-0.4
		C13.8,43.5,14,42.8,14.6,42.4C14.6,42.4,14.6,42.4,14.6,42.4L14.6,42.4z"/>
	<g transform="translate(13.2 15.8)">
		<ellipse class="st0" cx="5.9" cy="5.9" rx="5.3" ry="5.3"/>
		<ellipse class="st1" cx="5.9" cy="5.9" rx="2.7" ry="2.6"/>
	</g>
</g>
</svg>
