<?xml version="1.0" encoding="utf-8"?>
<!-- Generator: Adobe Illustrator 26.2.1, SVG Export Plug-In . SVG Version: 6.00 Build 0)  -->
<svg version="1.1" id="Layer_1" xmlns="http://www.w3.org/2000/svg" xmlns:xlink="http://www.w3.org/1999/xlink" x="0px" y="0px"
	 viewBox="0 0 48 48" style="enable-background:new 0 0 48 48;" xml:space="preserve">
<style type="text/css">
	.st0{fill:#EC008C;}
	.st1{fill-rule:evenodd;clip-rule:evenodd;fill:#EC008C;}
</style>
<g>
	<path class="st0" d="M21,7.8c1,0,1.8,0.8,1.8,1.8c0,1-0.8,1.8-1.8,1.8c-8.6,0-15.6,7-15.6,15.6s7,15.6,15.6,15.6
		c6.9,0,13-4.6,15-11.2c0.3-1,1.2-1.5,2.2-1.3c1,0.3,1.5,1.2,1.3,2.2c0,0,0,0.1,0,0.1C37,40.6,29.5,46.2,21,46.2
		C10.4,46.2,1.8,37.6,1.8,27S10.4,7.8,21,7.8z"/>
	<path class="st0" d="M33.5,6.2c0.8-0.6,1.9-0.5,2.5,0.3c0.6,0.7,0.5,1.8-0.2,2.4l-0.1,0.1L21.7,19.8l17,3.3c1.5,0.3,2,2.2,0.8,3.1
		l-0.1,0.1l-12.7,9c-0.8,0.6-1.9,0.4-2.5-0.4c-0.5-0.8-0.4-1.8,0.3-2.4l0.1-0.1l9.2-6.6l-16.8-3.2c-1.5-0.3-2-2.1-0.9-3.1l0.1-0.1
		L33.5,6.2z"/>
	<circle class="st1" cx="25.8" cy="34.2" r="4.2"/>
	<circle class="st1" cx="16.2" cy="21" r="4.2"/>
	<circle class="st1" cx="40.2" cy="23.4" r="4.2"/>
	<circle class="st1" cx="35.4" cy="6.6" r="4.2"/>
</g>
</svg>
