<svg xmlns="http://www.w3.org/2000/svg" width="20" height="20" viewBox="0 0 20 20">
  <g id="x" transform="translate(-0.664 -0.256)">
    <path id="Line_14" data-name="Line 14" d="M-.052,19.25a.7.7,0,0,1-.493-.2.7.7,0,0,1,0-.987l18.6-18.6a.7.7,0,0,1,.987,0,.7.7,0,0,1,0,.987l-18.6,18.6A.7.7,0,0,1-.052,19.25Z" transform="translate(1.414 1.006)" fill="#47464c"/>
    <path id="Line_15" data-name="Line 15" d="M18.553,19.25a.7.7,0,0,1-.493-.2L-.546.441a.7.7,0,0,1,0-.987.7.7,0,0,1,.987,0l18.6,18.6a.7.7,0,0,1-.493,1.191Z" transform="translate(1.414 1.006)" fill="#47464c"/>
  </g>
</svg>
