<svg width="48" height="48" viewBox="0 0 48 48" fill="none" xmlns="http://www.w3.org/2000/svg">
<g id="Group 2">
<circle id="Oval" cx="24" cy="24" r="24" fill="white"/>
<path id="Shape" fill-rule="evenodd" clip-rule="evenodd" d="M16.7854 14.9435C12.7842 18.3627 11.5237 23.8809 13.515 28.5966L11 35.8904L18.5931 34.3392C23.0663 36.934 28.8004 36.4749 32.8015 33.0557C37.8893 28.708 38.4285 21.1288 34.0057 16.1273C29.583 11.1257 21.8731 10.5958 16.7854 14.9435ZM19.1661 31.8597L14.2522 33.1112L16.0925 28.3838L15.9118 27.9963C14.122 24.1576 15.0952 19.5677 18.387 16.7548C22.4572 13.2765 28.6251 13.7005 32.1633 17.7018C35.7015 21.703 35.2702 27.7663 31.1999 31.2445C27.9082 34.0575 23.1492 34.3661 19.5314 32.0896L19.1661 31.8597ZM29.8486 26.6622C29.8631 26.6706 29.8733 26.6765 29.8758 26.678C29.9509 26.7221 30.0037 26.755 30.053 26.7897C30.1862 26.8835 30.2805 26.9824 30.3265 27.0941C30.4729 27.3849 30.3519 28.0679 30.0629 28.6918C29.7445 29.379 28.5633 29.9887 27.7767 30.0361C26.7247 30.0976 25.9542 29.8846 24.3646 29.0412C23.4194 28.5389 22.5534 27.8314 21.7651 26.9745C21.2728 26.4394 20.8386 25.8767 20.4568 25.3076C20.2302 24.9699 19.8257 24.2998 19.9363 24.4729C19.7367 24.1479 19.6061 23.9127 19.4407 23.5299C19.1244 22.7978 18.959 22.0702 19.0205 21.3795C19.0899 20.6003 19.3627 19.9859 19.7824 19.4862C19.8774 19.3731 19.9754 19.2711 20.0829 19.17C20.1447 19.1119 20.3186 18.9574 20.2985 18.9757C20.6197 18.6898 21.0095 18.5744 21.3596 18.6045C21.74 18.6372 23.2658 21.0139 23.449 21.4695C23.562 21.7505 23.5677 22.0194 23.4003 22.2939C23.3707 22.3412 23.3407 22.3871 23.3103 22.4317C23.0749 22.7767 22.6373 23.1945 22.5006 23.3108C23.2468 24.8645 23.9464 25.53 25.7498 26.6192C25.814 26.6586 25.8226 26.6742 25.8273 26.6731C25.8302 26.6724 25.8317 26.6655 25.8438 26.654C26.2061 26.3097 26.6139 25.9019 26.761 25.7198C27.0825 25.3218 27.4205 25.312 27.8706 25.5225C28.0891 25.6201 29.1976 26.2674 29.69 26.5696C29.7238 26.5896 29.8055 26.6371 29.8486 26.6622Z" fill="#333333"/>
</g>
</svg>
