<svg width="55" height="55" viewBox="0 0 55 55" fill="none" xmlns="http://www.w3.org/2000/svg">
<rect width="55" height="55" rx="8" fill="#F4F4F4"/>
<g opacity="0.01">
<rect opacity="0.289481" x="14.3" y="14.3" width="27.4" height="27.4" rx="11.7" stroke="#979797" stroke-width="0.6"/>
<rect opacity="0.390346" x="18.5" y="14.3" width="19" height="27.4" rx="0.9" fill="#D8D8D8" stroke="#979797" stroke-width="0.6"/>
<rect opacity="0.296619" x="16.4" y="16.4001" width="23.2" height="23.2" rx="0.9" fill="#D8D8D8" stroke="#979797" stroke-width="0.6"/>
<path opacity="0.265927" d="M41.7 19.4002V36.6002C41.7 37.0972 41.2971 37.5002 40.8 37.5002H15.2C14.7029 37.5002 14.3 37.0973 14.3 36.6002V19.4002C14.3 18.9031 14.7029 18.5002 15.2 18.5002H40.8C41.2971 18.5002 41.7 18.9031 41.7 19.4002Z" stroke="#979797" stroke-width="0.6"/>
</g>
<g clip-path="url(#clip0_588_5177)">
<path d="M33.5227 14H22.4C20.8536 14 19.6 15.2536 19.6 16.8V39.2C19.6 40.7464 20.8536 42 22.4 42H36.9833C38.5297 42 39.7833 40.7464 39.7833 39.2L39.7833 20.6437L33.5227 14Z" fill="#C6168D"/>
<mask id="mask0_588_5177" style="mask-type:alpha" maskUnits="userSpaceOnUse" x="19" y="14" width="21" height="28">
<path d="M33.5227 14H22.4C20.8536 14 19.6 15.2536 19.6 16.8V39.2C19.6 40.7464 20.8536 42 22.4 42H36.9833C38.5297 42 39.7833 40.7464 39.7833 39.2L39.7833 20.6437L33.5227 14Z" fill="white"/>
</mask>
<g mask="url(#mask0_588_5177)">
<path opacity="0.49202" d="M39.9897 13.855H33.3128V19.1736C33.3128 19.9689 33.9575 20.6136 34.7528 20.6136H39.9897V13.855Z" fill="white"/>
</g>
<rect x="16.8" y="23.1001" width="21" height="11.2" rx="1.2" fill="#7C145A"/>
<path d="M20.916 32.144C22.491 32.144 23.607 30.92 23.607 29.408V25.52H22.167V29.408C22.167 30.2 21.699 30.848 20.916 30.848C20.169 30.848 19.71 30.254 19.665 29.498H18.225C18.27 30.965 19.368 32.144 20.916 32.144ZM25.9017 32V29.84H27.6837C28.8807 29.84 29.8617 28.877 29.8617 27.68C29.8617 26.483 28.8807 25.52 27.6837 25.52H24.4617V32H25.9017ZM27.6117 26.816C28.0077 26.816 28.4217 27.203 28.4217 27.68C28.4217 28.157 28.0077 28.544 27.6117 28.544H25.9017V26.816H27.6117ZM37.1891 28.544V28.202H33.4721V29.246H35.6951C35.4701 30.164 34.6511 30.848 33.6611 30.848C32.5091 30.848 31.5731 29.912 31.5731 28.76C31.5731 27.608 32.5091 26.672 33.6611 26.672C34.2641 26.672 34.8941 26.933 35.2811 27.338H36.9551C36.3881 26.177 35.0831 25.376 33.6611 25.376C31.7081 25.376 30.1331 26.888 30.1331 28.76C30.1331 30.632 31.7081 32.144 33.6611 32.144C35.9021 32.144 37.1891 30.452 37.1891 28.544Z" fill="white"/>
</g>
<defs>
<clipPath id="clip0_588_5177">
<rect width="22.9833" height="28" fill="white" transform="translate(16.8 14)"/>
</clipPath>
</defs>
</svg>
