<svg width="55" height="56" viewBox="0 0 55 56" fill="none" xmlns="http://www.w3.org/2000/svg">
<g clip-path="url(#clip0_588_5206)">
<rect y="0.988281" width="55" height="55" rx="8" fill="#F4F4F4"/>
<g opacity="0.01">
<rect opacity="0.289481" x="14.3" y="15.2883" width="27.4" height="27.4" rx="11.7" stroke="#979797" stroke-width="0.6"/>
<rect opacity="0.390346" x="18.5" y="15.2883" width="19" height="27.4" rx="0.9" fill="#D8D8D8" stroke="#979797" stroke-width="0.6"/>
<rect opacity="0.296619" x="16.4" y="17.3884" width="23.2" height="23.2" rx="0.9" fill="#D8D8D8" stroke="#979797" stroke-width="0.6"/>
<path opacity="0.265927" d="M40.8 19.4885C41.2971 19.4885 41.7 19.8914 41.7 20.3885V37.5885C41.7 38.0855 41.2971 38.4885 40.8 38.4885H15.2C14.7029 38.4885 14.3 38.0855 14.3 37.5885V20.3885C14.3 19.8914 14.7029 19.4885 15.2 19.4885H40.8Z" stroke="#979797" stroke-width="0.6"/>
</g>
<g clip-path="url(#clip1_588_5206)">
<path d="M33.5227 14.9883H22.4C20.8536 14.9883 19.6 16.2419 19.6 17.7883V40.1883C19.6 41.7347 20.8536 42.9883 22.4 42.9883H36.9833C38.5297 42.9883 39.7833 41.7347 39.7833 40.1883L39.7833 21.6319L33.5227 14.9883Z" fill="#32BCAD"/>
<mask id="mask0_588_5206" style="mask-type:alpha" maskUnits="userSpaceOnUse" x="19" y="14" width="21" height="29">
<path d="M33.5227 14.9883H22.4C20.8536 14.9883 19.6 16.2419 19.6 17.7883V40.1883C19.6 41.7347 20.8536 42.9883 22.4 42.9883H36.9833C38.5297 42.9883 39.7833 41.7347 39.7833 40.1883L39.7833 21.6319L33.5227 14.9883Z" fill="white"/>
</mask>
<g mask="url(#mask0_588_5206)">
<path opacity="0.49202" d="M39.9897 14.8433H33.3128V20.1619C33.3128 20.9572 33.9575 21.6019 34.7528 21.6019H39.9897V14.8433Z" fill="white"/>
</g>
<rect x="12.8" y="24.0884" width="25" height="11.2" rx="1.2" fill="#1B7D73"/>
<path d="M15.89 32.9883V29.2623L17.78 32.9883H18.95L20.84 29.2623V32.9883H22.28V26.5083H20.876L18.365 31.2333L15.854 26.5083H14.45V32.9883H15.89ZM26.4175 33.1323C28.3525 33.1323 29.9275 31.6203 29.9275 29.7483C29.9275 27.8763 28.3525 26.3643 26.4175 26.3643C24.4735 26.3643 22.9075 27.8763 22.9075 29.7483C22.9075 31.6203 24.4735 33.1323 26.4175 33.1323ZM28.4875 29.7483C28.4875 30.9003 27.5605 31.8363 26.4175 31.8363C25.2745 31.8363 24.3475 30.9003 24.3475 29.7483C24.3475 28.5963 25.2745 27.6603 26.4175 27.6603C27.5605 27.6603 28.4875 28.5963 28.4875 29.7483ZM32.468 32.9883H33.71L36.392 26.5083H34.826L33.089 30.8103L31.352 26.5083H29.786L32.468 32.9883Z" fill="white"/>
</g>
</g>
<defs>
<clipPath id="clip0_588_5206">
<rect width="55" height="55" fill="white" transform="translate(0 0.988281)"/>
</clipPath>
<clipPath id="clip1_588_5206">
<rect width="26.9833" height="28" fill="white" transform="translate(12.8 14.9883)"/>
</clipPath>
</defs>
</svg>
