<svg width="98" height="98" viewBox="0 0 98 98" fill="none" xmlns="http://www.w3.org/2000/svg">
<circle cx="48.8492" cy="48.8492" r="48.8492" fill="#EC008C"/>
<rect x="21.9912" y="40.8984" width="39" height="39" rx="7" transform="rotate(-29 21.9912 40.8984)" stroke="white" stroke-width="3"/>
<path d="M39.2888 31.8823L42.2531 37.23C42.2531 37.23 46.2889 33.7187 48.5391 37.7782C50.7893 41.8377 45.7706 43.5757 45.7706 43.5757L51.4487 53.8194C51.4487 53.8194 46.0091 55.8329 48.2436 59.8641C50.4781 63.8953 54.9463 60.1293 54.9463 60.1293L57.7116 65.1179" stroke="white" stroke-width="3" stroke-linecap="square"/>
<path d="M64.9822 39.0784L59.6345 42.0426C59.6345 42.0426 63.1458 46.0785 59.0863 48.3287C55.0268 50.5789 53.2888 45.5601 53.2888 45.5601L43.0451 51.2383C43.0451 51.2383 41.0316 45.7986 37.0004 48.0332C32.9692 50.2677 36.7352 54.7359 36.7352 54.7359L31.7466 57.5011" stroke="white" stroke-width="3" stroke-linecap="square"/>
</svg>
