<svg width="98" height="98" viewBox="0 0 98 98" fill="none" xmlns="http://www.w3.org/2000/svg">
<circle cx="48.8492" cy="48.8492" r="48.8492" fill="#EC008C"/>
<g opacity="0.01">
<rect opacity="0.289481" x="25.5" y="25.5" width="47" height="47" rx="19.5" stroke="#979797"/>
<rect opacity="0.390346" x="32.7" y="25.5" width="32.6" height="47" rx="1.5" fill="#D8D8D8" stroke="#979797"/>
<rect opacity="0.296619" x="29.1001" y="29.0996" width="39.8" height="39.8" rx="1.5" fill="#D8D8D8" stroke="#979797"/>
<path opacity="0.265927" d="M71 32.7002C71.8284 32.7002 72.5 33.3718 72.5 34.2002V63.8002C72.5 64.6286 71.8284 65.3002 71 65.3002H27C26.1716 65.3002 25.5 64.6286 25.5 63.8002V34.2002C25.5 33.3718 26.1716 32.7002 27 32.7002H71Z" stroke="#979797"/>
</g>
<path fill-rule="evenodd" clip-rule="evenodd" d="M57.955 70.1994L55.4909 59.3994L51.9811 60.2002L54.4452 71.0002L57.955 70.1994ZM45.9099 60.1827L42.3923 59.4169L40.0413 70.2169L43.5589 70.9827L45.9099 60.1827Z" fill="white"/>
<rect x="32.2" y="69.3994" width="33.6" height="3.6" rx="1.8" fill="white"/>
<path d="M46.5318 39.1561C47.6302 37.1282 50.5107 37.0466 51.7223 39.0089L52.0901 39.6046C52.4823 40.2399 53.136 40.6686 53.8749 40.7752C55.8801 41.0644 56.742 43.4813 55.3722 44.974L54.9151 45.4721C54.4132 46.019 54.1761 46.7583 54.2663 47.4951C54.5216 49.5824 52.2722 51.0561 50.4605 49.9883L50.2159 49.8441C49.4516 49.3936 48.5026 49.3952 47.7399 49.8484L47.5338 49.9708C45.8143 50.9924 43.6936 49.5077 44.0652 47.5425C44.2081 46.7865 43.9675 46.0089 43.4225 45.4658L43.0248 45.0694C41.5421 43.5917 42.3976 41.0553 44.4724 40.7775C45.2726 40.6704 45.9733 40.1871 46.3578 39.4773L46.5318 39.1561Z" fill="white"/>
<path fill-rule="evenodd" clip-rule="evenodd" d="M67 44.2002C67 34.2591 58.9411 26.2002 49 26.2002C39.0589 26.2002 31 34.2591 31 44.2002C31 54.1413 39.0589 62.2002 49 62.2002C58.9411 62.2002 67 54.1413 67 44.2002ZM34.6 44.2002C34.6 36.2473 41.0471 29.8002 49 29.8002C56.9529 29.8002 63.4 36.2473 63.4 44.2002C63.4 52.1531 56.9529 58.6002 49 58.6002C41.0471 58.6002 34.6 52.1531 34.6 44.2002Z" fill="white"/>
</svg>
