<svg width="65" height="64" viewBox="0 0 65 64" xmlns="http://www.w3.org/2000/svg" xmlns:xlink="http://www.w3.org/1999/xlink">
    <defs>
        <linearGradient x1="11.011%" y1="-26.752%" x2="100%" y2="149.252%" id="a">
            <stop stop-color="#FF006B" offset="0%"/>
            <stop stop-color="#ED1C24" offset="44.527%"/>
            <stop stop-color="#BA0FB5" offset="100%"/>
        </linearGradient>
        <path d="m38.74 17.255 6.34 6.968a3.84 3.84 0 0 1 1 2.584V45.76a3.84 3.84 0 0 1-3.84 3.84h-19.2a3.84 3.84 0 0 1-3.84-3.84V19.84A3.84 3.84 0 0 1 23.04 16H35.9a3.84 3.84 0 0 1 2.84 1.255z" id="b"/>
    </defs>
    <g transform="translate(.644)" fill="none" fill-rule="evenodd">
        <circle fill="url(#a)" cx="32" cy="32" r="32"/>
        <mask id="c" fill="#fff">
            <use xlink:href="#b"/>
        </mask>
        <use fill="#FFF" fill-rule="nonzero" xlink:href="#b"/>
        <path d="M24.8 33.6h14.4a.8.8 0 1 1 0 1.6H24.8a.8.8 0 1 1 0-1.6zM24.8 38.4h14.4a.8.8 0 1 1 0 1.6H24.8a.8.8 0 1 1 0-1.6zM24.8 43.2h9.6a.8.8 0 1 1 0 1.6h-9.6a.8.8 0 1 1 0-1.6z" fill="#ED156C" mask="url(#c)"/>
        <path fill="#D8D8D8" mask="url(#c)" d="M36.8 16h14.4v9.6H36.8z"/>
    </g>
</svg>
