<svg width="98" height="98" viewBox="0 0 98 98" fill="none" xmlns="http://www.w3.org/2000/svg">
<circle cx="48.8492" cy="48.8492" r="48.8492" fill="#EC008C"/>
<g opacity="0.01">
<rect opacity="0.289481" x="26.5" y="25.5" width="47" height="47" rx="19.5" stroke="#979797"/>
<rect opacity="0.390346" x="33.7" y="25.5" width="32.6" height="47" rx="1.5" fill="#D8D8D8" stroke="#979797"/>
<rect opacity="0.296619" x="30.1001" y="29.0996" width="39.8" height="39.8" rx="1.5" fill="#D8D8D8" stroke="#979797"/>
<path opacity="0.265927" d="M72 32.7002C72.8284 32.7002 73.5 33.3718 73.5 34.2002V63.8002C73.5 64.6286 72.8284 65.3002 72 65.3002H28C27.1716 65.3002 26.5 64.6286 26.5 63.8002V34.2002C26.5 33.3718 27.1716 32.7002 28 32.7002H72Z" stroke="#979797"/>
</g>
<mask id="path-6-inside-1_94_45746" fill="white">
<path fill-rule="evenodd" clip-rule="evenodd" d="M31.4875 33.9985C36.3751 28.8169 44.6158 28.8169 49.5033 33.9985L50.0195 34.5457L50.5357 33.9985C55.4232 28.8169 63.6639 28.8169 68.5514 33.9985C73.0514 38.7692 73.0514 46.2211 68.5514 50.9918L51.2259 69.3597C50.9001 69.7051 50.4565 69.8685 50.0193 69.8498C49.5822 69.8684 49.1387 69.705 48.813 69.3597L31.4875 50.9918C26.9876 46.2211 26.9876 38.7692 31.4875 33.9985Z"/>
</mask>
<path d="M49.5033 33.9985L47.3209 36.057L47.3209 36.057L49.5033 33.9985ZM31.4875 33.9985L29.3052 31.94L29.3052 31.94L31.4875 33.9985ZM50.0195 34.5457L47.8371 36.6042L50.0195 38.9179L52.2018 36.6042L50.0195 34.5457ZM50.5357 33.9985L48.3533 31.94V31.94L50.5357 33.9985ZM68.5514 33.9985L70.7338 31.94V31.94L68.5514 33.9985ZM68.5514 50.9918L70.7338 53.0503L68.5514 50.9918ZM51.2259 69.3597L49.0436 67.3013L49.0436 67.3013L51.2259 69.3597ZM50.0193 69.8498L50.1474 66.8525L50.0196 66.8471L49.8918 66.8525L50.0193 69.8498ZM48.813 69.3597L46.6307 71.4182L46.6307 71.4182L48.813 69.3597ZM31.4875 50.9918L33.6699 48.9333L31.4875 50.9918ZM51.6856 31.94C45.614 25.5031 35.3768 25.5031 29.3052 31.94L33.6699 36.057C37.3733 32.1307 43.6175 32.1307 47.3209 36.057L51.6856 31.94ZM52.2018 32.4873L51.6856 31.94L47.3209 36.057L47.8371 36.6042L52.2018 32.4873ZM52.2018 36.6042L52.718 36.057L48.3533 31.94L47.8371 32.4873L52.2018 36.6042ZM52.718 36.057C56.4214 32.1307 62.6656 32.1307 66.3691 36.057L70.7338 31.94C64.6621 25.5031 54.4249 25.5031 48.3533 31.94L52.718 36.057ZM66.3691 36.057C69.7788 39.6719 69.7788 45.3184 66.3691 48.9333L70.7338 53.0503C76.3239 47.1238 76.3239 37.8665 70.7338 31.94L66.3691 36.057ZM66.3691 48.9333L49.0436 67.3013L53.4083 71.4182L70.7338 53.0503L66.3691 48.9333ZM49.0436 67.3013C49.3419 66.985 49.7543 66.8357 50.1474 66.8525L49.8913 72.8471C51.1588 72.9012 52.4584 72.4253 53.4083 71.4182L49.0436 67.3013ZM46.6307 71.4182C47.5804 72.425 48.8796 72.901 50.1469 72.8471L49.8918 66.8525C50.2848 66.8358 50.6971 66.9851 50.9954 67.3012L46.6307 71.4182ZM29.3052 53.0503L46.6307 71.4182L50.9954 67.3012L33.6699 48.9333L29.3052 53.0503ZM29.3052 31.94C23.715 37.8665 23.715 47.1238 29.3052 53.0503L33.6699 48.9333C30.2601 45.3184 30.2601 39.6719 33.6699 36.057L29.3052 31.94Z" fill="white" mask="url(#path-6-inside-1_94_45746)"/>
<path fill-rule="evenodd" clip-rule="evenodd" d="M38.7633 39.563C39.4662 38.8601 39.4662 37.7204 38.7633 37.0174C38.0603 36.3145 36.9206 36.3145 36.2177 37.0174C33.1716 40.0635 33.1716 45.0022 36.2177 48.0483C36.9206 48.7513 38.0603 48.7513 38.7633 48.0483C39.4662 47.3454 39.4662 46.2057 38.7633 45.5027C37.1231 43.8625 37.1231 41.2032 38.7633 39.563ZM42.929 49.6884L41.942 48.6815C41.2391 47.9786 40.0994 47.9786 39.3965 48.6815C38.6935 49.3845 38.6935 50.5241 39.3965 51.2271L39.7353 51.5676L40.3834 52.2339C41.0863 52.9369 42.226 52.9369 42.929 52.2339C43.6319 51.531 43.6319 50.3913 42.929 49.6884Z" fill="white"/>
</svg>
