<svg width="30" height="30" viewBox="0 0 30 30" fill="none" xmlns="http://www.w3.org/2000/svg">
<circle cx="15" cy="15" r="15" fill="#00D95F"/>
<path fill-rule="evenodd" clip-rule="evenodd" d="M9.8569 8.96235C7.18948 11.2418 6.34917 14.9206 7.67668 18.0644L6 22.9269L11.0621 21.8928C14.0442 23.6227 17.8669 23.3166 20.5344 21.0372C23.9262 18.1386 24.2856 13.0859 21.3371 9.75152C18.3886 6.41716 13.2488 6.06383 9.8569 8.96235ZM11.4441 20.2398L8.16811 21.0741L9.39497 17.9225L9.27452 17.6642C8.08134 15.1051 8.73014 12.0452 10.9246 10.1698C13.6381 7.85102 17.75 8.13368 20.1088 10.8012C22.4676 13.4687 22.1801 17.5109 19.4666 19.8297C17.2721 21.705 14.0994 21.9107 11.6876 20.393L11.4441 20.2398ZM18.5658 16.7748C18.5755 16.7804 18.5822 16.7844 18.5838 16.7853C18.6339 16.8147 18.6691 16.8367 18.702 16.8598C18.7908 16.9224 18.8536 16.9882 18.8843 17.0627C18.9819 17.2566 18.9013 17.712 18.7086 18.1278C18.4963 18.586 17.7088 18.9925 17.1845 19.024C16.4832 19.065 15.9695 18.923 14.9097 18.3608C14.2796 18.0259 13.7023 17.5543 13.1768 16.983C12.8485 16.6262 12.559 16.2511 12.3045 15.8717C12.1535 15.6466 11.8838 15.1999 11.9575 15.3153C11.8245 15.0986 11.7374 14.9418 11.6272 14.6866C11.4163 14.1985 11.306 13.7134 11.347 13.253C11.3932 12.7336 11.5752 12.324 11.8549 11.9908C11.9182 11.9154 11.9836 11.8474 12.0552 11.78C12.0965 11.7413 12.2124 11.6383 12.199 11.6505C12.4131 11.4598 12.673 11.3829 12.9064 11.403C13.16 11.4248 14.1772 13.0092 14.2993 13.313C14.3747 13.5004 14.3785 13.6796 14.2668 13.8626C14.2471 13.8942 14.2271 13.9248 14.2069 13.9545C14.05 14.1845 13.7582 14.463 13.667 14.5405C14.1645 15.5763 14.6309 16.02 15.8332 16.7461C15.876 16.7724 15.8817 16.7828 15.8849 16.7821C15.8868 16.7816 15.8878 16.777 15.8958 16.7694C16.1374 16.5398 16.4093 16.2679 16.5073 16.1465C16.7217 15.8812 16.947 15.8746 17.2471 16.015C17.3927 16.08 18.1318 16.5116 18.46 16.713C18.4826 16.7264 18.5371 16.7581 18.5658 16.7748Z" fill="white"/>
</svg>
