<svg width="20" height="20" viewBox="0 0 20 20" fill="none" xmlns="http://www.w3.org/2000/svg">
<g opacity="0.01">
<rect opacity="0.289481" x="0.25" y="0.25" width="19.5" height="19.5" rx="8.32143" stroke="#979797" stroke-width="0.5"/>
<rect opacity="0.390346" x="3.25" y="0.25" width="13.5" height="19.5" rx="0.607143" fill="#D8D8D8" stroke="#979797" stroke-width="0.5"/>
<rect opacity="0.296619" x="1.75" y="1.75" width="16.5" height="16.5" rx="0.607143" fill="#D8D8D8" stroke="#979797" stroke-width="0.5"/>
<path opacity="0.265927" d="M19.1429 3.25C19.4782 3.25 19.75 3.52183 19.75 3.85714V16.1429C19.75 16.4782 19.4782 16.75 19.1429 16.75H0.857143C0.521828 16.75 0.25 16.4782 0.25 16.1429V3.85714C0.25 3.52183 0.521828 3.25 0.857143 3.25L19.1429 3.25Z" stroke="#979797" stroke-width="0.5"/>
</g>
<g clip-path="url(#clip0_218_28784)">
<path d="M13.9446 0H5.99984C4.89527 0 3.99984 0.89543 3.99984 2V18C3.99984 19.1046 4.89527 20 5.99984 20H16.4165C17.5211 20 18.4165 19.1046 18.4165 18L18.4165 4.74547L13.9446 0Z" fill="#32BCAD"/>
<mask id="mask0_218_28784" style="mask-type:alpha" maskUnits="userSpaceOnUse" x="4" y="0" width="15" height="20">
<path d="M13.9446 0H5.99984C4.89527 0 3.99984 0.89543 3.99984 2V18C3.99984 19.1046 4.89527 20 5.99984 20H16.4165C17.5211 20 18.4165 19.1046 18.4165 18L18.4165 4.74547L13.9446 0Z" fill="white"/>
</mask>
<g mask="url(#mask0_218_28784)">
<path opacity="0.49202" d="M18.564 -0.103516H13.7947V3.6955C13.7947 4.26356 14.2552 4.72407 14.8233 4.72407H18.564V-0.103516Z" fill="white"/>
</g>
<rect x="1.28564" y="6.5" width="15.7143" height="8" rx="0.857143" fill="#1B7D73"/>
<path d="M3.49258 12.4287V9.76728L4.84258 12.4287H5.67829L7.02829 9.76728V12.4287H8.05686V7.80014H7.05401L5.26044 11.1751L3.46686 7.80014H2.46401V12.4287H3.49258ZM9.72653 12.4287V10.8859H10.9994C11.8544 10.8859 12.5551 10.198 12.5551 9.343C12.5551 8.488 11.8544 7.80014 10.9994 7.80014H8.69796V12.4287H9.72653ZM10.948 8.72585C11.2308 8.72585 11.5265 9.00228 11.5265 9.343C11.5265 9.68371 11.2308 9.96014 10.948 9.96014H9.72653V8.72585H10.948ZM12.7168 10.9244V11.6701H14.864V12.4287H15.8925V11.6701H16.3425V10.8473H15.8925V7.80014H14.9025L12.7168 10.9244ZM13.8225 10.8473L14.9025 9.208V10.8473H13.8225Z" fill="white"/>
</g>
<defs>
<clipPath id="clip0_218_28784">
<rect width="17.131" height="20" fill="white" transform="translate(1.28564)"/>
</clipPath>
</defs>
</svg>
