<svg width="106" height="57" viewBox="0 0 106 57" fill="none" xmlns="http://www.w3.org/2000/svg">
<ellipse cx="73.9276" cy="5.72507" rx="31.8104" ry="31.7251" fill="#FFCB0A"/>
<ellipse cx="52.7234" cy="31.2666" rx="44.7702" ry="44.6065" fill="#ED1D23"/>
<ellipse cx="31.8104" cy="53.2759" rx="31.8104" ry="31.7251" fill="#25BDAD"/>
<path fill-rule="evenodd" clip-rule="evenodd" d="M8.25 32.2164C14.0632 25.5012 22.6443 21.2539 32.216 21.2539C49.7259 21.2539 63.9206 35.4677 63.9206 53.0012C63.9206 61.8951 60.2683 69.9348 54.3836 75.6984C53.889 75.7147 53.3925 75.7229 52.894 75.7229C28.6342 75.7229 8.89226 56.3535 8.25 32.2164Z" fill="#C6168D"/>
<path fill-rule="evenodd" clip-rule="evenodd" d="M48.4714 -13.0115C49.8069 -13.1306 51.1592 -13.1914 52.5258 -13.1914C75.9837 -13.1914 95.2341 4.73313 97.1978 27.5681C91.3971 33.6555 83.1921 37.452 74.0958 37.452C56.5165 37.452 42.2656 23.2722 42.2656 5.78048C42.2656 -1.25504 44.5711 -7.75475 48.4714 -13.0115Z" fill="#EC008C"/>
</svg>
