<svg width="28" height="29" viewBox="0 0 28 29" fill="none" xmlns="http://www.w3.org/2000/svg">
<g opacity="0.01">
<rect opacity="0.289481" x="0.3" y="1.28828" width="27.4" height="27.4" rx="11.7" stroke="#979797" stroke-width="0.6"/>
<rect opacity="0.390346" x="4.5" y="1.28828" width="19" height="27.4" rx="0.9" fill="#D8D8D8" stroke="#979797" stroke-width="0.6"/>
<rect opacity="0.296619" x="2.4" y="3.38838" width="23.2" height="23.2" rx="0.9" fill="#D8D8D8" stroke="#979797" stroke-width="0.6"/>
<path opacity="0.265927" d="M26.8 5.48848C27.2971 5.48848 27.7 5.89142 27.7 6.38848V23.5885C27.7 24.0855 27.2971 24.4885 26.8 24.4885H1.2C0.702944 24.4885 0.299999 24.0855 0.299999 23.5885V6.38848C0.299999 5.89142 0.702944 5.48848 1.2 5.48848L26.8 5.48848Z" stroke="#979797" stroke-width="0.6"/>
</g>
<g clip-path="url(#clip0_1764_7276)">
<path d="M19.5227 0.988281H8.4C6.8536 0.988281 5.6 2.24188 5.6 3.78828V26.1883C5.6 27.7347 6.8536 28.9883 8.4 28.9883H22.9833C24.5297 28.9883 25.7833 27.7347 25.7833 26.1883L25.7833 7.63194L19.5227 0.988281Z" fill="#C6168D"/>
<mask id="mask0_1764_7276" style="mask-type:alpha" maskUnits="userSpaceOnUse" x="5" y="0" width="21" height="29">
<path d="M19.5227 0.988281H8.4C6.8536 0.988281 5.6 2.24188 5.6 3.78828V26.1883C5.6 27.7347 6.8536 28.9883 8.4 28.9883H22.9833C24.5297 28.9883 25.7833 27.7347 25.7833 26.1883L25.7833 7.63194L19.5227 0.988281Z" fill="white"/>
</mask>
<g mask="url(#mask0_1764_7276)">
<path opacity="0.49202" d="M25.9897 0.843262H19.3128V6.16188C19.3128 6.95717 19.9575 7.60188 20.7528 7.60188H25.9897V0.843262Z" fill="white"/>
</g>
<rect x="2.8" y="10.0884" width="21" height="11.2" rx="1.2" fill="#7C145A"/>
<path d="M6.916 19.1323C8.491 19.1323 9.607 17.9083 9.607 16.3963V12.5083H8.167V16.3963C8.167 17.1883 7.699 17.8363 6.916 17.8363C6.169 17.8363 5.71 17.2423 5.665 16.4863H4.225C4.27 17.9533 5.368 19.1323 6.916 19.1323ZM11.9017 18.9883V16.8283H13.6837C14.8807 16.8283 15.8617 15.8653 15.8617 14.6683C15.8617 13.4713 14.8807 12.5083 13.6837 12.5083H10.4617V18.9883H11.9017ZM13.6117 13.8043C14.0077 13.8043 14.4217 14.1913 14.4217 14.6683C14.4217 15.1453 14.0077 15.5323 13.6117 15.5323H11.9017V13.8043H13.6117ZM23.1891 15.5323V15.1903H19.4721V16.2343H21.6951C21.4701 17.1523 20.6511 17.8363 19.6611 17.8363C18.5091 17.8363 17.5731 16.9003 17.5731 15.7483C17.5731 14.5963 18.5091 13.6603 19.6611 13.6603C20.2641 13.6603 20.8941 13.9213 21.2811 14.3263H22.9551C22.3881 13.1653 21.0831 12.3643 19.6611 12.3643C17.7081 12.3643 16.1331 13.8763 16.1331 15.7483C16.1331 17.6203 17.7081 19.1323 19.6611 19.1323C21.9021 19.1323 23.1891 17.4403 23.1891 15.5323Z" fill="white"/>
</g>
<defs>
<clipPath id="clip0_1764_7276">
<rect width="22.9833" height="28" fill="white" transform="translate(2.8 0.988281)"/>
</clipPath>
</defs>
</svg>
