<svg width="155" height="54" viewBox="0 0 155 54" xmlns="http://www.w3.org/2000/svg">
    <g fill-rule="nonzero" fill="none">
        <path d="M17.593 24.12c5.729 0 9.658 4.432 9.653 9.89v9.333h-5.177v-9.33c0-2.867-1.624-5.184-4.482-5.187-2.857-.003-4.486 2.312-4.49 5.18v9.331H7.925v-9.329c.005-5.461 3.943-9.887 9.669-9.887zM49.983 18.464v24.881h-4.83v-2.211a6.69 6.69 0 0 1-5.413 2.764c-5.658 0-10.248-4.423-10.248-9.882 0-5.458 4.587-9.895 10.21-9.895a7.84 7.84 0 0 1 5.107 1.897v-7.554h5.174zM39.84 39.2a5.181 5.181 0 0 0 5.172-5.19 5.18 5.18 0 0 0-5.18-5.18 5.18 5.18 0 0 0-5.174 5.187 5.178 5.178 0 0 0 1.516 3.67 5.162 5.162 0 0 0 3.666 1.513zM89.8 37.54c0 4.008-3.59 6.358-7.592 6.358s-7.577-2.35-7.577-6.358h5.177c0 1.59 1.277 2.005 2.414 2.005 1.136 0 2.416-.588 2.416-1.797 0-.864-1.139-1.658-2.692-1.867-3.621-.45-7.107-2.662-7.107-5.597 0-3.794 3.38-6.152 7.383-6.152 4.002 0 7.371 2.35 7.371 6.358h-5.176c0-1.588-1.07-2.003-2.209-2.003S80 28.902 80 30.146c0 1.106 2.279 1.968 4.279 2.212 2.725.309 5.52 2.038 5.52 5.182zM111.95 34.016v9.33h-4.829V41.03a6.56 6.56 0 0 1-5.412 2.867c-5.659 0-10.248-4.423-10.248-9.882 0-5.458 4.584-9.895 10.243-9.895 5.658 0 10.245 4.434 10.245 9.895zm-4.967 0a5.185 5.185 0 0 0-3.194-4.792 5.171 5.171 0 0 0-5.642 1.122 5.19 5.19 0 0 0-1.124 5.651 5.177 5.177 0 0 0 9.96-1.98zM119.567 18.464v5.833h5.174v4.431h-5.174v5.296a5.178 5.178 0 0 0 1.513 3.667 5.162 5.162 0 0 0 3.661 1.516v4.7h-.69c-5.726 0-9.66-4.424-9.66-9.883v-15.56h5.176zM62.68 43.906c-5.682 0-10.283-4.423-10.283-9.882 0-5.458 4.59-9.903 10.284-9.903 5.693 0 10.283 4.423 10.283 9.884 0 5.462-4.59 9.901-10.283 9.901zm0-15.067a5.177 5.177 0 0 0-4.832 3.152 5.19 5.19 0 0 0 1.077 5.674 5.171 5.171 0 0 0 5.65 1.156 5.185 5.185 0 0 0 3.212-4.797 5.154 5.154 0 0 0-1.478-3.657 5.138 5.138 0 0 0-3.628-1.536v.008zM5.954 19.847a2.98 2.98 0 0 1-2.977 2.98A2.98 2.98 0 0 1 0 19.848a2.974 2.974 0 0 1 5.082-2.108c.558.558.872 1.317.872 2.108zM.398 24.685h5.177v18.66H.398v-18.66z" fill="#4D4D4F"/>
        <path d="M149.354 5.609a12.206 12.206 0 0 1 3.564 8.288 8.379 8.379 0 0 0-.343-11.422 8.347 8.347 0 0 0-11.402-.433c3.08.11 6.003 1.384 8.181 3.567z" fill="#FFCB05"/>
        <path d="M132.05 22.936a12.206 12.206 0 0 1-3.558-8.19 8.376 8.376 0 0 0 .413 11.436 8.345 8.345 0 0 0 11.421.327 12.169 12.169 0 0 1-8.275-3.573z" fill="#32BCAD"/>
        <path d="M128.895 14.298c-.146.147-.27.304-.414.461.25 6.425 5.42 11.56 11.837 11.758.138-.122.27-.239.409-.372a8.387 8.387 0 0 0 2.164-8.092 8.372 8.372 0 0 0-5.916-5.924 8.356 8.356 0 0 0-8.08 2.17z" fill="#C6168D"/>
        <path d="M130.522 21.066c-.095-.14-.176-.29-.27-.436.094.146.175.295.27.436zM131.233 22.031c-.089-.111-.167-.228-.251-.339.084.111.162.228.251.34zM137.723 26.145c-.214-.054-.43-.105-.641-.173.21.068.427.12.64.173zM140.004 26.492c-.227 0-.454-.027-.682-.051.228.024.455.038.682.051zM138.865 26.373zM135.485 25.343c-.181-.087-.365-.165-.541-.27.176.105.36.183.54.27zM134.397 24.76c-.157-.094-.317-.181-.468-.27.151.089.316.173.468.27zM133.32 24.029c-.12-.093-.24-.174-.357-.271.116.092.238.178.357.27zM136.594 25.804c-.2-.073-.4-.141-.6-.222.2.081.4.149.6.222z" fill="#ED1C24"/>
        <path d="M140.74 14.298a8.358 8.358 0 0 0 11.832 0c.127-.13.251-.27.37-.398-.193-6.44-5.335-11.628-11.763-11.869a8.161 8.161 0 0 0-.452.418 8.39 8.39 0 0 0 .013 11.85z" fill="#EC008C"/>
        <path d="M140.74 2.438c.144-.144.29-.271.439-.407a12.168 12.168 0 0 0-9.121 3.566 12.207 12.207 0 0 0-3.552 9.138c.13-.152.27-.304.403-.447a8.356 8.356 0 0 1 11.831 0 8.39 8.39 0 0 1 0-11.85zM152.918 13.908c-.116.133-.235.271-.36.39a8.358 8.358 0 0 1-11.831 0 8.387 8.387 0 0 1 0 11.847c-.127.13-.27.244-.4.364 3.37.112 6.636-1.18 9.022-3.567a12.223 12.223 0 0 0 3.57-9.034z" fill="#ED1C24"/>
        <path d="M2.078 53.563a3.09 3.09 0 0 1-1.231-1.2 3.732 3.732 0 0 1 0-3.55c.29-.51.717-.928 1.231-1.207a3.606 3.606 0 0 1 1.754-.428 3.606 3.606 0 0 1 1.754.428c.514.28.94.697 1.23 1.206a3.754 3.754 0 0 1 0 3.55 3.09 3.09 0 0 1-1.23 1.201 3.603 3.603 0 0 1-1.754.426 3.603 3.603 0 0 1-1.754-.426zm3.007-.748c.372-.207.68-.514.888-.886.223-.411.335-.874.324-1.342a2.654 2.654 0 0 0-.324-1.33 2.275 2.275 0 0 0-.88-.89 2.546 2.546 0 0 0-1.25-.311c-.44-.007-.876.1-1.264.309a2.272 2.272 0 0 0-.896.886 2.88 2.88 0 0 0 0 2.678c.208.373.517.68.89.886.387.21.82.315 1.259.307.437.007.869-.098 1.253-.307zM11.044 53.563a3.09 3.09 0 0 1-1.231-1.2 3.732 3.732 0 0 1 0-3.55c.29-.51.716-.928 1.23-1.207a3.805 3.805 0 0 1 3.519 0c.514.28.94.697 1.231 1.206a3.754 3.754 0 0 1 0 3.55c-.29.509-.716.925-1.231 1.201a3.827 3.827 0 0 1-3.518 0zm3.006-.748c.375-.206.684-.513.894-.886a2.923 2.923 0 0 0 0-2.672 2.283 2.283 0 0 0-.883-.89 2.53 2.53 0 0 0-1.247-.311c-.442-.007-.878.1-1.267.309a2.291 2.291 0 0 0-.895.886 2.89 2.89 0 0 0 0 2.678c.207.373.516.68.89.886a2.66 2.66 0 0 0 2.508 0zM18.562 47.319h2.622a2.322 2.322 0 0 1 1.605.504c.391.388.595.927.557 1.477.013.437-.121.866-.381 1.217a1.894 1.894 0 0 1-1.083.678l1.437 2.653h-.988l-1.39-2.578h-1.438v2.578h-.941v-6.53zm2.462 3.146c.355.02.705-.084.993-.292.254-.216.391-.54.369-.873a1.069 1.069 0 0 0-.358-.908 1.649 1.649 0 0 0-1.004-.271h-1.52v2.344h1.52zM25.679 47.319h4.3v.813h-3.347v2.065h2.5v.794h-2.5v2.074h3.347v.794h-4.3zM32.266 47.319h2.1a4.016 4.016 0 0 1 1.826.39c.5.247.914.638 1.191 1.122.286.527.429 1.12.414 1.718 0 1.085-.312 1.906-.936 2.464-.624.558-1.5.837-2.628.835h-1.967v-6.53zm1.96 5.735c.87 0 1.524-.215 1.958-.645.435-.43.653-1.05.653-1.86a2.243 2.243 0 0 0-.655-1.803 2.236 2.236 0 0 0-1.808-.636h-1.156v4.933l1.007.01zM41.621 53.563a3.106 3.106 0 0 1-1.231-1.2 3.754 3.754 0 0 1 0-3.55c.29-.51.717-.927 1.231-1.207a3.81 3.81 0 0 1 3.518 0c.514.28.94.697 1.231 1.206a3.754 3.754 0 0 1 0 3.55c-.289.509-.716.925-1.23 1.201a3.832 3.832 0 0 1-3.519 0zm3.01-.748c.373-.206.682-.513.89-.886.225-.41.338-.873.327-1.342a2.684 2.684 0 0 0-.322-1.33 2.283 2.283 0 0 0-.882-.89 2.546 2.546 0 0 0-1.25-.311 2.59 2.59 0 0 0-1.264.309 2.291 2.291 0 0 0-.896.886 2.89 2.89 0 0 0 0 2.678c.208.373.517.68.89.886a2.66 2.66 0 0 0 2.509 0h-.003zM50.587 53.563a3.106 3.106 0 0 1-1.232-1.2 3.754 3.754 0 0 1 0-3.55c.291-.51.717-.927 1.232-1.207a3.805 3.805 0 0 1 3.518 0c.514.28.94.697 1.231 1.206.599 1.108.599 2.443 0 3.55a3.09 3.09 0 0 1-1.231 1.201 3.827 3.827 0 0 1-3.518 0zm3.014-.748c.374-.206.683-.513.89-.886.226-.41.34-.873.328-1.342a2.684 2.684 0 0 0-.322-1.33 2.283 2.283 0 0 0-.882-.89 2.546 2.546 0 0 0-1.25-.311 2.59 2.59 0 0 0-1.264.309 2.291 2.291 0 0 0-.896.886 2.901 2.901 0 0 0 0 2.678c.21.373.519.68.893.886a2.66 2.66 0 0 0 2.509 0H53.6zM62.865 47.319h.95v2.802h3.407V47.32h.95v6.529h-.95v-2.925h-3.408v2.925h-.95zM71.324 53.303a2.58 2.58 0 0 1-.68-1.897v-4.093h.95v4.128c-.031.467.14.926.469 1.258a2.116 2.116 0 0 0 2.546 0c.329-.333.499-.791.466-1.258V47.32h.952v4.092a2.57 2.57 0 0 1-.682 1.898c-.454.46-1.123.69-2.005.69-.882 0-1.554-.231-2.016-.696zM80.152 48.121h-2.027v-.813h5.012v.813h-2.025v5.727h-.96zM86.24 53.569a3.025 3.025 0 0 1-1.22-1.193 3.547 3.547 0 0 1-.438-1.789 3.59 3.59 0 0 1 .438-1.802 3.014 3.014 0 0 1 1.22-1.195 3.743 3.743 0 0 1 1.792-.42 3.628 3.628 0 0 1 2.249.683v.932a3.141 3.141 0 0 0-2.165-.718 2.805 2.805 0 0 0-1.337.309 2.21 2.21 0 0 0-.91.88 2.912 2.912 0 0 0 0 2.69c.214.377.532.685.915.886.411.21.868.317 1.33.309a3.88 3.88 0 0 0 1.236-.182 2.992 2.992 0 0 0 1.012-.585v.924c-.561.468-1.339.702-2.333.702a3.743 3.743 0 0 1-1.788-.431zM92.697 47.319h.956v2.802h3.404V47.32h.95v6.529h-.95v-2.925h-3.404v2.925H92.7zM100.524 47.319h.96v6.529h-.96zM104.707 53.891a3.492 3.492 0 0 1-.89-.27v-.863a4.465 4.465 0 0 0 1.932.42c.97 0 1.454-.326 1.454-.978a.86.86 0 0 0-.157-.542 1.353 1.353 0 0 0-.458-.36c-.2-.103-.522-.244-.971-.426a3.696 3.696 0 0 1-1.334-.813 1.628 1.628 0 0 1-.409-1.13 1.533 1.533 0 0 1 .27-.911c.2-.275.472-.49.785-.618.366-.152.76-.227 1.156-.22.322-.003.644.025.96.084.29.058.571.149.84.272v.813a3.997 3.997 0 0 0-1.64-.364 1.838 1.838 0 0 0-1.029.242.795.795 0 0 0-.354.694.874.874 0 0 0 .154.517c.123.157.28.285.457.374.204.109.505.244.902.407.362.14.711.312 1.044.512.518.302.822.87.785 1.47a1.57 1.57 0 0 1-.606 1.316c-.406.311-1.003.467-1.792.467a6.298 6.298 0 0 1-1.099-.093zM112.036 53.563a3.09 3.09 0 0 1-1.231-1.2 3.754 3.754 0 0 1 0-3.55c.29-.51.716-.928 1.23-1.207a3.805 3.805 0 0 1 3.519 0c.515.28.941.697 1.231 1.206.6 1.108.6 2.443 0 3.55a3.09 3.09 0 0 1-1.231 1.201 3.827 3.827 0 0 1-3.518 0zm3.01-.748c.372-.206.68-.513.89-.886a2.912 2.912 0 0 0 0-2.672 2.3 2.3 0 0 0-.883-.89 2.546 2.546 0 0 0-1.25-.311 2.59 2.59 0 0 0-1.264.309 2.272 2.272 0 0 0-.896.886c-.226.408-.34.87-.33 1.336-.01.468.102.93.325 1.342.209.373.517.68.89.886.785.42 1.727.42 2.512 0h.005zM119.554 47.319h.906l3.32 4.922v-4.922h.961v6.529h-.914l-3.32-4.922v4.922h-.953z" fill="#4D4D4F"/>
    </g>
</svg>
