<svg width="28" height="28" viewBox="0 0 28 28" fill="none" xmlns="http://www.w3.org/2000/svg">
<g opacity="0.01">
<rect opacity="0.289481" x="0.3" y="0.3" width="27.4" height="27.4" rx="11.7" stroke="#979797" stroke-width="0.6"/>
<rect opacity="0.390346" x="4.50313" y="0.3" width="19" height="27.4" rx="0.9" fill="#D8D8D8" stroke="#979797" stroke-width="0.6"/>
<rect opacity="0.296619" x="2.40156" y="2.40156" width="23.2" height="23.2" rx="0.9" fill="#D8D8D8" stroke="#979797" stroke-width="0.6"/>
<path opacity="0.265927" d="M26.8 4.50313C27.2971 4.50313 27.7 4.90607 27.7 5.40313V22.6031C27.7 23.1002 27.2971 23.5031 26.8 23.5031H1.2C0.702944 23.5031 0.299999 23.1002 0.299999 22.6031V5.40313C0.299999 4.90607 0.702944 4.50313 1.2 4.50313L26.8 4.50313Z" stroke="#979797" stroke-width="0.6"/>
</g>
<g clip-path="url(#clip0_294_893)">
<path d="M19.5206 0H8.39792C6.85152 0 5.59792 1.2536 5.59792 2.8V25.2C5.59792 26.7464 6.85152 28 8.39792 28H22.9813C24.5276 28 25.7813 26.7464 25.7813 25.2L25.7813 6.64366L19.5206 0Z" fill="#ED1D25"/>
<mask id="mask0_294_893" style="mask-type:alpha" maskUnits="userSpaceOnUse" x="5" y="0" width="21" height="28">
<path d="M19.5206 0H8.39792C6.85152 0 5.59792 1.2536 5.59792 2.8V25.2C5.59792 26.7464 6.85152 28 8.39792 28H22.9813C24.5276 28 25.7813 26.7464 25.7813 25.2L25.7813 6.64366L19.5206 0Z" fill="white"/>
</mask>
<g mask="url(#mask0_294_893)">
<path opacity="0.49202" d="M25.9844 -0.148438H19.3075V5.17018C19.3075 5.96547 19.9522 6.61018 20.7475 6.61018H25.9844V-0.148438Z" fill="white"/>
</g>
<rect x="2.79688" y="9.10156" width="21" height="11.2" rx="1.2" fill="#661316"/>
<path d="M5.89 18V15.84H7.672C8.869 15.84 9.85 14.877 9.85 13.68C9.85 12.483 8.869 11.52 7.672 11.52H4.45V18H5.89ZM7.6 12.816C7.996 12.816 8.41 13.203 8.41 13.68C8.41 14.157 7.996 14.544 7.6 14.544H5.89V12.816H7.6ZM16.4304 14.76C16.4304 12.888 15.0354 11.52 13.0014 11.52H10.3914V18H13.0014C15.1254 18 16.4304 16.632 16.4304 14.76ZM13.0554 16.704H11.8314V12.816H13.0554C14.1264 12.816 14.9994 13.689 14.9994 14.76C14.9994 15.831 14.1264 16.704 13.0554 16.704ZM18.5023 18V15.48H20.9323V14.184H18.5023V12.816H21.4723V11.52H17.0623V18H18.5023Z" fill="white"/>
</g>
<defs>
<clipPath id="clip0_294_893">
<rect width="22.9833" height="28" fill="white" transform="translate(2.79688)"/>
</clipPath>
</defs>
</svg>
