<svg width="64" height="65" viewBox="0 0 64 65" fill="none" xmlns="http://www.w3.org/2000/svg">
<circle cx="32" cy="32.5" r="32" fill="#EC008C"/>
<g clip-path="url(#clip0_250_39065)">
<g opacity="0.01">
<rect opacity="0.289481" x="16.627" y="17.1269" width="30.9437" height="30.9437" rx="5.94273" stroke="#979797" stroke-width="0.5"/>
<rect opacity="0.390346" x="21.3435" y="17.1269" width="21.5106" height="30.9437" rx="0.369273" fill="#D8D8D8" stroke="#979797" stroke-width="0.5"/>
<rect opacity="0.296619" x="18.9852" y="19.4852" width="26.2271" height="26.2271" rx="0.369273" fill="#D8D8D8" stroke="#979797" stroke-width="0.5"/>
<path opacity="0.265927" d="M47.2014 21.8435C47.4053 21.8435 47.5707 22.0088 47.5707 22.2127V42.9848C47.5707 43.1887 47.4053 43.3541 47.2014 43.3541H16.9963C16.7923 43.3541 16.627 43.1887 16.627 42.9848V22.2127C16.627 22.0088 16.7923 21.8435 16.9963 21.8435L47.2014 21.8435Z" stroke="#979797" stroke-width="0.5"/>
</g>
<path fill-rule="evenodd" clip-rule="evenodd" d="M18.7352 24.7378C18.7352 23.0013 20.149 21.5935 21.8929 21.5935H31.4596C31.8497 21.5935 32.2259 21.7372 32.5158 21.9971L39.4371 28.1999C39.7697 28.4981 39.9597 28.9228 39.9597 29.3685V45.1762C39.9597 46.9128 38.546 48.3206 36.802 48.3206H21.8929C20.149 48.3206 18.7352 46.9128 18.7352 45.1762V24.7378ZM37.5815 45.1762V29.4544L31.3127 23.957L21.8647 23.9518L21.7725 23.957C21.3794 24.0024 21.0743 24.3347 21.0743 24.7378V45.1762L21.0796 45.2679C21.1253 45.6589 21.4593 45.9623 21.8647 45.9623H36.7911L36.8833 45.957C37.2764 45.9116 37.5815 45.5794 37.5815 45.1762Z" fill="white"/>
<path fill-rule="evenodd" clip-rule="evenodd" d="M31.3128 30.4073C31.3128 30.7493 31.59 31.0266 31.932 31.0266H38.6511V28.8497H33.9807C33.8097 28.8497 33.671 28.7111 33.671 28.5401V23.6506L31.3128 21.5935V30.4073Z" fill="white"/>
<path d="M34.4571 35.7431H24.2379C23.8037 35.7431 23.4518 36.0951 23.4518 36.5292C23.4518 36.9634 23.8037 37.3153 24.2379 37.3153H34.4571C34.8912 37.3153 35.2432 36.9634 35.2432 36.5292C35.2432 36.0951 34.8912 35.7431 34.4571 35.7431Z" fill="white"/>
<path d="M28.9544 42.0319H24.2378C23.8037 42.0319 23.4517 42.3838 23.4517 42.818C23.4517 43.2521 23.8037 43.604 24.2378 43.604H28.9544C29.3885 43.604 29.7405 43.2521 29.7405 42.818C29.7405 42.3838 29.3885 42.0319 28.9544 42.0319Z" fill="white"/>
<path d="M31.3127 38.8875H24.2378C23.8037 38.8875 23.4517 39.2395 23.4517 39.6736C23.4517 40.1078 23.8037 40.4597 24.2378 40.4597H31.3127C31.7468 40.4597 32.0988 40.1078 32.0988 39.6736C32.0988 39.2395 31.7468 38.8875 31.3127 38.8875Z" fill="white"/>
<path fill-rule="evenodd" clip-rule="evenodd" d="M27.3956 16.8769C25.6517 16.8769 24.2379 18.2847 24.2379 20.0213V21.5935H26.577V20.0213C26.577 19.6182 26.8821 19.2859 27.2752 19.2405L27.3673 19.2352L36.8154 19.2405L43.0841 24.7378V40.4597C43.0841 40.8628 42.779 41.1951 42.386 41.2405L42.2938 41.2458H39.1737V43.6041H42.3047C44.0487 43.6041 45.4624 42.1963 45.4624 40.4597V24.6519C45.4624 24.2063 45.2724 23.7815 44.9397 23.4833L38.0185 17.2805C37.7286 17.0207 37.3524 16.8769 36.9623 16.8769H27.3956Z" fill="white"/>
<path fill-rule="evenodd" clip-rule="evenodd" d="M36.8154 25.6908C36.8154 26.0328 37.0927 26.31 37.4347 26.31H44.1538V24.1332H39.4833C39.3123 24.1332 39.1737 23.9945 39.1737 23.8235V18.934L36.8154 16.8769V25.6908Z" fill="white"/>
</g>
<defs>
<clipPath id="clip0_250_39065">
<rect width="31.4437" height="31.4437" fill="white" transform="translate(16.377 16.8769)"/>
</clipPath>
</defs>
</svg>
