<svg width="48" height="48" viewBox="0 0 48 48" fill="none" xmlns="http://www.w3.org/2000/svg">
<g id="Group 2">
<circle id="Oval" cx="24" cy="24" r="24" fill="#EC008C"/>
<g id="24 / basic / mail">
<g id="24 / maps / pin">
<path id="icon" fill-rule="evenodd" clip-rule="evenodd" d="M23 34.3276L23.6577 33.7533C29.1887 28.9237 32 24.7068 32 21C32 15.7507 27.9029 12 23 12C18.0971 12 14 15.7507 14 21C14 24.7068 16.8113 28.9237 22.3423 33.7533L23 34.3276ZM23 31.6634C18.3066 27.4335 16 23.8492 16 21C16 16.8966 19.1641 14 23 14C26.8359 14 30 16.8966 30 21C30 23.8492 27.6934 27.4335 23 31.6634ZM23 16C25.7614 16 28 18.2386 28 21C28 23.7614 25.7614 26 23 26C20.2386 26 18 23.7614 18 21C18 18.2386 20.2386 16 23 16ZM20 21C20 19.3431 21.3431 18 23 18C24.6569 18 26 19.3431 26 21C26 22.6569 24.6569 24 23 24C21.3431 24 20 22.6569 20 21Z" fill="white"/>
</g>
</g>
</g>
</svg>
