<svg width="28" height="29" viewBox="0 0 28 29" fill="none" xmlns="http://www.w3.org/2000/svg">
<g opacity="0.01">
<rect opacity="0.289481" x="0.3" y="1.27607" width="27.4" height="27.4" rx="11.7" stroke="#979797" stroke-width="0.6"/>
<rect opacity="0.390346" x="4.5" y="1.27607" width="19" height="27.4" rx="0.9" fill="#D8D8D8" stroke="#979797" stroke-width="0.6"/>
<rect opacity="0.296619" x="2.4" y="3.37617" width="23.2" height="23.2" rx="0.9" fill="#D8D8D8" stroke="#979797" stroke-width="0.6"/>
<path opacity="0.265927" d="M27.7 6.37627V23.5763C27.7 24.0733 27.2971 24.4763 26.8 24.4763H1.2C0.702944 24.4763 0.299999 24.0733 0.299999 23.5763V6.37627C0.299999 5.87921 0.702944 5.47627 1.2 5.47627L26.8 5.47627C27.2971 5.47627 27.7 5.87921 27.7 6.37627Z" stroke="#979797" stroke-width="0.6"/>
</g>
<g clip-path="url(#clip0_1764_6348)">
<path d="M19.5227 0.976074H8.4C6.8536 0.976074 5.6 2.22968 5.6 3.77607V26.1761C5.6 27.7225 6.8536 28.9761 8.4 28.9761H22.9833C24.5297 28.9761 25.7833 27.7225 25.7833 26.1761L25.7833 7.61974L19.5227 0.976074Z" fill="#C6168D"/>
<mask id="mask0_1764_6348" style="mask-type:alpha" maskUnits="userSpaceOnUse" x="5" y="0" width="21" height="29">
<path d="M19.5227 0.976074H8.4C6.8536 0.976074 5.6 2.22968 5.6 3.77607V26.1761C5.6 27.7225 6.8536 28.9761 8.4 28.9761H22.9833C24.5297 28.9761 25.7833 27.7225 25.7833 26.1761L25.7833 7.61974L19.5227 0.976074Z" fill="white"/>
</mask>
<g mask="url(#mask0_1764_6348)">
<path opacity="0.49202" d="M25.9897 0.831055H19.3128V6.14968C19.3128 6.94497 19.9575 7.58968 20.7528 7.58968H25.9897V0.831055Z" fill="white"/>
</g>
<rect x="2.8" y="10.0762" width="21" height="11.2" rx="1.2" fill="#7C145A"/>
<path d="M5.89 18.9761V16.8161H7.672C8.869 16.8161 9.85 15.8531 9.85 14.6561C9.85 13.4591 8.869 12.4961 7.672 12.4961H4.45V18.9761H5.89ZM7.6 13.7921C7.996 13.7921 8.41 14.1791 8.41 14.6561C8.41 15.1331 7.996 15.5201 7.6 15.5201H5.89V13.7921H7.6ZM11.8314 18.9761V14.7371L15.0894 18.9761H16.4394V12.4961H14.9994V16.7711L11.7234 12.4961H10.3914V18.9761H11.8314ZM24.1296 15.5201V15.1781H20.4126V16.2221H22.6356C22.4106 17.1401 21.5916 17.8241 20.6016 17.8241C19.4496 17.8241 18.5136 16.8881 18.5136 15.7361C18.5136 14.5841 19.4496 13.6481 20.6016 13.6481C21.2046 13.6481 21.8346 13.9091 22.2216 14.3141H23.8956C23.3286 13.1531 22.0236 12.3521 20.6016 12.3521C18.6486 12.3521 17.0736 13.8641 17.0736 15.7361C17.0736 17.6081 18.6486 19.1201 20.6016 19.1201C22.8426 19.1201 24.1296 17.4281 24.1296 15.5201Z" fill="white"/>
</g>
<defs>
<clipPath id="clip0_1764_6348">
<rect width="22.9833" height="28" fill="white" transform="translate(2.8 0.976074)"/>
</clipPath>
</defs>
</svg>
