<svg width="20" height="20" viewBox="0 0 20 20" fill="none" xmlns="http://www.w3.org/2000/svg">
<path fill-rule="evenodd" clip-rule="evenodd" d="M15.3529 13.495L19.5796 17.8095C19.9892 18.2355 19.9757 18.9148 19.55 19.3245C19.3496 19.5173 19.0857 19.6234 18.8075 19.6234C18.5135 19.6234 18.2392 19.5066 18.0353 19.2948L13.7718 14.9421C12.3864 15.9157 10.7661 16.4286 9.06571 16.4286C4.53643 16.4286 0.851425 12.7436 0.851425 8.21429C0.851425 3.685 4.53643 0 9.06571 0C13.595 0 17.28 3.685 17.28 8.21429C17.28 10.1529 16.5979 12.015 15.3529 13.495ZM15.1371 8.21429C15.1371 4.86643 12.4136 2.14286 9.06571 2.14286C5.71785 2.14286 2.99428 4.86643 2.99428 8.21429C2.99428 11.5621 5.71785 14.2857 9.06571 14.2857C12.4136 14.2857 15.1371 11.5621 15.1371 8.21429Z" fill="#211E20"/>
</svg>
