<svg xmlns="http://www.w3.org/2000/svg" xmlns:xlink="http://www.w3.org/1999/xlink" width="45" height="45" viewBox="0 0 45 45">
  <defs>
    <clipPath id="clip-path">
      <rect id="Rectangle_64604" data-name="Rectangle 64604" width="45" height="45" transform="translate(3808 -3037)" fill="#fff"/>
    </clipPath>
  </defs>
  <g id="Mask_Group_2276" data-name="Mask Group 2276" transform="translate(-3808 3037)" clip-path="url(#clip-path)">
    <g id="whatsapp" transform="translate(3808 -3037)">
      <g id="Layer_2" data-name="Layer 2">
        <g id="_09.whatsapp" data-name="09.whatsapp">
          <circle id="background" cx="22.5" cy="22.5" r="22.5" fill="#29a71a"/>
          <g id="icon">
            <path id="Path_83298" data-name="Path 83298" d="M32.42,12.58A13.953,13.953,0,0,0,10.069,28.721l-1.48,7.187a.532.532,0,0,0,.084.417.539.539,0,0,0,.573.222l7.044-1.67A13.95,13.95,0,0,0,32.42,12.58Zm-2.2,17.53a10.928,10.928,0,0,1-12.585,2.045l-.982-.486-4.318,1.023.013-.054.895-4.347-.481-.949A10.923,10.923,0,0,1,30.224,14.663a.583.583,0,0,0,.056.056A10.923,10.923,0,0,1,30.224,30.109Z" fill="#fff"/>
            <path id="Path_83299" data-name="Path 83299" d="M29.841,26.921a4.537,4.537,0,0,1-2.416,2.107c-1.841.445-4.666.015-8.182-3.263l-.043-.038c-3.091-2.866-3.894-5.252-3.7-7.144a4.522,4.522,0,0,1,1.757-2.68,1,1,0,0,1,1.572.361l1.138,2.557a1,1,0,0,1-.125,1.023l-.575.747a.989.989,0,0,0-.089,1.1,10.75,10.75,0,0,0,1.951,2.166,11.386,11.386,0,0,0,2.7,1.936.977.977,0,0,0,1.071-.225l.667-.672a1.023,1.023,0,0,1,1-.256l2.7.767a1.023,1.023,0,0,1,.573,1.511Z" fill="#fff"/>
          </g>
        </g>
      </g>
    </g>
  </g>
</svg>
