<svg width="18" height="16" viewBox="0 0 18 16" fill="none" xmlns="http://www.w3.org/2000/svg">
<path fill-rule="evenodd" clip-rule="evenodd" d="M4.19284 1.96235C1.52542 4.2418 0.685103 7.92057 2.01262 11.0644L0.335938 15.9269L5.39801 14.8928C8.38015 16.6227 12.2029 16.3166 14.8703 14.0372C18.2622 11.1386 18.6216 6.08589 15.6731 2.75152C12.7246 -0.582842 7.5847 -0.936165 4.19284 1.96235ZM5.78003 13.2398L2.50405 14.0741L3.7309 10.9225L3.61045 10.6642C2.41727 8.10506 3.06607 5.04516 5.26059 3.16983C7.97408 0.851019 12.086 1.13368 14.4448 3.80117C16.8036 6.46866 16.516 10.5109 13.8026 12.8297C11.608 14.705 8.43538 14.9107 6.02351 13.393L5.78003 13.2398ZM12.9018 9.77483C12.9114 9.78044 12.9181 9.78436 12.9198 9.78532C12.9699 9.81474 13.0051 9.83669 13.0379 9.85983C13.1268 9.92236 13.1896 9.98825 13.2203 10.0627C13.3179 10.2566 13.2372 10.712 13.0445 11.1278C12.8323 11.586 12.0448 11.9925 11.5204 12.024C10.8191 12.065 10.3054 11.923 9.24566 11.3608C8.61554 11.0259 8.03824 10.5543 7.51269 9.98303C7.18445 9.62624 6.89497 9.25111 6.64045 8.87174C6.4894 8.64659 6.21975 8.19987 6.29348 8.31528C6.16043 8.0986 6.07335 7.94177 5.96309 7.6866C5.75219 7.19853 5.64196 6.71345 5.68294 6.25302C5.72917 5.73356 5.9111 5.32395 6.19084 4.99083C6.25417 4.91541 6.31955 4.84738 6.39119 4.78002C6.43241 4.74127 6.54834 4.63827 6.53491 4.65046C6.74906 4.45983 7.00892 4.38293 7.24234 4.40301C7.49595 4.42482 8.51314 6.00923 8.63528 6.31302C8.7106 6.50036 8.7144 6.6796 8.60278 6.8626C8.58306 6.89415 8.56307 6.92475 8.5428 6.95446C8.38589 7.18445 8.09415 7.46303 8.00298 7.54053C8.50048 8.57632 8.96684 9.01998 10.1691 9.74611C10.212 9.7724 10.2176 9.78277 10.2208 9.78205C10.2228 9.78161 10.2238 9.77701 10.2318 9.76936C10.4733 9.5398 10.7452 9.26793 10.8432 9.14654C11.0576 8.88117 11.2829 8.87464 11.583 9.01497C11.7287 9.08004 12.4677 9.51163 12.7959 9.71303C12.8185 9.72642 12.873 9.75813 12.9018 9.77483Z" fill="white"/>
</svg>
