<svg width="45" height="45" viewBox="0 0 45 45" xmlns="http://www.w3.org/2000/svg">
    <g fill="none" fill-rule="evenodd">
        <circle fill="#E03E3E" cx="22.426" cy="22.426" r="22.426"/>
        <path d="M27.495 28.528c.328-.038 1.051-.038 1.69-.704 0 0 .516-.516.666-1.67a22.67 22.67 0 0 0 .168-2.57v-1.582a22.67 22.67 0 0 0-.168-2.57c-.15-1.163-.667-1.67-.667-1.67-.638-.676-1.36-.676-1.69-.713 0 0-2.346-.17-5.884-.17-3.539 0-5.885.17-5.885.17-.329.037-1.051.037-1.69.713 0 0-.516.507-.666 1.67a22.67 22.67 0 0 0-.169 2.57v1.582c.004.392.026 1.48.169 2.57.15 1.154.666 1.67.666 1.67.639.666 1.483.647 1.859.713 0 0 1.342.132 5.716.17 3.538 0 5.885-.18 5.885-.18zm-7.622-3.557v-4.722l4.543 2.375-4.543 2.347z" fill="#FFF" fill-rule="nonzero"/>
    </g>
</svg>
