<svg xmlns="http://www.w3.org/2000/svg" xmlns:xlink="http://www.w3.org/1999/xlink" width="15" height="15" viewBox="0 0 15 15">
  <defs>
    <clipPath id="clip-bra-logo-new_">
      <rect width="15" height="15"/>
    </clipPath>
  </defs>
  <g id="bra-logo-new_" data-name="bra-logo-new " clip-path="url(#clip-bra-logo-new_)">
    <rect width="15" height="15" fill="#fff"/>
    <g id="Group_27345" data-name="Group 27345">
      <rect id="Rectangle_60126" data-name="Rectangle 60126" width="10" height="15" fill="none"/>
    </g>
    <rect id="Rectangle_60127" data-name="Rectangle 60127" width="15" height="15" fill="#fff"/>
    <g id="bca" transform="translate(0 -1.89)">
      <path id="Path_95527" data-name="Path 95527" d="M12.666,6.523l-.883,1.6a1.94,1.94,0,0,0-1.258-.471,1.608,1.608,0,0,0-1.729,1.56c0,.478.316,1.185,1.406,1.185a2.748,2.748,0,0,0,1.3-.464L10.62,11.8a5.111,5.111,0,0,1-.905.147C7.757,12,6.97,10.805,6.97,9.576a3.775,3.775,0,0,1,3.834-3.6,1.451,1.451,0,0,1,.478.11l.155-.2" transform="translate(-1.841 0)" fill="#0060af"/>
      <path id="Path_95528" data-name="Path 95528" d="M17.753,5.949,18,11.77H16.141v-1H14.876l-.419,1H12.44l2.112-4.158h-.478l.905-1.663ZM16.127,7.73l-.714,1.693h.736" transform="translate(-3.286 -0.016)" fill="#0060af"/>
      <path id="Path_95529" data-name="Path 95529" d="M3.966,5.949c.92,0,1.442.508,1.442,1.229a1.932,1.932,0,0,1-1.148,1.56,1.11,1.11,0,0,1,.677,1.185A2.08,2.08,0,0,1,2.73,11.777H0l1.06-4.1H.625l.89-1.722h2.45Zm-.905,2.37A.564.564,0,0,0,3.672,7.9c.1-.4-.221-.412-.375-.412H2.752l-.191.832h.5ZM2.3,9.349l-.25.957h.64a.685.685,0,0,0,.677-.434.407.407,0,0,0-.4-.522" transform="translate(0 -0.016)" fill="#0060af"/>
    </g>
  </g>
</svg>
