<svg width="20" height="20" viewBox="0 0 20 20" fill="none" xmlns="http://www.w3.org/2000/svg">
<path d="M14.71 6.74965L13.51 8.92965C13.06 8.55965 12.5 8.28965 11.8 8.28965C10.13 8.28965 9.44997 9.52965 9.44997 10.4096C9.44997 11.0596 9.87997 12.0196 11.36 12.0196C11.98 12.0196 12.87 11.5896 13.12 11.3896L11.93 13.9196C11.36 14.0296 11.18 14.0996 10.7 14.1196C8.03997 14.1996 6.96997 12.5696 6.96997 10.8996C6.96997 8.68965 8.92997 6.00965 12.18 6.00965C12.38 6.00965 12.62 6.07965 12.83 6.15965L13.04 5.88965" fill="#0060AF"/>
<path d="M19.6599 5.94922L19.9999 13.8592H17.4699V12.4992H15.7499L15.1799 13.8592H12.4399L15.3099 8.20922H14.6599L15.8899 5.94922H19.6599ZM17.4499 8.36922L16.4799 10.6692H17.4799" fill="#0060AF"/>
<path d="M5.39 5.94922C6.64 5.94922 7.35 6.63922 7.35 7.61922C7.35 8.51922 6.6 9.32922 5.79 9.73922C6.63 10.0492 6.71 10.8092 6.71 11.3492C6.71 12.6492 5.41 13.8692 3.71 13.8692H0L1.44 8.29922H0.85L2.06 5.95922C2.06 5.95922 4.37 5.95922 5.39 5.95922V5.94922ZM4.16 9.16922C4.42 9.16922 4.88 9.09922 4.99 8.59922C5.12 8.05922 4.69 8.03922 4.48 8.03922H3.74L3.48 9.16922H4.15H4.16ZM3.12 10.5692L2.78 11.8692H3.65C3.99 11.8692 4.45 11.6992 4.57 11.2792C4.68 10.8592 4.36 10.5692 4.02 10.5692" fill="#0060AF"/>
</svg>
