<svg width="20" height="20" viewBox="0 0 20 20" fill="none" xmlns="http://www.w3.org/2000/svg">
<path fill-rule="evenodd" clip-rule="evenodd" d="M0 5.08957V14.9296C0.02 14.9796 0.03 15.0796 0.05 15.1396C0.14 15.4496 0.36 15.6896 0.64 15.8296C0.85 15.9296 0.95 15.9096 1.03 15.9496H18.97C19.05 15.9196 19.15 15.9396 19.36 15.8296C19.64 15.6896 19.85 15.4596 19.95 15.1596C19.97 15.0996 19.98 14.9996 20 14.9496V5.07957C19.93 4.90957 20 4.73957 19.66 4.38957C19.37 4.08957 19.08 4.10957 18.97 4.05957H1.01C0.9 4.10957 0.65 4.07957 0.32 4.39957C0.26 4.45957 0.16 4.58957 0.11 4.69957C0.01 4.90957 0.03 5.00957 0 5.08957H0Z" fill="#0171BC"/>
<path fill-rule="evenodd" clip-rule="evenodd" d="M8.94989 7.32945C8.96989 7.42945 8.94989 9.80945 8.94989 9.97945C8.94989 10.3695 8.91989 10.6995 9.28989 10.9695C9.61989 11.2095 9.97989 11.1395 10.2999 10.9495C10.5099 10.8195 10.8099 10.4995 10.9999 10.3195L13.0399 8.35945C13.0599 8.70945 13.0399 9.11945 13.0399 9.47945C13.0399 9.79945 12.9999 10.2695 13.1099 10.5295C13.2999 10.9395 13.7999 11.1295 14.2399 10.8995C14.4199 10.8095 14.9399 10.2695 15.1199 10.0895C15.4499 9.78945 15.7999 9.42945 16.1199 9.12945C16.1699 9.07945 16.2199 9.03945 16.2699 8.98945C16.3599 8.89945 16.7799 8.47945 16.8499 8.43945C16.8699 8.95945 16.8499 9.50945 16.8499 10.0295C16.8499 10.3995 16.9199 10.6595 17.2199 10.8595C17.2799 10.8995 17.4099 10.9695 17.5099 10.9695V6.95945C17.5099 6.95945 17.3099 7.12945 17.2499 7.18945L14.9699 9.33945C14.9099 9.38945 14.8599 9.44945 14.7999 9.49945L14.4599 9.81945C14.3799 9.88945 13.9899 10.2695 13.9399 10.2895C13.8499 10.3295 13.7599 10.2695 13.7399 10.1895C13.7199 10.1295 13.7399 7.13945 13.7399 6.88945C13.6999 6.90945 13.6599 6.94945 13.6399 6.96945L13.3599 7.22945C13.3599 7.22945 13.2999 7.27945 13.2699 7.30945L11.7699 8.67945C11.7699 8.67945 11.6999 8.72945 11.6699 8.76945C11.6299 8.80945 11.6199 8.81945 11.5799 8.84945C11.5499 8.87945 11.5199 8.90945 11.4799 8.93945L10.0799 10.2195C10.0099 10.2895 9.84989 10.4495 9.77989 10.4595C9.66989 10.4795 9.60989 10.3895 9.59989 10.2895C9.59989 10.0495 9.59989 9.80945 9.59989 9.56945C9.59989 8.60945 9.59989 7.64945 9.59989 6.68945H7.13989C7.18989 6.99945 7.45989 7.23945 7.74989 7.30945C7.93989 7.34945 8.69989 7.30945 8.95989 7.32945H8.94989Z" fill="#FDFDFD"/>
<path fill-rule="evenodd" clip-rule="evenodd" d="M10.5899 8.47916V7.33916C10.8599 7.30916 11.0199 7.38916 11.3299 7.14916L11.8099 6.69916H9.8999V9.95916C9.8999 9.95916 10.4599 9.44916 10.5399 9.38916L10.9899 8.96916C11.1599 8.81916 11.3599 8.62916 11.5299 8.47916L11.7099 8.30916C11.8299 8.19916 11.9499 8.08916 12.0699 7.97916L12.5299 7.56916C12.5299 7.56916 12.5799 7.51916 12.6199 7.48916L13.3399 6.82916C13.3399 6.82916 13.3999 6.77916 13.4299 6.74916L13.6999 6.49916C13.6999 6.49916 13.8199 6.35916 13.9299 6.40916C14.0199 6.44916 14.0199 6.54916 14.0199 6.66916C14.0199 6.97916 14.0099 9.65916 14.0199 9.79916C14.0699 9.76916 14.9499 8.92916 15.1499 8.73916C15.1799 8.70916 15.2099 8.67916 15.2399 8.64916L16.0899 7.84916C16.1599 7.76916 16.2099 7.73916 16.2799 7.66916L17.2199 6.77916C17.2899 6.71916 17.5499 6.45916 17.6099 6.43916C17.7199 6.40916 17.7999 6.49916 17.7999 6.60916C17.8099 7.08916 17.7999 7.59916 17.7999 8.07916C17.7999 8.28916 17.7899 10.8692 17.7999 11.0092C18.0099 10.9992 18.1899 10.8292 18.2799 10.7292C18.4099 10.5892 18.4699 10.3892 18.4599 10.1392V7.06916C18.4599 6.85916 18.4799 6.52916 18.4299 6.33916C18.3699 6.13916 18.2399 5.97916 18.1099 5.88916C17.9499 5.77916 17.7299 5.71916 17.4999 5.75916C17.3299 5.78916 17.2299 5.85916 17.1099 5.94916C17.0299 6.00916 16.3899 6.64916 16.2299 6.79916L15.5399 7.44916C15.5399 7.44916 15.4799 7.51916 15.4399 7.54916C15.3499 7.62916 14.6799 8.27916 14.6499 8.28916C14.6399 7.90916 14.6499 7.50916 14.6499 7.12916C14.6499 6.74916 14.6999 6.35916 14.5099 6.08916C14.3399 5.85916 14.0999 5.70916 13.6799 5.73916C13.5099 5.74916 13.3599 5.81916 13.2599 5.89916C13.1199 6.00916 12.4199 6.69916 12.2099 6.89916L11.7599 7.32916C11.4599 7.60916 11.1499 7.91916 10.8599 8.18916C10.8099 8.23916 10.7599 8.28916 10.7099 8.33916C10.6799 8.36916 10.5799 8.44916 10.5599 8.46916L10.5899 8.47916Z" fill="#FDFDFD"/>
<path fill-rule="evenodd" clip-rule="evenodd" d="M1.62995 10.6295C1.62995 10.6295 1.79995 10.4795 1.84995 10.4295L2.80995 9.52945C2.97995 9.37945 3.17995 9.16945 3.34995 9.01945L4.63995 7.80945C4.71995 7.73945 4.77995 7.67945 4.84995 7.60945L5.59995 6.89945C5.59995 6.89945 5.65995 6.82945 5.69995 6.79945C5.76995 6.73945 5.83995 6.66945 5.90995 6.59945C5.96995 6.54945 6.04995 6.41945 6.17995 6.47945C6.29995 6.53945 6.26995 6.66945 6.26995 6.80945V10.5595C6.26995 10.6895 6.25995 10.8595 6.26995 10.9795C6.52995 10.9495 6.75995 10.7195 6.83995 10.5395C6.95995 10.2895 6.91995 9.89945 6.91995 9.58945V7.53945C6.91995 7.20945 6.92995 6.84945 6.91995 6.51945C6.89995 5.88945 6.26995 5.55945 5.74995 5.80945C5.56995 5.89945 5.23995 6.24945 5.06995 6.40945L2.57995 8.78945C2.57995 8.78945 2.49995 8.86945 2.45995 8.91945C2.40995 8.95945 2.36995 8.99945 2.31995 9.04945L1.79995 9.54945C1.79995 9.54945 1.70995 9.63945 1.67995 9.67945C1.45995 9.92945 1.41995 10.3895 1.61995 10.6395L1.62995 10.6295Z" fill="#FDFDFD"/>
<path fill-rule="evenodd" clip-rule="evenodd" d="M1.85999 10.8598C1.91999 10.9498 2.16999 11.0098 2.31999 11.0098C2.66999 11.0098 2.81999 10.8298 3.00999 10.6598L3.44999 10.2398C3.44999 10.2398 3.49999 10.1798 3.53999 10.1498C3.87999 9.83977 4.25999 9.44977 4.59999 9.12977L5.31999 8.44977C5.32999 8.97977 5.31999 9.51977 5.31999 10.0498C5.31999 10.3298 5.33999 10.4998 5.47999 10.6898C5.56999 10.8098 5.74998 10.9698 5.96999 10.9998V7.00977C5.96999 7.00977 5.73998 7.21977 5.71999 7.23977C5.63999 7.32977 5.41999 7.50977 5.33999 7.59977L4.56999 8.31977C4.32999 8.52977 4.04999 8.81977 3.79999 9.03977C3.74999 9.07977 3.71999 9.10977 3.66999 9.15977C3.62999 9.19977 3.57999 9.23977 3.53999 9.27977L3.27999 9.52977C3.27999 9.52977 3.18999 9.60977 3.14999 9.64977C3.09999 9.69976 3.06999 9.72977 3.01999 9.76977C2.96999 9.80977 2.93999 9.84977 2.88999 9.88977L1.85999 10.8498V10.8598Z" fill="#FDFDFD"/>
<path fill-rule="evenodd" clip-rule="evenodd" d="M2.72 12.9388C2.95 12.9488 3.28 12.8988 3.46 12.9988C3.76 13.1588 3.8 13.7588 3.03 13.7588C2.76 13.7588 2.49 13.7588 2.22 13.7588C2.22 13.6788 2.27 13.5388 2.3 13.4588C2.33 13.3588 2.35 13.2688 2.38 13.1688L2.69 11.9988C2.76 11.7288 2.78 11.7888 3.22 11.7888C3.44 11.7888 3.72 11.7888 3.83 11.9188C3.97 12.0988 3.86 12.3388 3.72 12.4388C3.55 12.5588 3.32 12.5488 3.09 12.5488C2.94 12.5488 2.87 12.5188 2.81 12.6388C2.79 12.6888 2.74 12.8788 2.73 12.9288L2.72 12.9388ZM1.51 14.2688C1.9 14.2688 2.3 14.2688 2.69 14.2688C3.08 14.2688 3.39 14.2688 3.73 14.1188C3.98 14.0088 4.21 13.7788 4.23 13.4288C4.26 12.8888 3.8 12.8088 3.72 12.7288C4.02 12.6588 4.23 12.5788 4.36 12.3588C4.5 12.1088 4.48 11.7688 4.31 11.5788C4.16 11.4088 3.91 11.3088 3.59 11.2888C3.35 11.2788 2.82 11.2588 2.62 11.3288C2.38 11.4088 2.21 11.5988 2.14 11.8688C2.09 12.0488 1.5 14.1988 1.5 14.2688H1.51Z" fill="#FDFDFD"/>
<path fill-rule="evenodd" clip-rule="evenodd" d="M13.3899 12.2396L13.4499 12.0096C13.3499 12.0096 13.1199 11.9996 13.0199 12.0096C12.8799 12.0296 12.8399 12.1096 12.8099 12.2296L12.4499 13.5896C12.4199 13.6896 12.2699 14.2096 12.2799 14.2696H12.8499C12.9499 14.0396 13.1599 12.9996 13.2899 12.7596C13.5099 12.3596 13.9999 12.4096 14.0899 12.6896C14.1399 12.8596 14.0599 13.0796 14.0199 13.2396C13.9599 13.4496 13.7699 14.1196 13.7499 14.2696H14.3099C14.3099 14.2696 14.3799 14.0596 14.3899 14.0296C14.4099 13.9396 14.4399 13.8596 14.4599 13.7696C14.5199 13.5496 14.6699 12.9396 14.7599 12.7696C14.9599 12.3896 15.4699 12.3996 15.5599 12.6896C15.6099 12.8596 15.5299 13.0896 15.4899 13.2496C15.4499 13.3896 15.2199 14.2096 15.2199 14.2696H15.7899C15.7899 14.2696 16.0099 13.4796 16.0399 13.3596C16.1099 13.0796 16.2599 12.6796 16.1699 12.3796C16.0099 11.8296 15.2699 11.8596 14.8399 12.2796C14.7999 12.3196 14.7399 12.4096 14.6999 12.4296C14.5499 11.8596 13.8799 11.8796 13.5599 12.1296C13.5099 12.1696 13.4799 12.2096 13.4199 12.2496L13.3899 12.2396Z" fill="#FDFDFD"/>
<path fill-rule="evenodd" clip-rule="evenodd" d="M7.13 6.36928H12.16C12.2 6.27928 12.27 6.22928 12.28 6.07928C12.32 5.60928 11.75 5.69928 11.41 5.69928H8.12C7.82 5.69928 7.65 5.70928 7.45 5.84928C7.32 5.93928 7.16 6.12928 7.13 6.35928V6.36928Z" fill="#FDFDFD"/>
<path fill-rule="evenodd" clip-rule="evenodd" d="M6.27998 14.0088C6.25998 13.9588 6.07998 13.7088 6.04998 13.6788C6.00998 13.6588 5.86998 13.7888 5.63998 13.8288C5.02998 13.9188 4.80998 13.3988 4.99998 12.9288C5.09998 12.6688 5.26998 12.4488 5.57998 12.3888C5.74998 12.3588 5.91998 12.3888 6.01998 12.4788C6.06998 12.5288 6.09998 12.5688 6.11998 12.6588C6.12998 12.7188 6.14998 12.8588 6.09998 12.8988C5.87998 12.8988 5.65998 12.8988 5.44998 12.8988C5.31998 12.8988 5.28998 12.9088 5.24998 13.0188C5.22998 13.0888 5.18998 13.2188 5.17998 13.2788C5.33998 13.2888 6.13998 13.2788 6.37998 13.2788C6.61998 13.2788 6.62998 13.1788 6.66998 12.9588C6.83998 11.9388 5.68998 11.6388 4.98998 12.1588C4.77998 12.3188 4.58998 12.5288 4.47998 12.8488C4.36998 13.1788 4.38998 13.5688 4.55998 13.8388C4.81998 14.2488 5.42998 14.3388 5.88998 14.1988C6.00998 14.1588 6.23998 14.0688 6.28998 13.9788L6.27998 14.0088Z" fill="#FDFDFD"/>
<path fill-rule="evenodd" clip-rule="evenodd" d="M16.7599 12.5592C16.9699 12.5192 16.9999 12.4592 17.3099 12.4492C17.9799 12.4292 17.8499 12.8092 17.7599 13.1592C17.7099 13.3492 17.6799 13.5192 17.5799 13.6392C17.3199 13.9592 16.8099 13.9592 16.7199 13.6792C16.6099 13.3592 17.1599 13.1492 17.4699 13.1192C17.4999 13.0592 17.6099 12.8692 17.5899 12.8092C17.4899 12.7592 17.1899 12.7992 17.0799 12.8192C15.9299 13.0592 15.8899 14.0292 16.6399 14.2192C16.7999 14.2592 16.9899 14.2392 17.1499 14.1892C17.3199 14.1392 17.4199 14.0792 17.5299 13.9992L17.4699 14.2392H18.0199C18.0599 14.1592 18.1199 13.8692 18.1499 13.7592C18.1999 13.5992 18.2399 13.4292 18.2799 13.2692C18.3699 12.9392 18.4999 12.5592 18.2999 12.2592C18.0199 11.8492 17.0699 11.9292 16.8299 12.0592C16.6499 12.1592 16.7199 12.3592 16.7599 12.5392V12.5592Z" fill="#FDFDFD"/>
<path fill-rule="evenodd" clip-rule="evenodd" d="M10.81 12.5593C10.89 12.5393 10.98 12.5093 11.07 12.4893C11.31 12.4393 11.73 12.4093 11.85 12.6193C11.94 12.7693 11.85 13.0093 11.81 13.1593C11.73 13.4793 11.65 13.8093 11.22 13.8793C10.65 13.9793 10.47 13.2693 11.52 13.1293C11.55 13.0793 11.66 12.8693 11.64 12.8293C11.56 12.7693 11.23 12.8193 11.13 12.8293C10.98 12.8593 10.84 12.9093 10.71 12.9793C10.49 13.0893 10.22 13.2893 10.19 13.5893C10.15 13.9293 10.42 14.1593 10.68 14.2293C10.84 14.2793 11.03 14.2493 11.19 14.2093C11.47 14.1293 11.51 14.0493 11.58 14.0193L11.52 14.2493H12.07C12.1 14.1693 12.3 13.4193 12.34 13.2593C12.43 12.9193 12.57 12.5393 12.34 12.2393C12.03 11.8293 11.06 11.9493 10.87 12.0693C10.81 12.1093 10.76 12.1693 10.76 12.2793C10.76 12.3293 10.79 12.4993 10.82 12.5393L10.81 12.5593Z" fill="#FDFDFD"/>
<path fill-rule="evenodd" clip-rule="evenodd" d="M8.38999 13.5689C8.32999 13.6189 8.24999 13.7189 8.17999 13.7889C7.91999 14.0189 8.63999 14.2389 8.85999 14.2689C9.39999 14.3389 9.86999 14.1189 9.96999 13.6789C10.16 12.8289 8.87999 12.9589 9.04999 12.5089C9.08999 12.4089 9.17999 12.3589 9.31999 12.3489C9.66999 12.3489 9.86999 12.5589 9.94999 12.5789C9.97999 12.5189 10.04 12.4589 10.09 12.4089C10.19 12.2889 10.27 12.2189 10.06 12.0989C9.86999 11.9989 9.62999 11.9189 9.37999 11.9189C8.86999 11.9189 8.44999 12.2089 8.47999 12.7289C8.49999 13.2489 9.22999 13.2889 9.39999 13.5189C9.47999 13.6189 9.39999 13.7589 9.32999 13.8089C9.11999 13.9389 8.71999 13.8189 8.50999 13.6689C8.45999 13.6389 8.42999 13.5989 8.37999 13.5689H8.38999Z" fill="#FDFDFD"/>
<path fill-rule="evenodd" clip-rule="evenodd" d="M6.5199 14.269C6.5199 14.269 7.0299 14.289 7.0499 14.269C7.0699 14.239 7.2099 13.639 7.2399 13.549C7.2999 13.329 7.3699 13.059 7.4599 12.869C7.5499 12.689 7.7899 12.589 8.0499 12.549C8.2399 12.519 8.3099 12.579 8.3599 12.399C8.4599 11.999 8.5199 11.959 8.1999 11.979C7.7499 12.009 7.6999 12.139 7.5799 12.189L7.6399 11.959C7.0999 11.959 7.1599 11.899 7.0699 12.249C7.0099 12.469 6.9599 12.719 6.8899 12.929C6.8699 12.989 6.5299 14.209 6.5299 14.279L6.5199 14.269Z" fill="#FDFDFD"/>
</svg>
