<svg width="20" height="20" viewBox="0 0 20 20" fill="none" xmlns="http://www.w3.org/2000/svg">
<mask id="mask0_1542_22695" style="mask-type:alpha" maskUnits="userSpaceOnUse" x="0" y="0" width="20" height="20">
<rect width="20" height="20" fill="#D9D9D9"/>
</mask>
<g mask="url(#mask0_1542_22695)">
</g>
<g clip-path="url(#clip0_1542_22695)">
<path fill-rule="evenodd" clip-rule="evenodd" d="M0.301758 9.60059L1.94902 11.6785L0.301758 13.0435V9.60059Z" fill="#F15A23"/>
<path fill-rule="evenodd" clip-rule="evenodd" d="M0.964844 13.0437L2.20433 12.0068L3.06103 13.0437H0.964844Z" fill="#F15A23"/>
<path fill-rule="evenodd" clip-rule="evenodd" d="M0.301758 8.48886L0.731632 9.03263L2.49911 11.2412L3.07184 10.7852C3.07184 10.7852 2.59637 10.2254 2.27712 9.60075C1.65293 8.3795 2.09484 7.61914 2.09484 7.61914H0.301758V8.48886Z" fill="#F15A23"/>
<path fill-rule="evenodd" clip-rule="evenodd" d="M2.75098 11.5824L3.33426 11.1006C3.33426 11.1006 3.89134 11.8339 4.53729 12.007C5.38376 12.2338 5.75854 11.6789 5.75854 11.6789V13.0439H3.89932L4.31856 12.6814C4.31856 12.6814 4.09982 12.8272 3.56487 12.4567C3.24913 12.238 2.75098 11.5824 2.75098 11.5824Z" fill="#F15A23"/>
<path fill-rule="evenodd" clip-rule="evenodd" d="M2.80458 7.61523C2.80458 7.61523 2.6185 7.86872 2.75096 8.48893C2.89253 9.15186 3.45557 9.85349 3.45426 9.83778C3.45426 9.83778 3.49046 9.14109 3.8993 8.73225C4.77075 7.8608 5.75852 8.37957 5.75852 8.37957V7.61921L2.80458 7.61523Z" fill="#F15A23"/>
<path fill-rule="evenodd" clip-rule="evenodd" d="M5.75871 9.29822C5.75871 9.29822 5.20761 8.82617 4.72847 8.82617C4.11556 8.82617 3.78101 9.35532 3.78101 9.73916C3.78101 10.2983 4.04937 10.6089 4.31872 10.8783C4.7058 11.2654 5.17672 11.6828 5.75871 11.3468C5.75871 10.7109 5.75871 9.29822 5.75871 9.29822Z" fill="#F15A23"/>
<path fill-rule="evenodd" clip-rule="evenodd" d="M12.0349 7.67188H13.3354C13.3354 7.67188 14.4874 9.41624 15.0536 10.1369C15.6198 10.8576 16.2292 11.6785 16.2292 11.6785C16.2292 11.6785 16.2292 9.29802 16.2292 8.06253C16.2292 7.90635 15.8192 7.67188 15.8192 7.67188H17.3188C17.3188 7.67188 16.8267 7.87404 16.8267 8.06253C16.8267 9.60059 16.8267 13.323 16.8267 13.323C16.8267 13.323 16.3546 13.0612 15.8192 12.439C15.2176 11.74 13.0776 8.91779 13.0776 8.91779C13.0776 8.91779 13.0776 11.582 13.0776 12.5732C13.0776 12.7604 13.4877 13.0435 13.4877 13.0435H12.0349C12.0349 13.0435 12.4333 12.7581 12.4333 12.5732C12.4333 11.2411 12.4333 9.29802 12.4333 8.06253C12.4333 7.89652 12.0349 7.67188 12.0349 7.67188Z" fill="#005E6A"/>
<path fill-rule="evenodd" clip-rule="evenodd" d="M18.1587 7.67188H19.8278C19.8278 7.67188 19.3796 7.88417 19.3796 8.06253C19.3796 9.29802 19.3796 11.3466 19.3796 12.5732C19.3796 12.7681 19.8278 13.0435 19.8278 13.0435H18.1587C18.1587 13.0435 18.576 12.7618 18.576 12.5732C18.576 11.1002 18.576 9.29802 18.576 8.06253C18.576 7.89105 18.1587 7.67188 18.1587 7.67188Z" fill="#005E6A"/>
<path fill-rule="evenodd" clip-rule="evenodd" d="M7.12427 7.67188C7.12427 7.67188 7.55699 7.88763 7.55699 8.06253C7.55699 9.29802 7.55699 11.1002 7.55699 12.5732C7.55699 12.7649 7.12427 13.0435 7.12427 13.0435C7.12427 13.0435 9.28603 13.0435 9.59696 13.0435C9.7515 13.0435 11.4824 12.7605 11.4824 11.4261C11.4824 10.0916 10.1379 9.96668 10.1379 9.96668C10.1379 9.96668 10.9569 9.73897 10.9569 8.82598C10.9569 7.84187 9.7515 7.67188 9.59696 7.67188C9.27579 7.67188 7.12427 7.67188 7.12427 7.67188ZM8.43788 9.87824V8.1989C8.43788 8.1989 9.15463 8.1989 9.44241 8.1989C9.59696 8.1989 10.1379 8.37934 10.1379 9.04879C10.1379 9.60059 9.59696 9.87824 9.44241 9.87824C9.09204 9.87824 8.43788 9.87824 8.43788 9.87824ZM8.43788 10.3187C8.43788 10.3187 9.44241 10.3187 9.59696 10.3187C9.7515 10.3187 10.6633 10.5555 10.6633 11.3466C10.6633 12.1532 9.7515 12.439 9.59696 12.439C9.44241 12.439 8.43788 12.439 8.43788 12.439V10.3187Z" fill="#005E6A"/>
</g>
<defs>
<clipPath id="clip0_1542_22695">
<rect width="20" height="6.51429" fill="white" transform="translate(0 7)"/>
</clipPath>
</defs>
</svg>
