<svg width="19" height="20" viewBox="0 0 19 20" fill="none" xmlns="http://www.w3.org/2000/svg">
<path d="M15.268 0.983356H2.74966C1.23176 0.983356 9.15527e-05 2.24475 9.15527e-05 3.80279V16.1968C9.15527e-05 17.7405 1.2074 18.994 2.70846 19.0162L15.259 19.0166C16.777 19.0166 18.0115 17.7548 18.0115 16.1968L18.0176 3.80279C18.0176 2.24475 16.7856 0.983356 15.268 0.983356ZM4.23748 17.5718L3.55429 17.58C2.72709 17.58 2.05931 16.899 2.05931 16.0621L2.0543 15.9414V4.496L2.05931 3.87909C2.09263 3.06945 2.70703 2.41528 3.51309 2.41528H4.9006C6.16056 2.41528 7.17943 3.50974 7.17943 4.79872C7.17943 5.43891 6.92865 6.01677 6.52311 6.43915L2.98253 10.0303L6.30243 13.4121C6.72875 13.8542 6.98669 14.4342 6.98669 15.068C6.98669 16.4505 5.75825 17.5718 4.23748 17.5718ZM14.444 17.5614L8.25382 17.5596C8.25382 17.5596 8.96961 16.0112 8.96961 15.0544C8.96961 13.8875 8.57947 12.8432 7.96865 12.154L5.85247 9.99514L8.01057 7.76468C8.65649 7.1578 9.08281 6.08412 9.08281 4.86285C9.08281 3.89521 8.81556 3.03792 8.38279 2.41528H9.8835C11.1424 2.41528 12.1623 3.50974 12.1623 4.79872C12.1623 5.43891 11.9126 6.01677 11.5082 6.43915L8.03314 9.99371L15.2483 17.3518C15.0183 17.4958 14.731 17.5614 14.444 17.5614ZM15.9541 15.2632L10.7827 9.99263L13.2453 7.49061C13.7472 6.86188 14.0668 5.9179 14.0668 4.86285C14.0668 3.88948 13.7945 3.00962 13.36 2.38734L14.4609 2.42173C15.2866 2.42173 15.9584 3.10062 15.9584 3.94L15.9541 15.2632Z" fill="#00529C"/>
</svg>
