<svg xmlns="http://www.w3.org/2000/svg" xmlns:xlink="http://www.w3.org/1999/xlink" width="10" height="15" viewBox="0 0 10 15">
  <defs>
    <clipPath id="clip-bri-logo-new">
      <rect width="10" height="15"/>
    </clipPath>
  </defs>
  <g id="bri-logo-new" clip-path="url(#clip-bri-logo-new)">
    <rect width="10" height="15" fill="#fff"/>
    <rect id="Rectangle_60127" data-name="Rectangle 60127" width="10" height="15" fill="#fff"/>
    <g id="Group_27345" data-name="Group 27345" transform="translate(-3 -2)">
      <path id="bri-logo" d="M8.474.983H1.526A1.545,1.545,0,0,0,0,2.547V9.42a1.545,1.545,0,0,0,1.5,1.563H8.469A1.547,1.547,0,0,0,10,9.42l0-6.873A1.545,1.545,0,0,0,8.474.983Zm-6.122,9.2-.379,0a.836.836,0,0,1-.83-.842l0-.067V2.931l0-.342a.82.82,0,0,1,.807-.812h.77a1.321,1.321,0,0,1,.9,2.231L1.655,6,3.5,7.875a1.318,1.318,0,0,1,.38.918A1.461,1.461,0,0,1,2.352,10.182Zm5.665-.006H4.581a4.467,4.467,0,0,0,.4-1.389,2.44,2.44,0,0,0-.556-1.608l-1.175-1.2,1.2-1.237a2.23,2.23,0,0,0,.6-1.609,2.387,2.387,0,0,0-.389-1.357h.833a1.322,1.322,0,0,1,.9,2.231L4.459,5.98l4,4.08A.848.848,0,0,1,8.017,10.176ZM8.855,8.9,5.985,5.979,7.351,4.592a2.362,2.362,0,0,0,.456-1.457,2.425,2.425,0,0,0-.392-1.373l.611.019a.837.837,0,0,1,.831.842Z" transform="translate(3 4.017)" fill="#00529c"/>
    </g>
  </g>
</svg>
