<svg width="20" height="20" viewBox="0 0 20 20" fill="none" xmlns="http://www.w3.org/2000/svg">
<path d="M16.9331 0H3.04945C1.36599 0 0 1.39897 0 3.12692V16.8727C0 18.5847 1.33898 19.975 3.00376 19.9996L16.9231 20C18.6066 20 19.9758 18.6006 19.9758 16.8727L19.9825 3.12692C19.9825 1.39897 18.6161 0 16.9331 0ZM4.69952 18.3976L3.94183 18.4067C3.02442 18.4067 2.28381 17.6514 2.28381 16.7233L2.27824 16.5894V3.89574L2.28381 3.21155C2.32076 2.31361 3.00217 1.5881 3.89614 1.5881H5.43497C6.83235 1.5881 7.96233 2.80191 7.96233 4.23148C7.96233 4.94149 7.68421 5.58237 7.23444 6.05082L3.30771 10.0336L6.98969 13.7843C7.4625 14.2746 7.74857 14.9179 7.74857 15.6207C7.74857 17.154 6.38616 18.3976 4.69952 18.3976ZM16.0192 18.3861L9.1539 18.3841C9.1539 18.3841 9.94775 16.6669 9.94775 15.6056C9.94775 14.3115 9.51507 13.1533 8.83763 12.3889L6.49065 9.99464L8.88412 7.52091C9.60049 6.84785 10.0733 5.65707 10.0733 4.3026C10.0733 3.22943 9.7769 2.27864 9.29694 1.5881H10.9613C12.3575 1.5881 13.4887 2.80191 13.4887 4.23148C13.4887 4.94149 13.2118 5.58237 12.7632 6.05082L8.90915 9.99305L16.9112 18.1536C16.6561 18.3134 16.3375 18.3861 16.0192 18.3861ZM17.6939 15.8373L11.9586 9.99185L14.6898 7.21696C15.2464 6.51966 15.6008 5.47271 15.6008 4.3026C15.6008 3.22308 15.2989 2.24725 14.8169 1.5571L16.0379 1.59525C16.9537 1.59525 17.6987 2.34818 17.6987 3.2791L17.6939 15.8373Z" fill="#00529C"/>
</svg>
