<svg width="30" height="30" viewBox="0 0 30 30" fill="none" xmlns="http://www.w3.org/2000/svg">
<circle cx="15" cy="15" r="15" fill="#F8F8F8"/>
<path d="M20.0526 16.9011C19.3124 16.9011 18.5874 16.7855 17.9002 16.5587C17.5648 16.4432 17.184 16.5322 16.9636 16.7571L15.6013 17.7859C14.0381 16.9516 13.0377 15.9518 12.2147 14.4L13.2158 13.0699C13.4678 12.8179 13.5581 12.449 13.4501 12.1036C13.2215 11.412 13.1053 10.6863 13.1053 9.94737C13.1053 9.42504 12.6802 9 12.1579 9H9.94737C9.42504 9 9 9.42504 9 9.94737C9 16.0415 13.9585 21 20.0526 21C20.575 21 21 20.575 21 20.0526V17.8484C21 17.3261 20.575 16.9011 20.0526 16.9011Z" fill="#4D4D4F"/>
</svg>
