<svg width="48" height="48" viewBox="0 0 48 48" fill="none" xmlns="http://www.w3.org/2000/svg">
<circle cx="24" cy="24" r="24" fill="white"/>
<path d="M34.5262 28.9455C34.4865 28.9125 29.9948 25.698 28.776 25.9088C28.1903 26.0123 27.855 26.4112 27.1838 27.2115C27.0758 27.3405 26.8155 27.6488 26.6145 27.8685C26.1902 27.7303 25.7764 27.5619 25.3762 27.3645C23.3104 26.3588 21.6412 24.6896 20.6355 22.6237C20.4381 22.2236 20.2697 21.8098 20.1315 21.3855C20.352 21.1837 20.661 20.9235 20.793 20.8125C21.5887 20.145 21.9877 19.8097 22.0912 19.2232C22.3035 18.009 19.0875 13.5135 19.0545 13.473C18.908 13.2653 18.7173 13.0927 18.496 12.9677C18.2748 12.8426 18.0285 12.7683 17.775 12.75C16.4715 12.75 12.75 17.577 12.75 18.3907C12.75 18.438 12.8183 23.241 18.741 29.2657C24.759 35.1817 29.562 35.25 29.6093 35.25C30.423 35.25 35.25 31.5285 35.25 30.225C35.2317 29.9714 35.1573 29.7251 35.0321 29.5038C34.907 29.2825 34.7342 29.0918 34.5262 28.9455V28.9455ZM29.5267 33.7455C28.8712 33.6915 24.8408 33.1597 19.8015 28.209C14.8253 23.1427 14.307 19.101 14.2552 18.4748C15.2383 16.9317 16.4256 15.5288 17.7847 14.304C17.8147 14.334 17.8545 14.379 17.9055 14.4375C18.9479 15.8604 19.8458 17.3837 20.586 18.9847C20.3453 19.2269 20.0909 19.455 19.824 19.668C19.4101 19.9833 19.0301 20.3408 18.69 20.7345L18.5078 20.9895L18.5617 21.2978C18.7205 21.9853 18.9636 22.6506 19.2855 23.2785C20.4389 25.647 22.3528 27.5607 24.7215 28.7137C25.3493 29.0361 26.0146 29.2795 26.7023 29.4382L27.0105 29.4922L27.2655 29.31C27.6607 28.9684 28.0196 28.5869 28.3365 28.1715C28.5712 27.891 28.8855 27.5168 29.004 27.411C30.6096 28.1505 32.1368 29.0495 33.5625 30.0945C33.6247 30.147 33.6683 30.1875 33.6975 30.2137C32.4729 31.5733 31.0699 32.7609 29.5267 33.744V33.7455Z" fill="black"/>
</svg>
