<svg id="Group_27346" data-name="Group 27346" xmlns="http://www.w3.org/2000/svg" width="15" height="15" viewBox="0 0 15 15">
  <g id="Group_27345" data-name="Group 27345" transform="translate(3)">
    <rect id="Rectangle_60126" data-name="Rectangle 60126" width="10" height="15" fill="none"/>
  </g>
  <rect id="Rectangle_60127" data-name="Rectangle 60127" width="15" height="15" fill="#fff"/>
  <g id="card" transform="translate(3 0.8)">
    <path id="Path_95538" data-name="Path 95538" d="M8.329,3.2H.532A.532.532,0,0,0,0,3.732V8.694a.532.532,0,0,0,.532.532h7.8a.532.532,0,0,0,.532-.532V3.732A.532.532,0,0,0,8.329,3.2Zm.177,5.493a.178.178,0,0,1-.177.177H.532a.178.178,0,0,1-.177-.177V3.732a.177.177,0,0,1,.177-.177h7.8a.177.177,0,0,1,.177.177Z" fill="#4d4d4f"/>
    <path id="Path_95539" data-name="Path 95539" d="M8.906,6.8H.4v.709H8.906Z" transform="translate(-0.223 -2.005)" fill="#4d4d4f"/>
    <path id="Path_95540" data-name="Path 95540" d="M8.683,6.4H.177A.177.177,0,0,0,0,6.578v.709a.177.177,0,0,0,.177.177H8.683a.177.177,0,0,0,.177-.177V6.578A.177.177,0,0,0,8.683,6.4Zm-.177.709H.354V6.755H8.506Z" transform="translate(0 -1.782)" fill="#4d4d4f"/>
    <path id="Path_95541" data-name="Path 95541" d="M6.567,11.2H3.377a.177.177,0,0,0,0,.354h3.19a.177.177,0,0,0,0-.354Z" transform="translate(-1.782 -4.456)" fill="#4d4d4f"/>
    <path id="Path_95542" data-name="Path 95542" d="M5.149,12.8H3.377a.177.177,0,1,0,0,.354H5.149a.177.177,0,1,0,0-.354Z" transform="translate(-1.782 -5.347)" fill="#4d4d4f"/>
  </g>
</svg>
