<svg width="70" height="70" viewBox="0 0 70 70" fill="none" xmlns="http://www.w3.org/2000/svg">
<path d="M35 12.4429C29.3444 12.4429 24.7461 17.043 24.7461 22.6968V28.8491C21.3536 28.8491 18.5938 31.6089 18.5938 35.0015V47.3062C18.5938 50.6987 21.3536 53.4585 24.7461 53.4585H45.2539C48.6464 53.4585 51.4062 50.6987 51.4062 47.3062V35.0015C51.4062 31.6089 48.6464 28.8491 45.2539 28.8491V22.6968C45.2539 17.0432 40.6556 12.4429 35 12.4429ZM37.0508 43.2046C37.0508 44.3381 36.1335 45.2554 35 45.2554C33.8665 45.2554 32.9492 44.3381 32.9492 43.2046V39.103C32.9492 37.9695 33.8665 37.0522 35 37.0522C36.1335 37.0522 37.0508 37.9695 37.0508 39.103V43.2046ZM28.8477 28.8491V22.6968C28.8477 19.3042 31.6075 16.5444 35 16.5444C38.3925 16.5444 41.1523 19.3042 41.1523 22.6968V28.8491H28.8477Z" fill="#B0E01F"/>
<path d="M61.0326 58.1321C66.7211 51.7439 70 43.6229 70 35.0015C70 15.7774 54.2221 0.00146484 35 0.00146484C15.7779 0.00146484 0 15.7774 0 35.0015C0 53.1301 13.7352 68.3278 31.7636 69.99C32.8787 70.0946 33.8875 69.2723 33.9946 68.1355C34.0988 67.008 33.2696 66.0086 32.1401 65.9045C16.2345 64.4404 4.10156 50.9972 4.10156 35.0015C4.10156 18.0385 18.037 4.10303 35 4.10303C51.963 4.10303 65.8984 18.0385 65.8984 35.0015C65.8984 42.5274 63.0485 49.6229 58.1324 55.2319L55.3036 52.403C54.8029 51.9024 54.0739 51.6921 53.381 51.8563C52.6921 52.0205 52.1313 52.5292 51.9071 53.2041L47.5531 66.2558C47.3088 66.9928 47.501 67.8059 48.0498 68.3547C48.6248 68.9269 49.4475 69.0875 50.1487 68.8493L63.2025 64.4974C63.8754 64.2731 64.3881 63.7164 64.5483 63.0235C64.7125 62.3325 64.5083 61.6056 64.0037 61.1029L61.0326 58.1321Z" fill="#B0E01F"/>
</svg>
