<svg width="12" height="12" viewBox="0 0 12 12" fill="none" xmlns="http://www.w3.org/2000/svg">
<g clip-path="url(#clip0_1244_7722)">
<path d="M7.09938 6.00979L11.7719 1.33709C12.076 1.03315 12.076 0.541722 11.7719 0.237782C11.468 -0.0661583 10.9766 -0.0661583 10.6726 0.237782L5.99993 4.91049L1.32737 0.237782C1.02329 -0.0661583 0.532002 -0.0661583 0.228062 0.237782C-0.0760206 0.541722 -0.0760206 1.03315 0.228062 1.33709L4.90062 6.00979L0.228062 10.6825C-0.0760206 10.9864 -0.0760206 11.4779 0.228062 11.7818C0.379534 11.9334 0.578696 12.0096 0.777716 12.0096C0.976736 12.0096 1.17576 11.9334 1.32737 11.7818L5.99993 7.1091L10.6726 11.7818C10.8243 11.9334 11.0233 12.0096 11.2223 12.0096C11.4213 12.0096 11.6203 11.9334 11.7719 11.7818C12.076 11.4779 12.076 10.9864 11.7719 10.6825L7.09938 6.00979Z" fill="#4D4D4F"/>
</g>
<defs>
<clipPath id="clip0_1244_7722">
<rect width="12" height="12" fill="white"/>
</clipPath>
</defs>
</svg>
