<svg width="12" height="8" viewBox="0 0 12 8" fill="none" xmlns="http://www.w3.org/2000/svg">
<path d="M2.94336 1.13379C2.90453 1.17262 2.90488 1.23522 2.94416 1.27361L5.71766 3.98404L2.97521 6.72649C2.93638 6.76532 2.93673 6.82792 2.976 6.86631C3.01528 6.9047 3.07859 6.90434 3.11742 6.8655L5.92988 4.05305C5.96871 4.01421 5.96836 3.95162 5.92908 3.91323L3.08478 1.13298C3.04551 1.0946 2.98219 1.09496 2.94336 1.13379Z" fill="#ED2324" stroke="#EC008C"/>
<path d="M9.05664 6.86524C9.09547 6.8264 9.09512 6.76381 9.05584 6.72542L6.28234 4.01498L9.02479 1.27253C9.06362 1.2337 9.06327 1.1711 9.024 1.13271C8.98472 1.09433 8.92141 1.09469 8.88258 1.13352L6.07012 3.94598C6.03129 3.98481 6.03164 4.04741 6.07092 4.0858L8.91522 6.86604C8.95449 6.90443 9.01781 6.90407 9.05664 6.86524Z" fill="#ED2324" stroke="#EC008C"/>
</svg>
