<svg width="70" height="70" viewBox="0 0 70 70" fill="none" xmlns="http://www.w3.org/2000/svg">
<path d="M52.4224 17.4147L56.1881 13.6492C56.8746 12.9627 56.8746 11.8497 56.1881 11.1633C55.5017 10.4768 54.3887 10.4769 53.7022 11.1633L49.9365 14.9288C49.25 15.6152 49.25 16.7283 49.9365 17.4147C50.6227 18.1011 51.7358 18.1013 52.4224 17.4147Z" fill="#B0E01F"/>
<path d="M60.5936 25.7109H56.8279C55.8572 25.7109 55.0701 26.498 55.0701 27.4687C55.0701 28.4395 55.8572 29.2266 56.8279 29.2266H60.5936C61.5644 29.2266 62.3515 28.4395 62.3515 27.4687C62.3515 26.498 61.5644 25.7109 60.5936 25.7109Z" fill="#B0E01F"/>
<path d="M39.8827 12.2812C40.8535 12.2812 41.6405 11.4942 41.6405 10.5234V6.75781C41.6405 5.78703 40.8535 5 39.8827 5C38.9119 5 38.1249 5.78703 38.1249 6.75781V10.5234C38.1249 11.4942 38.9119 12.2812 39.8827 12.2812Z" fill="#B0E01F"/>
<path d="M8.51464 48.8194C7.82875 49.5052 7.82816 50.6189 8.51464 51.3053L16.0459 58.8366C16.7322 59.523 17.8452 59.5232 18.5318 58.8366L21.4774 55.8911L11.4604 45.874L8.51464 48.8194Z" fill="#B0E01F"/>
<path d="M38.9484 50.2393L26.6054 56.0478L35.0433 64.4856C35.7295 65.172 36.8427 65.1722 37.5291 64.4856L44.1189 57.8958C44.8054 57.2093 44.8054 56.0964 44.1189 55.4099L38.9484 50.2393Z" fill="#B0E01F"/>
<path d="M31.7115 11.1633C31.3068 10.7585 30.7302 10.5763 30.1663 10.6746C29.6024 10.773 29.1218 11.1398 28.8781 11.6578L13.9462 43.3879L23.9632 53.4051L55.6935 38.4732C56.2114 38.2295 56.5782 37.7488 56.6767 37.1849C56.7751 36.6209 56.5928 36.0445 56.188 35.6397L31.7115 11.1633Z" fill="#B0E01F"/>
</svg>
