<svg width="20" height="20" viewBox="0 0 20 20" fill="none" xmlns="http://www.w3.org/2000/svg">
<path d="M12.0565 20H4.59558C2.87241 20 1.47058 18.5982 1.47058 16.875V6.28906C1.47058 4.56589 2.87241 3.16406 4.59558 3.16406H12.0565C13.7797 3.16406 15.1815 4.56589 15.1815 6.28906V16.875C15.1815 18.5982 13.7797 20 12.0565 20ZM4.59558 4.72656C3.73407 4.72656 3.03308 5.42755 3.03308 6.28906V16.875C3.03308 17.7365 3.73407 18.4375 4.59558 18.4375H12.0565C12.918 18.4375 13.619 17.7365 13.619 16.875V6.28906C13.619 5.42755 12.918 4.72656 12.0565 4.72656H4.59558ZM18.3065 14.9219V3.125C18.3065 1.40182 16.9047 0 15.1815 0H6.50964C6.07812 0 5.72839 0.349731 5.72839 0.78125C5.72839 1.21277 6.07812 1.5625 6.50964 1.5625H15.1815C16.043 1.5625 16.744 2.26349 16.744 3.125V14.9219C16.744 15.3534 17.0938 15.7031 17.5253 15.7031C17.9568 15.7031 18.3065 15.3534 18.3065 14.9219Z" fill="#4D4D4F"/>
</svg>
