<svg width="24" height="24" viewBox="0 0 24 24" fill="none" xmlns="http://www.w3.org/2000/svg">
<path d="M19.4252 4.575C17.9567 3.10666 16.0858 2.10674 14.049 1.70168C12.0123 1.29662 9.90112 1.50462 7.98255 2.29937C6.06399 3.09412 4.42418 4.43994 3.27047 6.16663C2.11676 7.89332 1.50098 9.92335 1.50098 12C1.50098 14.0767 2.11676 16.1067 3.27047 17.8334C4.42418 19.5601 6.06399 20.9059 7.98255 21.7006C9.90112 22.4954 12.0123 22.7034 14.049 22.2983C16.0858 21.8933 17.9567 20.8933 19.4252 19.425C20.4003 18.45 21.1739 17.2924 21.7016 16.0184C22.2293 14.7444 22.501 13.379 22.501 12C22.501 10.621 22.2293 9.25557 21.7016 7.98158C21.1739 6.70759 20.4003 5.55003 19.4252 4.575ZM15.7502 14.655C15.8252 14.7252 15.8849 14.8099 15.9257 14.9041C15.9666 14.9983 15.9876 15.0999 15.9876 15.2025C15.9876 15.3052 15.9666 15.4067 15.9257 15.5009C15.8849 15.5951 15.8252 15.6798 15.7502 15.75C15.6801 15.8195 15.597 15.8745 15.5056 15.9118C15.4143 15.9492 15.3164 15.9681 15.2177 15.9675C15.021 15.9667 14.8324 15.8886 14.6927 15.75L12.0002 13.0575L9.34522 15.75C9.20552 15.8886 9.01697 15.9667 8.82022 15.9675C8.72151 15.9681 8.62367 15.9492 8.53229 15.9118C8.44091 15.8745 8.3578 15.8195 8.28772 15.75C8.14803 15.6095 8.06962 15.4194 8.06962 15.2213C8.06962 15.0231 8.14803 14.833 8.28772 14.6925L10.9427 12L8.28772 9.345C8.16485 9.20153 8.10064 9.01697 8.10794 8.82821C8.11523 8.63946 8.19348 8.4604 8.32705 8.32683C8.46062 8.19326 8.63967 8.11501 8.82843 8.10772C9.01719 8.10043 9.20174 8.16463 9.34522 8.2875L12.0002 10.9425L14.6552 8.2875C14.7247 8.21561 14.8076 8.15809 14.8992 8.11823C14.9909 8.07838 15.0895 8.05697 15.1895 8.05523C15.2894 8.05349 15.3887 8.07145 15.4817 8.10809C15.5747 8.14472 15.6596 8.19932 15.7315 8.26875C15.8034 8.33819 15.8609 8.42111 15.9007 8.51277C15.9406 8.60444 15.962 8.70306 15.9637 8.803C15.9655 8.90294 15.9475 9.00224 15.9109 9.09524C15.8742 9.18823 15.8197 9.27311 15.7502 9.345L13.0577 12L15.7502 14.655Z" fill="#AAAAAA"/>
</svg>
