<svg width="20" height="20" viewBox="0 0 20 20" fill="none" xmlns="http://www.w3.org/2000/svg">
<path d="M10 20C15.5228 20 20 15.5228 20 10C20 4.47715 15.5228 0 10 0C4.47715 0 0 4.47715 0 10C0 15.5228 4.47715 20 10 20Z" fill="#008CEB"/>
<path d="M15.8268 10.0419V12.8564C15.8268 13.0395 15.7481 13.078 15.5943 12.9882C15.3885 12.8648 15.1744 12.7558 14.9534 12.6623C14.286 12.3964 13.5631 12.3001 12.8494 12.3821C12.0704 12.4832 11.3059 12.6749 10.5714 12.9534C9.83893 13.2006 9.12111 13.468 8.374 13.6749C7.75519 13.8587 7.1112 13.9433 6.46592 13.9258C5.7508 13.898 5.05579 13.6813 4.45164 13.2977C4.37573 13.252 4.31345 13.1868 4.27126 13.1088C4.22908 13.0309 4.20853 12.9431 4.21175 12.8545C4.21175 11.0112 4.21175 9.1678 4.21175 7.32443C4.21175 7.2347 4.21175 7.12849 4.29233 7.08271C4.3729 7.03693 4.4553 7.11201 4.52488 7.15779C5.18093 7.60138 5.95794 7.83161 6.74975 7.81701C7.31592 7.79378 7.87584 7.68957 8.41245 7.50754C9.17421 7.27132 9.91034 6.95819 10.6593 6.69267C11.2423 6.46862 11.8401 6.28507 12.4483 6.14332C12.9704 6.02107 13.5121 6.00823 14.0393 6.10561C14.5666 6.203 15.068 6.40849 15.5119 6.70915C15.6137 6.77151 15.697 6.85985 15.7533 6.96509C15.8096 7.07033 15.8369 7.18867 15.8323 7.30794C15.8323 8.22353 15.8323 9.13911 15.8323 10.0547L15.8268 10.0419Z" fill="#FEFEFE"/>
</svg>
