<svg width="20" height="20" viewBox="0 0 20 20" fill="none" xmlns="http://www.w3.org/2000/svg">
<path d="M8.8566 2.79424C9.98975 2.16585 11.4312 2.57872 12.0644 3.70174L18.1217 14.2143C18.255 14.5281 18.3133 14.7833 18.33 15.0484C18.3633 15.6677 18.1467 16.2696 17.7218 16.7329C17.2968 17.1945 16.7219 17.467 16.0971 17.5H3.89911C3.64082 17.4843 3.38253 17.4257 3.1409 17.3349C1.93277 16.8477 1.34954 15.4769 1.84112 14.2887L7.94009 3.69431C8.14839 3.3219 8.465 3.00068 8.8566 2.79424ZM9.99808 12.7272C9.59815 12.7272 9.26487 13.0575 9.26487 13.4547C9.26487 13.8502 9.59815 14.1813 9.99808 14.1813C10.398 14.1813 10.723 13.8502 10.723 13.4456C10.723 13.05 10.398 12.7272 9.99808 12.7272ZM9.99808 7.57533C9.59815 7.57533 9.26487 7.89654 9.26487 8.29373V10.6298C9.26487 11.0261 9.59815 11.3573 9.99808 11.3573C10.398 11.3573 10.723 11.0261 10.723 10.6298V8.29373C10.723 7.89654 10.398 7.57533 9.99808 7.57533Z" fill="#ED1C24"/>
</svg>
