<svg width="20" height="20" viewBox="0 0 20 20" fill="none" xmlns="http://www.w3.org/2000/svg">
<path d="M13.6867 1.25H6.31342C5.74429 1.25066 5.19866 1.47704 4.79622 1.87947C4.39379 2.28191 4.16741 2.82754 4.16675 3.39667V16.6033C4.16741 17.1725 4.39379 17.7181 4.79622 18.1205C5.19866 18.523 5.74429 18.7493 6.31342 18.75H13.6867C14.2559 18.7493 14.8015 18.523 15.2039 18.1205C15.6064 17.7181 15.8328 17.1725 15.8334 16.6033V3.39667C15.8328 2.82754 15.6064 2.28191 15.2039 1.87947C14.8015 1.47704 14.2559 1.25066 13.6867 1.25ZM15.0001 16.6033C14.9996 16.9515 14.8611 17.2853 14.6149 17.5315C14.3687 17.7777 14.0349 17.9162 13.6867 17.9167H6.31342C5.96523 17.9162 5.63144 17.7777 5.38524 17.5315C5.13903 17.2853 5.00052 16.9515 5.00008 16.6033V3.39667C5.00052 3.04848 5.13903 2.71469 5.38524 2.46849C5.63144 2.22228 5.96523 2.08377 6.31342 2.08333H13.6867C14.0349 2.08377 14.3687 2.22228 14.6149 2.46849C14.8611 2.71469 14.9996 3.04848 15.0001 3.39667V16.6033Z" fill="#ED1C24"/>
<path d="M11.6667 2.91666H8.33341C8.22291 2.91666 8.11693 2.96056 8.03879 3.0387C7.96065 3.11684 7.91675 3.22282 7.91675 3.33332C7.91675 3.44383 7.96065 3.54981 8.03879 3.62795C8.11693 3.70609 8.22291 3.74999 8.33341 3.74999H11.6667C11.7773 3.74999 11.8832 3.70609 11.9614 3.62795C12.0395 3.54981 12.0834 3.44383 12.0834 3.33332C12.0834 3.22282 12.0395 3.11684 11.9614 3.0387C11.8832 2.96056 11.7773 2.91666 11.6667 2.91666Z" fill="#ED1C24"/>
<path d="M10 14.5833C9.75277 14.5833 9.5111 14.6567 9.30554 14.794C9.09998 14.9314 8.93976 15.1266 8.84515 15.355C8.75054 15.5834 8.72579 15.8347 8.77402 16.0772C8.82225 16.3197 8.9413 16.5424 9.11612 16.7172C9.29093 16.892 9.51366 17.0111 9.75614 17.0593C9.99861 17.1076 10.2499 17.0828 10.4784 16.9882C10.7068 16.8936 10.902 16.7334 11.0393 16.5278C11.1767 16.3222 11.25 16.0806 11.25 15.8333C11.25 15.5018 11.1183 15.1839 10.8839 14.9495C10.6495 14.715 10.3315 14.5833 10 14.5833ZM10 16.25C9.91759 16.25 9.83703 16.2256 9.76851 16.1798C9.69999 16.134 9.64659 16.0689 9.61505 15.9928C9.58351 15.9167 9.57526 15.8329 9.59134 15.7521C9.60742 15.6712 9.6471 15.597 9.70537 15.5387C9.76364 15.4804 9.83789 15.4408 9.91871 15.4247C9.99954 15.4086 10.0833 15.4169 10.1595 15.4484C10.2356 15.4799 10.3007 15.5333 10.3464 15.6019C10.3922 15.6704 10.4167 15.7509 10.4167 15.8333C10.4167 15.9439 10.3728 16.0498 10.2946 16.128C10.2165 16.2061 10.1105 16.25 10 16.25Z" fill="#ED1C24"/>
</svg>
