<svg width="55" height="56" viewBox="0 0 55 56" fill="none" xmlns="http://www.w3.org/2000/svg">
<g clip-path="url(#clip0_588_5290)">
<rect y="0.94043" width="55" height="55" rx="8" fill="#F4F4F4"/>
<g opacity="0.01">
<rect opacity="0.289481" x="14.3" y="15.2404" width="27.4" height="27.4" rx="11.7" stroke="#979797" stroke-width="0.6"/>
<rect opacity="0.390346" x="18.5" y="15.2404" width="19" height="27.4" rx="0.9" fill="#D8D8D8" stroke="#979797" stroke-width="0.6"/>
<rect opacity="0.296619" x="16.4" y="17.3405" width="23.2" height="23.2" rx="0.9" fill="#D8D8D8" stroke="#979797" stroke-width="0.6"/>
<path opacity="0.265927" d="M40.8 19.4406C41.2971 19.4406 41.7 19.8436 41.7 20.3406V37.5406C41.7 38.0377 41.2971 38.4406 40.8 38.4406H15.2C14.7029 38.4406 14.3 38.0377 14.3 37.5406V20.3406C14.3 19.8436 14.7029 19.4406 15.2 19.4406H40.8Z" stroke="#979797" stroke-width="0.6"/>
</g>
<g clip-path="url(#clip1_588_5290)">
<path d="M33.5227 14.9404H22.4C20.8536 14.9404 19.6 16.194 19.6 17.7404V40.1404C19.6 41.6868 20.8536 42.9404 22.4 42.9404H36.9833C38.5297 42.9404 39.7833 41.6868 39.7833 40.1404L39.7833 21.5841L33.5227 14.9404Z" fill="#ED1D25"/>
<mask id="mask0_588_5290" style="mask-type:alpha" maskUnits="userSpaceOnUse" x="19" y="14" width="21" height="29">
<path d="M33.5227 14.9404H22.4C20.8536 14.9404 19.6 16.194 19.6 17.7404V40.1404C19.6 41.6868 20.8536 42.9404 22.4 42.9404H36.9833C38.5297 42.9404 39.7833 41.6868 39.7833 40.1404L39.7833 21.5841L33.5227 14.9404Z" fill="white"/>
</mask>
<g mask="url(#mask0_588_5290)">
<path opacity="0.49202" d="M39.9897 14.7954H33.3128V20.114C33.3128 20.9093 33.9575 21.554 34.7528 21.554H39.9897V14.7954Z" fill="white"/>
</g>
<rect x="16.8" y="24.0405" width="21" height="11.2" rx="1.2" fill="#661316"/>
<path d="M19.89 32.9404V30.7804H21.672C22.869 30.7804 23.85 29.8174 23.85 28.6204C23.85 27.4234 22.869 26.4604 21.672 26.4604H18.45V32.9404H19.89ZM21.6 27.7564C21.996 27.7564 22.41 28.1434 22.41 28.6204C22.41 29.0974 21.996 29.4844 21.6 29.4844H19.89V27.7564H21.6ZM30.4304 29.7004C30.4304 27.8284 29.0354 26.4604 27.0014 26.4604H24.3914V32.9404H27.0014C29.1254 32.9404 30.4304 31.5724 30.4304 29.7004ZM27.0554 31.6444H25.8314V27.7564H27.0554C28.1264 27.7564 28.9994 28.6294 28.9994 29.7004C28.9994 30.7714 28.1264 31.6444 27.0554 31.6444ZM32.5023 32.9404V30.4204H34.9323V29.1244H32.5023V27.7564H35.4723V26.4604H31.0623V32.9404H32.5023Z" fill="white"/>
</g>
</g>
<defs>
<clipPath id="clip0_588_5290">
<rect width="55" height="55" fill="white" transform="translate(0 0.94043)"/>
</clipPath>
<clipPath id="clip1_588_5290">
<rect width="22.9833" height="28" fill="white" transform="translate(16.8 14.9404)"/>
</clipPath>
</defs>
</svg>
