<svg width="18" height="20" viewBox="0 0 18 20" fill="none" xmlns="http://www.w3.org/2000/svg">
<path d="M16.9687 9.06254H4.9375L17.125 5.28129C17.2451 5.24387 17.3454 5.16034 17.404 5.04903C17.4626 4.93772 17.4746 4.80772 17.4375 4.68754L16.3281 1.11254C16.3103 1.05331 16.2809 0.998204 16.2416 0.950391C16.2024 0.902578 16.1541 0.863006 16.0994 0.833956C16.0448 0.804907 15.985 0.786954 15.9234 0.781133C15.8618 0.775312 15.7997 0.781738 15.7406 0.80004L1.67812 5.17504C1.27536 5.30025 0.938824 5.58029 0.742507 5.95359C0.54619 6.32688 0.506169 6.76287 0.631247 7.16566L1.38437 9.60316V17.6344C1.3852 18.056 1.55305 18.4601 1.85117 18.7582C2.14929 19.0564 2.55339 19.2242 2.975 19.225H15.8469C16.0563 19.225 16.2636 19.1837 16.457 19.1034C16.6504 19.023 16.826 18.9053 16.9738 18.757C17.1216 18.6086 17.2386 18.4325 17.3182 18.2388C17.3978 18.0451 17.4383 17.8376 17.4375 17.6282V9.52504C17.4359 9.40181 17.3857 9.28418 17.298 9.19762C17.2103 9.11106 17.092 9.06253 16.9687 9.06254ZM7.3125 4.39691L5.33437 7.95004L2.83437 8.73129L4.8125 5.17816L7.3125 4.39691ZM11.125 3.21566L9.14687 6.76879L6.64687 7.54691L8.625 3.99691L11.125 3.21566ZM14.9375 2.03129L12.9594 5.58441L10.4437 6.36566L12.4375 2.81254L14.9375 2.03129ZM14.2562 5.18129L15.7687 2.47191L16.3937 4.51879L14.2562 5.18129ZM1.94062 6.06566L3.50312 5.58129L1.9625 8.34066L1.5 6.87504C1.45151 6.70928 1.47065 6.53107 1.55322 6.37939C1.6358 6.22771 1.77509 6.11491 1.94062 6.06566ZM16.5 17.6282C16.5 17.8014 16.4312 17.9675 16.3087 18.09C16.1862 18.2125 16.0201 18.2813 15.8469 18.2813H2.95937C2.78641 18.2805 2.62076 18.2114 2.49845 18.0891C2.37614 17.9668 2.30707 17.8011 2.30625 17.6282V10H16.5V17.6282Z" fill="#4D4D4F"/>
</svg>
