<svg width="18" height="19" viewBox="0 0 18 19" fill="none" xmlns="http://www.w3.org/2000/svg">
<g clip-path="url(#clip0_1997_3618)">
<path d="M11.8806 9.1985L9.5625 11.5171V5.5625C9.5625 5.252 9.3105 5 9 5C8.6895 5 8.4375 5.252 8.4375 5.5625V11.5171L6.11944 9.19906C5.8995 8.97912 5.54344 8.97912 5.32406 9.19906C5.10412 9.419 5.10412 9.77506 5.32406 9.99441L8.50612 13.1765C8.64112 13.3115 8.82562 13.3531 9.00059 13.3221C9.17497 13.3531 9.36003 13.3109 9.49503 13.1765L12.6771 9.99441C12.897 9.77447 12.897 9.41844 12.6771 9.19906C12.4566 8.97912 12.1005 8.97912 11.8806 9.1985ZM9 0.5C4.02976 0.5 0 4.52918 0 9.5C0 14.4708 4.02976 18.5 9 18.5C13.9702 18.5 18 14.4702 18 9.5C18 4.52976 13.9708 0.5 9 0.5ZM9 17.375C4.65074 17.375 1.125 13.8493 1.125 9.5C1.125 5.15074 4.65074 1.625 9 1.625C13.3493 1.625 16.875 5.15074 16.875 9.5C16.875 13.8493 13.3493 17.375 9 17.375Z" fill="#4D4D4F"/>
</g>
<defs>
<clipPath id="clip0_1997_3618">
<rect width="18" height="18" fill="white" transform="translate(0 0.5)"/>
</clipPath>
</defs>
</svg>
