<svg width="22" height="20" viewBox="0 0 22 20" fill="none" xmlns="http://www.w3.org/2000/svg">
<g clip-path="url(#clip0_516_2128)">
<path d="M4.13494 16.8401C4.3528 16.8401 4.39638 16.8201 4.59246 16.7801L8.51402 16.0601C8.92797 15.9601 9.34191 15.7801 9.66871 15.4801L19.1676 6.76012C20.6273 5.42012 20.6273 3.12012 19.1676 1.78012L18.3615 1.00012C16.9018 -0.339883 14.3746 -0.339883 12.9149 1.00012L3.41598 9.74012C3.11097 10.0201 2.89311 10.4201 2.78418 10.8001L1.95629 14.4401C1.84736 15.1201 2.06522 15.7801 2.5881 16.2601C3.00204 16.6401 3.61206 16.8401 4.13494 16.8401ZM4.87568 11.1801L14.3746 2.44012C15.0064 1.86012 16.1611 1.86012 16.7711 2.44012L17.599 3.20012C18.3397 3.88012 18.3397 4.84012 17.599 5.50012L8.12187 14.2401L4.09137 14.8601L4.87568 11.1801Z" fill="#ED1C24"/>
<path d="M19.0805 18.0801H3.00205C2.37024 18.0801 1.9563 18.4601 1.9563 19.0401C1.9563 19.6201 2.47917 20.0001 3.00205 20.0001H18.9933C19.6251 20.0001 20.148 19.6201 20.148 19.0401C20.1262 18.4601 19.6034 18.0801 19.0805 18.0801Z" fill="#ED1C24"/>
</g>
<defs>
<clipPath id="clip0_516_2128">
<rect width="21.7865" height="20" fill="white" transform="translate(0.213379)"/>
</clipPath>
</defs>
</svg>
