<svg width="20" height="20" viewBox="0 0 20 20" fill="none" xmlns="http://www.w3.org/2000/svg">
<path d="M17.9687 9.06248H5.9375L18.125 5.28123C18.2451 5.24381 18.3454 5.16028 18.404 5.04897C18.4626 4.93766 18.4746 4.80766 18.4375 4.68748L17.3281 1.11248C17.3103 1.05325 17.2809 0.998143 17.2416 0.95033C17.2024 0.902517 17.1541 0.862945 17.0994 0.833895C17.0448 0.804846 16.985 0.786893 16.9234 0.781072C16.8618 0.775251 16.7997 0.781677 16.7406 0.799979L2.67812 5.17498C2.27536 5.30019 1.93882 5.58023 1.74251 5.95353C1.54619 6.32682 1.50617 6.76281 1.63125 7.1656L2.38437 9.6031V17.6344C2.3852 18.056 2.55305 18.4601 2.85117 18.7582C3.14929 19.0563 3.55339 19.2242 3.975 19.225H16.8469C17.0563 19.225 17.2636 19.1836 17.457 19.1033C17.6504 19.023 17.826 18.9053 17.9738 18.7569C18.1216 18.6085 18.2386 18.4324 18.3182 18.2387C18.3978 18.045 18.4383 17.8375 18.4375 17.6281V9.52498C18.4359 9.40174 18.3857 9.28412 18.298 9.19756C18.2103 9.111 18.092 9.06247 17.9687 9.06248ZM8.3125 4.39685L6.33437 7.94998L3.83437 8.73123L5.8125 5.1781L8.3125 4.39685ZM12.125 3.2156L10.1469 6.76873L7.64687 7.54685L9.625 3.99685L12.125 3.2156ZM15.9375 2.03123L13.9594 5.58435L11.4437 6.3656L13.4375 2.81248L15.9375 2.03123ZM15.2562 5.18123L16.7687 2.47185L17.3937 4.51873L15.2562 5.18123ZM2.94062 6.0656L4.50312 5.58123L2.9625 8.3406L2.5 6.87498C2.45151 6.70922 2.47065 6.53101 2.55322 6.37933C2.6358 6.22765 2.77509 6.11485 2.94062 6.0656ZM17.5 17.6281C17.5 17.8013 17.4312 17.9674 17.3087 18.0899C17.1862 18.2124 17.0201 18.2812 16.8469 18.2812H3.95937C3.78641 18.2804 3.62076 18.2113 3.49845 18.089C3.37614 17.9667 3.30707 17.8011 3.30625 17.6281V9.99998H17.5V17.6281Z" fill="#4D4D4F"/>
</svg>
