<svg width="20" height="20" viewBox="0 0 20 20" fill="none" xmlns="http://www.w3.org/2000/svg">
<g clip-path="url(#clip0_1205_106754)">
<path d="M19.9893 12.5165C19.9395 11.3706 19.7402 10.1001 19.4413 8.9044C19.1423 7.7585 18.7687 6.68733 18.3203 5.86527C16.5765 2.80123 14.6833 3.27454 12.4164 3.8724C11.694 4.04678 10.9217 4.24606 10.1246 4.3208H9.87548C9.07833 4.24606 8.3061 4.04678 7.58368 3.8724C5.31679 3.29945 3.42357 2.80123 1.67981 5.89018C1.23141 6.71224 0.832839 7.78341 0.558819 8.92931C0.259889 10.125 0.0606021 11.3955 0.0107804 12.5414C-0.0390414 13.8118 0.0855129 14.7335 0.359532 15.3812C0.633552 15.9791 1.03213 16.3527 1.55525 16.5022C2.02856 16.6268 2.5766 16.5769 3.14955 16.3278C4.12107 15.9293 5.24206 15.0823 6.33814 14.0609C7.11038 13.3136 8.55521 12.94 10 12.94C11.4449 12.94 12.8897 13.3136 13.6619 14.0609C14.758 15.0823 15.879 15.9293 16.8505 16.3278C17.4235 16.552 17.9715 16.6268 18.4448 16.5022C18.943 16.3527 19.3665 16.004 19.6405 15.3563C19.9146 14.7335 20.0391 13.8118 19.9893 12.5165ZM18.7936 15.0076C18.6441 15.3563 18.4448 15.5556 18.1957 15.6303C17.9217 15.7051 17.5729 15.6552 17.1744 15.5058C16.3025 15.157 15.2811 14.3848 14.2847 13.4382C13.3381 12.4916 11.6691 12.0183 10 12.0183C8.33101 12.0183 6.66198 12.4916 5.69046 13.3884C4.66911 14.335 3.64777 15.1321 2.8008 15.456C2.40222 15.6054 2.05347 15.6802 1.77945 15.5805C1.53034 15.5058 1.33106 15.3065 1.18159 14.9577C0.982304 14.4844 0.882661 13.7122 0.932482 12.5663C0.982304 11.4951 1.15668 10.2745 1.45561 9.12859C1.72963 8.05743 2.07838 7.06099 2.50187 6.31367C3.87196 3.84749 5.46626 4.24606 7.35949 4.74428C8.13172 4.94357 8.92887 5.14286 9.80075 5.21759C9.82566 5.21759 9.82566 5.21759 9.85057 5.21759H10.1246C10.1495 5.21759 10.1495 5.21759 10.1744 5.21759C11.0712 5.14286 11.8684 4.94357 12.6406 4.74428C14.5338 4.27098 16.1281 3.84749 17.4982 6.31367C17.9217 7.06099 18.2704 8.03252 18.5445 9.12859C18.8185 10.2745 19.0178 11.4702 19.0676 12.5663C19.1174 13.7122 19.0178 14.4844 18.7936 15.0076Z" fill="#4D4D4F"/>
<path d="M7.70824 7.6588C7.45913 7.4346 7.1602 7.26023 6.81145 7.23531C6.78654 6.91147 6.63707 6.58763 6.41287 6.36343L6.38796 6.33852C6.11394 6.0645 5.76519 5.91504 5.36662 5.91504C4.96804 5.91504 4.59438 6.08941 4.34527 6.33852C4.12107 6.56272 3.9467 6.88656 3.92179 7.23531C3.57303 7.26023 3.2741 7.40969 3.02499 7.63389L3.00008 7.6588C2.72606 7.93282 2.5766 8.28157 2.5766 8.68014C2.5766 9.07872 2.75098 9.45238 3.00008 9.70149C3.24919 9.9506 3.54812 10.1001 3.92179 10.125C3.9467 10.4737 4.09616 10.7976 4.34527 11.0218C4.61929 11.2958 4.96804 11.4453 5.36662 11.4453C5.76519 11.4453 6.13885 11.2709 6.38796 11.0218C6.61216 10.7727 6.78654 10.4737 6.81145 10.125C7.1602 10.1001 7.48404 9.9506 7.70824 9.70149C7.98226 9.42747 8.13172 9.07872 8.13172 8.68014C8.13172 8.28157 7.95735 7.90791 7.70824 7.6588ZM7.08547 9.05381C6.98582 9.15345 6.86127 9.20327 6.7118 9.20327H6.36305C6.11394 9.20327 5.88974 9.40256 5.88974 9.67658V10.0004C5.88974 10.1499 5.83992 10.2744 5.74028 10.3741C5.64064 10.4737 5.51608 10.5235 5.36662 10.5235C5.21715 10.5235 5.0926 10.4737 4.99295 10.3741C4.89331 10.2744 4.84349 10.1499 4.84349 10.0004V9.65167C4.84349 9.40256 4.6442 9.17836 4.37018 9.17836H4.02143C3.87196 9.17836 3.74741 9.12854 3.64777 9.0289C3.57303 8.95416 3.4983 8.82961 3.4983 8.68014C3.4983 8.53068 3.54812 8.40613 3.64777 8.30648C3.64777 8.30648 3.64777 8.30648 3.67268 8.28157C3.77232 8.20684 3.89687 8.15702 4.02143 8.15702H4.37018C4.61929 8.15702 4.84349 7.95773 4.84349 7.68371V7.33496C4.84349 7.18549 4.89331 7.06094 4.99295 6.9613C5.0926 6.86165 5.21715 6.81183 5.36662 6.81183C5.51608 6.81183 5.64064 6.86165 5.74028 6.9613C5.74028 6.9613 5.74028 6.9613 5.76519 6.98621C5.83992 7.08585 5.88974 7.2104 5.88974 7.33496V7.68371C5.88974 7.93282 6.08903 8.15702 6.36305 8.15702H6.7118C6.86127 8.15702 6.98582 8.20684 7.08547 8.30648C7.18511 8.40613 7.23493 8.53068 7.23493 8.68014C7.23493 8.82961 7.18511 8.95416 7.08547 9.05381Z" fill="#4D4D4F"/>
<path d="M14.3345 7.78343C14.8161 7.78343 15.2064 7.39308 15.2064 6.91155C15.2064 6.43003 14.8161 6.03967 14.3345 6.03967C13.853 6.03967 13.4626 6.43003 13.4626 6.91155C13.4626 7.39308 13.853 7.78343 14.3345 7.78343Z" fill="#4D4D4F"/>
<path d="M14.3345 11.3208C14.8161 11.3208 15.2064 10.9304 15.2064 10.4489C15.2064 9.96738 14.8161 9.57703 14.3345 9.57703C13.853 9.57703 13.4626 9.96738 13.4626 10.4489C13.4626 10.9304 13.853 11.3208 14.3345 11.3208Z" fill="#4D4D4F"/>
<path d="M12.5658 9.55211C13.0474 9.55211 13.4377 9.16176 13.4377 8.68023C13.4377 8.1987 13.0474 7.80835 12.5658 7.80835C12.0843 7.80835 11.694 8.1987 11.694 8.68023C11.694 9.16176 12.0843 9.55211 12.5658 9.55211Z" fill="#4D4D4F"/>
<path d="M16.1032 9.55211C16.5847 9.55211 16.9751 9.16176 16.9751 8.68023C16.9751 8.1987 16.5847 7.80835 16.1032 7.80835C15.6217 7.80835 15.2313 8.1987 15.2313 8.68023C15.2313 9.16176 15.6217 9.55211 16.1032 9.55211Z" fill="#4D4D4F"/>
</g>
<defs>
<clipPath id="clip0_1205_106754">
<rect width="20" height="20" fill="white"/>
</clipPath>
</defs>
</svg>
