<svg width="20" height="20" viewBox="0 0 20 20" fill="none" xmlns="http://www.w3.org/2000/svg">
<g clip-path="url(#clip0_1541_22398)">
<path fill-rule="evenodd" clip-rule="evenodd" d="M0 0H20.0005V20.0025H0V0Z" fill="white" fill-opacity="0.01"/>
<path d="M10 20C15.5228 20 20 15.5228 20 10C20 4.47715 15.5228 0 10 0C4.47715 0 0 4.47715 0 10C0 15.5228 4.47715 20 10 20Z" fill="#00AED6"/>
<path fill-rule="evenodd" clip-rule="evenodd" d="M17.18 9.79666C17.1388 9.18159 16.7979 8.60442 16.2315 8.19035C15.6651 7.77629 14.9187 7.55872 14.1543 7.58484H6.275C6.20645 7.58465 6.13862 7.57359 6.07538 7.55229C6.01214 7.53099 5.95473 7.49987 5.90643 7.46071C5.85813 7.42155 5.81988 7.37511 5.79387 7.32405C5.76786 7.27299 5.7546 7.21831 5.75484 7.16312C5.75484 6.93014 5.98744 6.7414 6.275 6.7414H14.2587C14.2388 6.31661 14.052 5.90786 13.7252 5.57398C13.3983 5.24011 12.9483 4.99834 12.44 4.88347C10.1138 4.55056 7.73299 4.55056 5.40685 4.88347C4.75887 5.01413 4.17459 5.29851 3.72979 5.69973C3.28499 6.10096 3.00017 6.60051 2.91228 7.13363C2.54324 9.11812 2.54324 11.1358 2.91228 13.1203C3.04756 13.6829 3.39172 14.1992 3.89926 14.601C4.4068 15.0027 5.05384 15.2711 5.75484 15.3704C8.64231 15.6612 11.5635 15.6612 14.451 15.3704C15.0789 15.265 15.6498 15.0032 16.0827 14.6222C16.5156 14.2411 16.7886 13.76 16.8631 13.2471C17.1196 12.1087 17.2276 10.9527 17.18 9.79666ZM14.592 11.2122V11.5868C14.5923 11.6419 14.579 11.6966 14.553 11.7477C14.527 11.7988 14.4887 11.8452 14.4404 11.8844C14.3921 11.9235 14.3347 11.9546 14.2715 11.9759C14.2083 11.9972 14.1404 12.0083 14.0719 12.0085C14.0033 12.0083 13.9355 11.9972 13.8723 11.9759C13.809 11.9546 13.7516 11.9235 13.7033 11.8844C13.655 11.8452 13.6168 11.7988 13.5908 11.7477C13.5647 11.6966 13.5515 11.6419 13.5517 11.5868V11.2122C13.4332 11.1274 13.3496 11.0155 13.3119 10.8915C13.2742 10.7675 13.2843 10.6371 13.3407 10.5178C13.3971 10.3985 13.4973 10.2958 13.6279 10.2234C13.7584 10.1509 13.9133 10.1122 14.0719 10.1122C14.2305 10.1122 14.3853 10.1509 14.5159 10.2234C14.6465 10.2958 14.7466 10.3985 14.8031 10.5178C14.8595 10.6371 14.8695 10.7675 14.8318 10.8915C14.7941 11.0155 14.7105 11.1274 14.592 11.2122Z" fill="white"/>
</g>
<defs>
<clipPath id="clip0_1541_22398">
<rect width="20" height="20" fill="white"/>
</clipPath>
</defs>
</svg>
