<svg xmlns="http://www.w3.org/2000/svg" width="26.7" height="20.86" viewBox="0 0 26.7 20.86">
  <g id="Group_91" data-name="Group 91" transform="translate(-2780.37 -1438.32)">
    <path id="Path_468" data-name="Path 468" d="M2801.23,1455.01a.83.83,0,1,0-.83-.83A.828.828,0,0,0,2801.23,1455.01Z" fill="#e42528"/>
    <path id="Path_469" data-name="Path 469" d="M2797.9,1455.01a.83.83,0,1,0-.83-.83A.828.828,0,0,0,2797.9,1455.01Z" fill="#e42528"/>
    <path id="Path_470" data-name="Path 470" d="M2794.56,1455.01a.83.83,0,1,0-.83-.83A.828.828,0,0,0,2794.56,1455.01Z" fill="#e42528"/>
    <path id="Path_471" data-name="Path 471" d="M2802.28,1449.17h-17.12a4.8,4.8,0,0,0-4.79,4.79v.43a4.8,4.8,0,0,0,4.79,4.79h17.12a4.8,4.8,0,0,0,4.79-4.79v-.43A4.8,4.8,0,0,0,2802.28,1449.17Zm3.12,5.22a3.124,3.124,0,0,1-3.12,3.12h-17.12a3.124,3.124,0,0,1-3.12-3.12v-.43a3.124,3.124,0,0,1,3.12-3.12h17.12a3.124,3.124,0,0,1,3.12,3.12Z" fill="#e42528"/>
    <path id="Path_472" data-name="Path 472" d="M2788.46,1442.09a7.638,7.638,0,0,1,10.52,0,.807.807,0,0,0,.58.23.875.875,0,0,0,.6-.25.836.836,0,0,0-.02-1.18,9.3,9.3,0,0,0-12.84,0,.835.835,0,0,0,1.16,1.2Z" fill="#e42528"/>
    <path id="Path_473" data-name="Path 473" d="M2797.9,1445a.857.857,0,0,0,.6-.25.836.836,0,0,0-.02-1.18,6.887,6.887,0,0,0-9.5,0,.835.835,0,0,0,1.16,1.2,5.221,5.221,0,0,1,7.18,0,.807.807,0,0,0,.58.23Z" fill="#e42528"/>
    <path id="Path_474" data-name="Path 474" d="M2791.06,1446.07a.835.835,0,0,0,1.16,1.2,2.25,2.25,0,0,1,3.01,0,.807.807,0,0,0,.58.23.875.875,0,0,0,.6-.25.836.836,0,0,0-.02-1.18,3.866,3.866,0,0,0-5.34,0Z" fill="#e42528"/>
  </g>
</svg>
