<svg xmlns="http://www.w3.org/2000/svg" width="26.69" height="26.715" viewBox="0 0 26.69 26.715">
  <g id="Group_78" data-name="Group 78" transform="translate(-821.59 -1584.635)">
    <path id="Path_421" data-name="Path 421" d="M839.37,1598.99a.841.841,0,0,1-.59-.24,5.408,5.408,0,0,0-7.66,0,.834.834,0,0,1-1.18-1.18,7.074,7.074,0,0,1,10.02,0,.827.827,0,0,1,0,1.18.84.84,0,0,1-.59.24Z" fill="#e42528"/>
    <path id="Path_422" data-name="Path 422" d="M837.31,1601.05a.841.841,0,0,1-.59-.24,2.511,2.511,0,0,0-3.54,0,.834.834,0,0,1-1.18-1.18,4.177,4.177,0,0,1,5.9,0,.827.827,0,0,1,0,1.18.84.84,0,0,1-.59.24Z" fill="#e42528"/>
    <path id="Path_423" data-name="Path 423" d="M834.95,1604.67a1.25,1.25,0,1,1,1.25-1.25A1.25,1.25,0,0,1,834.95,1604.67Z" fill="#e42528"/>
    <path id="Path_424" data-name="Path 424" d="M847.96,1593.98l-12.52-9.18a.825.825,0,0,0-.99,0l-12.52,9.18a.837.837,0,0,0,.99,1.35l.34-.25v13.87a2.407,2.407,0,0,0,2.4,2.4h18.56a2.407,2.407,0,0,0,2.4-2.4v-13.87l.34.25a.83.83,0,0,0,1.16-.18.844.844,0,0,0-.18-1.17Zm-3,14.96a.734.734,0,0,1-.73.73H825.67a.734.734,0,0,1-.73-.73v-15.09l10.01-7.34,10.01,7.34v15.09Z" fill="#e42528"/>
  </g>
</svg>
