<svg xmlns="http://www.w3.org/2000/svg" width="15.58" height="23.37" viewBox="0 0 15.58 23.37">
  <g id="Group_93" data-name="Group 93" transform="translate(-2785.71 -1522.21)">
    <path id="Path_479" data-name="Path 479" d="M2798.42,1522.21h-9.84a2.868,2.868,0,0,0-2.87,2.87v17.63a2.868,2.868,0,0,0,2.87,2.87h9.84a2.868,2.868,0,0,0,2.87-2.87v-17.63a2.868,2.868,0,0,0-2.87-2.87Zm1.75,20.5a1.8,1.8,0,0,1-.51,1.24,1.739,1.739,0,0,1-1.24.51h-9.84a1.8,1.8,0,0,1-1.24-.51,1.739,1.739,0,0,1-.51-1.24v-17.63a1.8,1.8,0,0,1,.51-1.24,1.739,1.739,0,0,1,1.24-.51h9.84a1.8,1.8,0,0,1,1.24.51,1.739,1.739,0,0,1,.51,1.24Z" fill="#e42528"/>
    <path id="Path_480" data-name="Path 480" d="M2795.73,1524.44h-4.45a.552.552,0,0,0-.39.16.55.55,0,0,0,.39.94h4.45a.552.552,0,0,0,.39-.16.55.55,0,0,0-.39-.94Z" fill="#e42528"/>
    <path id="Path_481" data-name="Path 481" d="M2793.5,1540.01a1.718,1.718,0,0,0-.93.28,1.608,1.608,0,0,0-.61.75,1.582,1.582,0,0,0-.09.96,1.654,1.654,0,0,0,.46.85,1.662,1.662,0,0,0,2.56-.24,1.673,1.673,0,0,0-1.39-2.6Zm0,2.23a.562.562,0,0,1-.31-.09.546.546,0,0,1-.2-.25.578.578,0,0,1-.03-.32.483.483,0,0,1,.15-.28.551.551,0,0,1,.28-.15.579.579,0,0,1,.32.03.546.546,0,0,1,.25.2.561.561,0,0,1,.09.31.553.553,0,0,1-.16.39.57.57,0,0,1-.39.16Z" fill="#e42528"/>
  </g>
</svg>
