<svg xmlns="http://www.w3.org/2000/svg" width="26.58" height="26.58" viewBox="0 0 26.58 26.58">
  <g id="Group_90" data-name="Group 90" transform="translate(-2780.38 -1395.03)">
    <path id="Path_457" data-name="Path 457" d="M2793.67,1421.61a13.281,13.281,0,1,1,9.4-3.89A13.206,13.206,0,0,1,2793.67,1421.61Zm0-25.03a11.73,11.73,0,1,0,11.73,11.73A11.741,11.741,0,0,0,2793.67,1396.58Z" fill="#e42528"/>
    <path id="Path_458" data-name="Path 458" d="M2793.67,1410.66a2.35,2.35,0,1,1,2.35-2.35A2.354,2.354,0,0,1,2793.67,1410.66Zm0-3.13a.78.78,0,1,0,.78.78A.781.781,0,0,0,2793.67,1407.53Z" fill="#e42528"/>
    <path id="Path_459" data-name="Path 459" d="M2781.16,1407.53h2.35v1.56h-2.35Z" fill="#e42528"/>
    <path id="Path_460" data-name="Path 460" d="M2803.84,1407.53h2.35v1.56h-2.35Z" fill="#e42528"/>
    <path id="Path_461" data-name="Path 461" d="M2792.89,1418.48h1.56v2.35h-1.56Z" fill="#e42528"/>
    <path id="Path_462" data-name="Path 462" d="M2792.89,1395.8h1.56v2.35h-1.56Z" fill="#e42528"/>
    <path id="Path_463" data-name="Path 463" d="M2785.93,1414.95l1.11,1.11-1.66,1.66-1.11-1.11Z" fill="#e42528"/>
    <path id="Path_464" data-name="Path 464" d="M2801.97,1398.91l1.11,1.11-1.66,1.66-1.11-1.11Z" fill="#e42528"/>
    <path id="Path_465" data-name="Path 465" d="M2801.42,1414.95l1.66,1.66-1.11,1.11-1.66-1.66Z" fill="#e42528"/>
    <path id="Path_466" data-name="Path 466" d="M2785.38,1398.91l1.66,1.66-1.11,1.11-1.66-1.66Z" fill="#e42528"/>
    <path id="Path_467" data-name="Path 467" d="M2798.59,1402.28l1.11,1.11-4.69,4.69-1.11-1.11Z" fill="#e42528"/>
  </g>
</svg>
