<svg xmlns="http://www.w3.org/2000/svg" xmlns:xlink="http://www.w3.org/1999/xlink" width="26.7" height="26.7" viewBox="0 0 26.7 26.7">
  <defs>
    <clipPath id="clip-path">
      <rect id="Rectangle_55" data-name="Rectangle 55" width="26.7" height="26.7" transform="translate(2780.38 1476.67)" fill="none"/>
    </clipPath>
  </defs>
  <g id="Group_94" data-name="Group 94" transform="translate(-2780.38 -1476.67)" clip-path="url(#clip-path)">
    <path id="Path_482" data-name="Path 482" d="M2806.57,1497.7l-6.64-6.64a.752.752,0,0,0-.71-.21,2.18,2.18,0,0,1-1.8-.68l2.74-2.74a5.474,5.474,0,0,0,6.38-7.64.783.783,0,0,0-1.26-.22l-2.52,2.52-.91-.2-.2-.91,2.52-2.52a.783.783,0,0,0-.22-1.26,5.477,5.477,0,0,0-7.64,6.39l-3.96,3.96-5.36-5.36.74-.74a.777.777,0,0,0-.08-1.17l-3.13-2.4a.78.78,0,0,0-1.03.07l-1.84,1.84a.78.78,0,0,0-.07,1.03l2.4,3.13a.778.778,0,0,0,1.17.08l.74-.74,5.36,5.36-3.96,3.96a5.477,5.477,0,0,0-6.39,7.64.783.783,0,0,0,1.26.22l2.52-2.52.91.2.2.91-2.52,2.52a.783.783,0,0,0,.22,1.26,5.474,5.474,0,0,0,7.64-6.38l2.74-2.74c.94,1.03.68,1.8.68,1.8a.814.814,0,0,0,.21.71l6.64,6.64a1.732,1.732,0,0,0,2.44,0l2.72-2.72a1.732,1.732,0,0,0,0-2.44Zm-23.33-17.3.88-.88,1.88,1.44-1.32,1.32-1.44-1.88Zm6.27,16.1a3.913,3.913,0,0,1-4.21,5.26l1.91-1.91a.771.771,0,0,0,.21-.72l-.4-1.82a.8.8,0,0,0-.6-.6l-1.82-.4a.771.771,0,0,0-.72.21l-1.91,1.91a3.913,3.913,0,0,1,5.26-4.21.776.776,0,0,0,.83-.18l9.7-9.7a.776.776,0,0,0,.18-.83,3.913,3.913,0,0,1,4.21-5.26l-1.91,1.91a.771.771,0,0,0-.21.72l.4,1.82a.8.8,0,0,0,.6.6l1.82.4a.771.771,0,0,0,.72-.21l1.91-1.91a3.913,3.913,0,0,1-5.26,4.21.776.776,0,0,0-.83.18l-9.7,9.7A.776.776,0,0,0,2789.51,1496.5Zm6.8-5.24a4.537,4.537,0,0,0,1.38.91l-1.81,1.81a4.937,4.937,0,0,0-.91-1.38l1.34-1.34Zm9.15,7.76-2.72,2.72a.169.169,0,0,1-.23,0l-6.09-6.09,2.95-2.95,6.09,6.09A.169.169,0,0,1,2805.46,1499.02Z" fill="#e42528"/>
  </g>
</svg>
