<svg width="20" height="20" viewBox="0 0 20 20" fill="none" xmlns="http://www.w3.org/2000/svg">
<g clip-path="url(#clip0_2838_21133)">
<path d="M19.6213 15.7551L14.6461 10.7797C14.3929 10.5265 14.0576 10.6313 14.1174 10.6194C13.5756 10.7274 13.0792 10.3938 12.7676 10.1085L14.8172 8.05881C16.2261 8.4424 17.7531 8.04686 18.7983 7.00162C20.0256 5.77432 20.3476 3.89811 19.5996 2.33299C19.4253 1.9683 18.9421 1.8858 18.6566 2.17131L16.7654 4.06256L16.0852 3.91381L15.9369 3.23377L17.828 1.34264C18.1138 1.05682 18.0306 0.573691 17.6663 0.39959C16.1006 -0.348496 14.2244 -0.0264648 12.9978 1.20092C11.9526 2.24611 11.5572 3.77334 11.9409 5.18248L8.9758 8.14768L4.95744 4.12916L5.50986 3.5767C5.76037 3.32623 5.73271 2.91197 5.45146 2.69689L3.10369 0.901465C2.87037 0.723066 2.54107 0.744941 2.33341 0.952598L0.95232 2.33373C0.744664 2.54139 0.722789 2.87072 0.901187 3.104L2.69658 5.45189C2.91154 5.73307 3.32552 5.76107 3.57634 5.51029L4.12877 4.95787L8.14713 8.97639L5.18205 11.9416C3.77279 11.5579 2.24576 11.9533 1.20072 12.9984C-0.0267035 14.2252 -0.348774 16.1014 0.399273 17.6671C0.573453 18.0317 1.05666 18.1144 1.34228 17.8288L3.23334 15.9377L3.91334 16.086L4.06212 16.7662L2.17091 18.6575C1.88517 18.9432 1.96818 19.4264 2.33259 19.6005C3.89814 20.3488 5.77423 20.0261 7.00111 18.7992C8.04634 17.7539 8.44185 16.2268 8.0583 14.8179L10.1074 12.7687C10.8092 13.5367 10.6187 14.1187 10.6187 14.1187C10.5813 14.3068 10.6396 14.5073 10.7791 14.6469L15.7543 19.6222C16.2578 20.1256 17.0769 20.1256 17.5803 19.6222L19.6213 17.5812C20.126 17.0765 20.126 16.2598 19.6213 15.7551ZM2.14373 2.79963L2.79931 2.14404L4.20798 3.22131L3.22095 4.20838L2.14373 2.79963ZM6.84259 14.8633C7.24775 15.9385 6.98474 17.1582 6.17252 17.9705C5.50978 18.6332 4.58263 18.9264 3.68634 18.7994L5.11736 17.3683C5.25853 17.2272 5.3181 17.0238 5.27544 16.8288L4.97798 15.4684C4.92908 15.2446 4.75423 15.0699 4.53045 15.0211L3.17037 14.7244C2.97552 14.6818 2.77228 14.7415 2.63119 14.8826L1.20041 16.3134C1.0733 15.4171 1.36654 14.4896 2.02931 13.8271C2.8415 13.0149 4.06127 12.752 5.13666 13.1573C5.35197 13.2384 5.59494 13.186 5.75763 13.0233L13.0226 5.75803C13.1854 5.59529 13.2378 5.3524 13.1566 5.13705C12.7513 4.06154 13.0142 2.84174 13.8266 2.02943C14.489 1.36662 15.4165 1.0735 16.3126 1.20061L14.8819 2.6315C14.7408 2.77256 14.6811 2.97576 14.7237 3.17068L15.0203 4.5308C15.0691 4.75459 15.2439 4.92947 15.4676 4.97838L16.828 5.27588C17.023 5.31846 17.2263 5.25893 17.3675 5.11775L18.7985 3.6867C18.9255 4.58275 18.6323 5.51025 17.9696 6.17295C17.1574 6.98521 15.9378 7.2483 14.8625 6.84307C14.6471 6.76193 14.4042 6.81436 14.2415 6.97705C14.1731 7.04545 7.15392 14.0649 6.97654 14.2423C6.81384 14.405 6.76142 14.6479 6.84259 14.8633ZM11.939 10.937C12.1947 11.1756 12.5479 11.4457 12.9751 11.6222L11.6214 12.976C11.4449 12.5488 11.1749 12.1954 10.9364 11.9397L11.939 10.937ZM18.7927 16.7525L16.7517 18.7936C16.7052 18.8401 16.6295 18.8401 16.583 18.7936L12.0221 14.2325L14.2318 12.0227L18.7927 16.5838C18.8394 16.6305 18.8394 16.7058 18.7927 16.7525Z" fill="#ED1C24"/>
</g>
<defs>
<clipPath id="clip0_2838_21133">
<rect width="20" height="20" fill="white"/>
</clipPath>
</defs>
</svg>
