<svg width="45" height="45" viewBox="0 0 45 45" xmlns="http://www.w3.org/2000/svg">
    <g fill="none" fill-rule="evenodd">
        <circle fill="#3B3B3B" cx="22.426" cy="22.426" r="22.426"/>
        <path d="M24.584 29.954c1.154-.056 2.177-.319 3.022-1.163.845-.845 1.108-1.868 1.164-3.023.042-.746.047-1.487.047-2.23v-.745c0-.995.01-1.98-.047-2.975-.056-1.155-.32-2.178-1.164-3.023-.845-.844-1.868-1.107-3.022-1.164-.995-.056-1.98-.046-2.976-.046-.994 0-1.98-.01-2.975.046-1.154.057-2.177.32-3.022 1.164-.845.845-1.108 1.868-1.164 3.023a39.356 39.356 0 0 0-.048 2.23l.001.745c0 .995-.01 1.98.047 2.975.056 1.155.32 2.178 1.164 3.023.845.844 1.868 1.107 3.022 1.163.995.057 1.98.047 2.975.047.995 0 1.98.01 2.976-.047zm-7.227-1.539a2.305 2.305 0 0 1-.826-.544 2.305 2.305 0 0 1-.545-.826c-.375-.948-.29-3.2-.29-4.252 0-1.051-.085-3.304.29-4.252.132-.328.291-.572.545-.826.253-.253.497-.413.826-.544.948-.376 3.2-.291 4.251-.291 1.052 0 3.304-.085 4.252.29.329.132.573.292.826.545.254.254.413.498.545.826.353.892.299 2.94.291 4.054v.198c0 1.051.084 3.304-.291 4.252a2.305 2.305 0 0 1-.545.826 2.305 2.305 0 0 1-.826.544c-.948.376-3.2.291-4.252.291-1.05 0-3.303.085-4.251-.29zm8.1-8.607a.861.861 0 0 0 .863-.863.861.861 0 0 0-.863-.864.861.861 0 0 0-.864.864c0 .478.385.863.864.863zm-3.849 6.683a3.693 3.693 0 0 0 3.699-3.698 3.693 3.693 0 0 0-3.699-3.698 3.693 3.693 0 0 0-3.698 3.698 3.693 3.693 0 0 0 3.698 3.698zm0-1.295a2.407 2.407 0 0 1-2.402-2.403 2.407 2.407 0 0 1 2.402-2.403 2.407 2.407 0 0 1 2.403 2.403 2.407 2.407 0 0 1-2.403 2.403z" fill="#FFF" fill-rule="nonzero"/>
    </g>
</svg>
