<svg width="102" height="37" viewBox="0 0 102 37" fill="none" xmlns="http://www.w3.org/2000/svg">
<g clip-path="url(#clip0_1249_14810)">
<path d="M11.5773 16.9224C15.3474 16.9224 17.9329 19.8771 17.9296 23.5157V29.7377H14.5228V23.5177C14.5228 21.6064 13.4541 20.0617 11.5734 20.0597C9.6933 20.0577 8.62132 21.6011 8.61868 23.5131V29.7337H5.21517V23.5144C5.21846 19.8737 7.80992 16.9231 11.578 16.9231L11.5773 16.9224ZM32.8921 13.1517V29.7391H29.7136V28.2651C29.3056 28.8353 28.7702 29.2996 28.151 29.6199C27.5319 29.9401 26.8467 30.1073 26.1515 30.1077C22.4282 30.1077 19.4077 27.1591 19.4077 23.5197C19.4077 19.8811 22.4262 16.9231 26.1265 16.9231C27.3599 16.9241 28.5522 17.3727 29.4872 18.1877V13.1517H32.8921ZM26.2173 26.9757C26.665 26.9749 27.1082 26.8848 27.5216 26.7105C27.9349 26.5362 28.3104 26.2811 28.6264 25.9598C28.9424 25.6386 29.1929 25.2573 29.3636 24.838C29.5342 24.4186 29.6216 23.9693 29.6208 23.5157C29.6208 22.5999 29.2617 21.7215 28.6224 21.0739C27.9831 20.4262 27.1161 20.0624 26.212 20.0624C25.7643 20.0629 25.3211 20.1528 24.9077 20.3269C24.4943 20.5009 24.1188 20.7558 23.8026 21.0769C23.4864 21.398 23.2358 21.7791 23.065 22.1984C22.8942 22.6176 22.8066 23.0668 22.8072 23.5204C22.8064 23.9747 22.8941 24.4246 23.0653 24.8445C23.2365 25.2643 23.4878 25.6458 23.8048 25.9671C24.1215 26.288 24.4976 26.5424 24.9116 26.7155C25.3257 26.8886 25.7694 26.977 26.2173 26.9757ZM59.0942 25.8691C59.0942 28.5411 56.7318 30.1077 54.0982 30.1077C51.4646 30.1077 49.112 28.5411 49.112 25.8691H52.5188C52.5188 26.9291 53.3592 27.2057 54.1074 27.2057C54.855 27.2057 55.6973 26.8137 55.6973 26.0077C55.6973 25.4317 54.9477 24.9024 53.9258 24.7631C51.5429 24.4631 49.2489 22.9884 49.2489 21.0317C49.2489 18.5024 51.4732 16.9304 54.1074 16.9304C56.741 16.9304 58.958 18.4971 58.958 21.1691H55.5518C55.5518 20.1104 54.8477 19.8337 54.0982 19.8337C53.3486 19.8337 52.6452 20.1104 52.6452 20.9397C52.6452 21.6771 54.1449 22.2517 55.461 22.4144C57.2543 22.6204 59.0942 23.7731 59.0942 25.8691ZM73.6703 23.5197V29.7397H70.4926V28.1957C70.0972 28.7838 69.5661 29.2652 68.9455 29.5983C68.3249 29.9314 67.6334 30.106 66.9311 30.1071C63.2071 30.1071 60.1873 27.1584 60.1873 23.5191C60.1873 19.8804 63.2038 16.9224 66.9278 16.9224C70.6511 16.9224 73.6697 19.8784 73.6697 23.5191L73.6703 23.5197ZM70.4017 23.5197C70.4023 22.8364 70.203 22.1682 69.8289 21.5996C69.4548 21.031 68.9227 20.5875 68.2999 20.3251C67.6775 20.0633 66.9923 19.9946 66.3313 20.1278C65.6703 20.2609 65.0633 20.5899 64.5871 21.0731C64.1102 21.5568 63.7855 22.1727 63.6538 22.8432C63.5222 23.5137 63.5895 24.2087 63.8474 24.8404C64.149 25.5781 64.6937 26.187 65.3888 26.5634C66.0838 26.9399 66.8862 27.0605 67.6592 26.9048C68.4322 26.7492 69.128 26.3268 69.6281 25.7097C70.1282 25.0925 70.4016 24.3182 70.4017 23.5197ZM78.6828 13.1517V17.0404H82.0876V19.9944H78.6828V23.5251C78.682 23.9789 78.7696 24.4283 78.9404 24.8478C79.1112 25.2673 79.3621 25.6485 79.6785 25.9697C79.9945 26.2907 80.3701 26.5451 80.7835 26.7186C81.197 26.892 81.6402 26.981 82.0876 26.9804V30.1137H81.6336C77.8655 30.1137 75.2767 27.1644 75.2767 23.5251V13.1517H78.6828ZM41.2475 30.1131C37.5084 30.1131 34.4806 27.1644 34.4806 23.5251C34.4806 19.8864 37.5011 16.9231 41.2482 16.9231C44.9945 16.9231 48.015 19.8717 48.015 23.5124C48.015 27.1537 44.9939 30.1131 41.2475 30.1131ZM41.2475 20.0684C40.5715 20.0595 39.9082 20.2546 39.3419 20.6288C38.7757 21.003 38.3321 21.5394 38.0677 22.1697C37.8027 22.8005 37.7286 23.4967 37.8548 24.1702C37.981 24.8436 38.3018 25.4639 38.7765 25.9524C39.2506 26.4404 39.8574 26.7743 40.5196 26.9116C41.1818 27.0488 41.8693 26.9832 42.4945 26.7231C43.1201 26.4623 43.655 26.0191 44.0314 25.4497C44.4077 24.8802 44.6085 24.2103 44.6082 23.5251C44.616 22.6139 44.2661 21.7369 43.6356 21.0871C43.3237 20.7657 42.9523 20.5098 42.5426 20.334C42.1329 20.1583 41.693 20.0662 41.2482 20.0631L41.2475 20.0684ZM3.91813 14.0737C3.91813 14.6003 3.71179 15.1053 3.34445 15.4778C2.97711 15.8503 2.47883 16.0599 1.95907 16.0604C1.43943 16.0599 0.941238 15.8504 0.573919 15.478C0.2066 15.1057 0.000185536 14.6008 1.14224e-05 14.0744C-0.00131406 13.6813 0.112748 13.2966 0.327703 12.9693C0.542659 12.6421 0.848805 12.3869 1.20724 12.2363C1.56567 12.0856 1.96022 12.0464 2.34074 12.1234C2.72125 12.2005 3.07057 12.3904 3.3443 12.6691C3.7115 13.0411 3.91813 13.5464 3.91813 14.0737ZM0.261921 17.2991H3.66872V29.7391H0.261921V17.2991Z" fill="#4D4D4F"/>
<path d="M98.2846 4.58158C99.7342 6.05233 100.573 8.02928 100.63 10.1069C101.55 9.04434 102.039 7.66768 101.997 6.25455C101.955 4.84142 101.386 3.49694 100.404 2.49224C99.4233 1.48832 98.1022 0.899902 96.7088 0.846297C95.3155 0.792692 93.9542 1.27792 92.9009 2.20358C94.9278 2.27691 96.8513 3.12624 98.2846 4.58158Z" fill="#FFCB05"/>
<path d="M86.8974 16.1329C85.4643 14.6778 84.6278 12.7271 84.556 10.6729C83.6384 11.7416 83.156 13.1236 83.2064 14.5392C83.2569 15.9548 83.8365 17.298 84.8278 18.2968C85.8183 19.2947 87.1468 19.8728 88.5431 19.9133C89.9394 19.9538 91.2984 19.4537 92.3436 18.5149C90.2944 18.4562 88.3454 17.6037 86.8981 16.1329H86.8974Z" fill="#32BCAD"/>
<path d="M84.8212 10.3743C84.7251 10.4723 84.6435 10.577 84.5488 10.6816C84.7133 14.965 88.1155 18.3883 92.3383 18.5203C92.4291 18.439 92.516 18.361 92.6074 18.2723C93.2907 17.5784 93.7819 16.7148 94.0319 15.768C94.2818 14.8211 94.2817 13.8244 94.0315 12.8776C93.7818 11.9311 93.2906 11.0678 92.6072 10.3746C91.9238 9.6813 91.0724 9.18251 90.1384 8.9283C89.2048 8.67473 88.2217 8.67495 87.2882 8.92893C86.3547 9.1829 85.5038 9.68167 84.8212 10.375V10.3743Z" fill="#C6168D"/>
<path d="M85.8919 14.8864C85.8294 14.793 85.7761 14.693 85.7142 14.5957C85.7761 14.693 85.8294 14.7924 85.8919 14.8864ZM86.3598 15.5297C86.3012 15.4557 86.2499 15.3777 86.1946 15.3037C86.2499 15.3777 86.3012 15.4557 86.3598 15.5304V15.5297ZM90.6306 18.2724C90.4898 18.2364 90.3477 18.2024 90.2088 18.157C90.347 18.2024 90.4898 18.237 90.63 18.2724H90.6306ZM92.1317 18.5037C91.9823 18.5037 91.8329 18.4857 91.6829 18.4697C91.8329 18.4857 91.9823 18.495 92.1317 18.5037ZM89.1579 17.7377C89.0388 17.6797 88.9177 17.6277 88.8019 17.5577C88.9177 17.6277 89.0388 17.6797 89.1572 17.7377H89.1579ZM88.4419 17.349C88.3386 17.2864 88.2333 17.2284 88.1339 17.169C88.2333 17.2284 88.3419 17.2844 88.4419 17.349ZM87.7332 16.8617C87.6542 16.7997 87.5752 16.7457 87.4982 16.681C87.5746 16.7424 87.6549 16.7997 87.7332 16.861V16.8617ZM89.8877 18.045C89.7561 17.9964 89.6244 17.951 89.4928 17.897C89.6244 17.951 89.7561 17.9964 89.8877 18.045Z" fill="#ED1C24"/>
<path d="M92.616 10.3743C93.1269 10.8929 93.7337 11.3043 94.4017 11.5851C95.0698 11.8658 95.7859 12.0103 96.5091 12.0103C97.2324 12.0103 97.9485 11.8658 98.6165 11.5851C99.2845 11.3043 99.8914 10.8929 100.402 10.3743C100.486 10.2876 100.567 10.1943 100.646 10.109C100.519 5.81562 97.1349 2.35696 92.9049 2.19629C92.8023 2.28535 92.7031 2.37831 92.6075 2.47496C91.5762 3.52464 90.998 4.94579 90.9996 6.42675C91.0012 7.9077 91.5825 9.32757 92.616 10.375V10.3743Z" fill="#EC008C"/>
<path d="M92.616 2.46776C92.7108 2.37176 92.8068 2.28709 92.9049 2.19643C91.7964 2.14984 90.6905 2.3371 89.6573 2.74634C88.624 3.15559 87.686 3.77788 86.9027 4.57376C86.1186 5.37038 85.5061 6.32303 85.1037 7.37158C84.7014 8.42013 84.5181 9.5418 84.5652 10.6658C84.6508 10.5644 84.7429 10.4631 84.8304 10.3678C85.3412 9.84909 85.948 9.43759 86.616 9.15682C87.2839 8.87606 88 8.73153 88.7232 8.73153C89.4464 8.73153 90.1625 8.87606 90.8305 9.15682C91.4985 9.43759 92.1052 9.84909 92.616 10.3678C91.5837 9.31922 91.0039 7.89871 91.0039 6.41776C91.0039 4.93681 91.5837 3.5163 92.616 2.46776ZM100.63 10.1144C100.554 10.2031 100.475 10.2951 100.393 10.3744C99.8821 10.8929 99.2754 11.3043 98.6074 11.585C97.9394 11.8656 97.2234 12.0101 96.5002 12.0101C95.7771 12.0101 95.061 11.8656 94.3931 11.585C93.7251 11.3043 93.1183 10.8929 92.6074 10.3744C93.6397 11.4226 94.2194 12.8428 94.2194 14.3234C94.2194 15.8041 93.6397 17.2242 92.6074 18.2724C92.5239 18.3591 92.4298 18.4351 92.3442 18.5151C94.5619 18.5898 96.7111 17.7284 98.2813 16.1371C99.0584 15.3492 99.6678 14.4082 100.072 13.3723C100.476 12.3365 100.666 11.2277 100.631 10.1144H100.63Z" fill="#ED1C24"/>
<path d="M1.36748 36.5511C1.02819 36.3674 0.747294 36.09 0.557401 35.7511C0.363418 35.3876 0.261841 34.9809 0.261841 34.5678C0.261841 34.1546 0.363418 33.7479 0.557401 33.3844C0.74824 33.0444 1.02923 32.7658 1.36748 32.5798C1.72212 32.387 2.11932 32.2888 2.52172 32.2944C2.92413 32.2888 3.32133 32.387 3.67597 32.5798C4.01421 32.7664 4.29455 33.0444 4.48539 33.3838C4.67812 33.7476 4.77898 34.1541 4.77898 34.5671C4.77898 34.98 4.67812 35.3866 4.48539 35.7504C4.29577 36.0895 4.0151 36.3671 3.67597 36.5511C3.32124 36.7434 2.92403 36.8412 2.52172 36.8351C2.11942 36.8412 1.72221 36.7434 1.36748 36.5511ZM3.34628 36.0524C3.59108 35.9144 3.79376 35.7098 3.93064 35.4618C4.07739 35.1878 4.15109 34.8791 4.14385 34.5671C4.15054 34.2577 4.07702 33.952 3.93064 33.6804C3.79616 33.4317 3.59554 33.2261 3.35154 33.0871C3.09943 32.9477 2.81617 32.8763 2.52896 32.8798C2.23941 32.8751 1.9525 32.9464 1.69717 33.0858C1.44959 33.2224 1.24518 33.4271 1.10754 33.6764C0.964819 33.9518 0.89025 34.2581 0.89025 34.5691C0.89025 34.8801 0.964819 35.1864 1.10754 35.4618C1.24442 35.7104 1.44776 35.9151 1.69322 36.0524C1.94789 36.1924 2.23283 36.2624 2.52172 36.2571C2.8093 36.2618 3.09358 36.1917 3.34628 36.0524ZM7.26769 36.5511C6.9284 36.3674 6.6475 36.09 6.45761 35.7511C6.26362 35.3876 6.16205 34.9809 6.16205 34.5678C6.16205 34.1546 6.26362 33.7479 6.45761 33.3844C6.64845 33.0444 6.92878 32.7658 7.26703 32.5798C7.62451 32.3909 8.02172 32.2922 8.42489 32.2922C8.82807 32.2922 9.22528 32.3909 9.58276 32.5798C9.921 32.7664 10.2013 33.0444 10.3928 33.3838C10.5856 33.7476 10.6864 34.1541 10.6864 34.5671C10.6864 34.98 10.5856 35.3866 10.3928 35.7504C10.202 36.0897 9.92166 36.3671 9.58276 36.5511C9.225 36.7387 8.82805 36.8365 8.42522 36.8365C8.02239 36.8365 7.62544 36.7387 7.26769 36.5511ZM9.24583 36.0524C9.4926 35.9151 9.69594 35.7104 9.83414 35.4618C9.97391 35.1862 10.0468 34.8809 10.0468 34.5711C10.0468 34.2613 9.97391 33.956 9.83414 33.6804C9.6989 33.4316 9.49762 33.2261 9.25307 33.0871C9.00171 32.9476 8.71905 32.8762 8.43246 32.8798C8.1416 32.8751 7.85468 32.9464 7.59869 33.0858C7.35176 33.223 7.14773 33.4277 7.00972 33.6764C6.86754 33.9519 6.79328 34.2582 6.79328 34.5691C6.79328 34.88 6.86754 35.1862 7.00972 35.4618C7.14594 35.7104 7.34929 35.9151 7.5954 36.0524C7.84929 36.1899 8.13273 36.2618 8.42062 36.2618C8.7085 36.2618 8.99194 36.1899 9.24583 36.0524ZM12.215 32.3884H13.9405C14.3216 32.3627 14.6984 32.4826 14.9967 32.7244C15.254 32.9831 15.3882 33.3424 15.3632 33.7091C15.3718 34.0004 15.2836 34.2864 15.1125 34.5204C14.9338 34.7502 14.6819 34.9099 14.3998 34.9724L15.3454 36.7411H14.6953L13.7806 35.0224H12.8343V36.7411H12.215V32.3878V32.3884ZM13.8352 34.4858C14.0688 34.4991 14.2991 34.4298 14.4886 34.2911C14.6558 34.1471 14.7459 33.9311 14.7315 33.7091C14.7424 33.5965 14.7268 33.4829 14.6858 33.3776C14.6449 33.2723 14.5797 33.1785 14.4959 33.1037C14.3006 32.9729 14.0689 32.9095 13.8352 32.9231H12.8349V34.4858H13.8352ZM16.8985 32.3884H19.7281V32.9304H17.5256V34.3071H19.1708V34.8364H17.5256V36.2191H19.7281V36.7484H16.8985V32.3884ZM21.2331 32.3884H22.6151C23.0302 32.3782 23.4419 32.4673 23.8167 32.6484C24.1457 32.8131 24.4182 33.0738 24.6004 33.3964C24.7887 33.7478 24.8828 34.1431 24.8729 34.5417C24.8729 35.2651 24.6676 35.8124 24.2569 36.1844C23.8463 36.5564 23.2698 36.7424 22.5275 36.7411H21.2331V32.3878V32.3884ZM22.5229 36.2118C23.0955 36.2118 23.5258 36.0684 23.8114 35.7818C24.0977 35.4951 24.2411 35.0817 24.2411 34.5417C24.2615 34.3216 24.2334 34.0996 24.1589 33.8917C24.0843 33.6839 23.9652 33.4953 23.8101 33.3397C23.6552 33.1842 23.4681 33.0654 23.2623 32.9921C23.0566 32.9187 22.8373 32.8927 22.6203 32.9158H21.8596V36.2044L22.5223 36.2111L22.5229 36.2118ZM27.3893 36.5511C27.0504 36.3669 26.7696 36.0896 26.5792 35.7511C26.3865 35.3872 26.2857 34.9807 26.2857 34.5678C26.2857 34.1548 26.3865 33.7483 26.5792 33.3844C26.7701 33.0444 27.0511 32.7664 27.3893 32.5798C27.7468 32.3913 28.1439 32.2928 28.5469 32.2928C28.9499 32.2928 29.3469 32.3913 29.7044 32.5798C30.0426 32.7664 30.323 33.0444 30.5145 33.3838C30.7072 33.7476 30.8081 34.1541 30.8081 34.5671C30.8081 34.98 30.7072 35.3866 30.5145 35.7504C30.3243 36.0897 30.0433 36.3671 29.7051 36.5511C29.3471 36.7385 28.9501 36.8363 28.5472 36.8363C28.1443 36.8363 27.7472 36.7385 27.3893 36.5511ZM29.3701 36.0524C29.6156 35.9151 29.8189 35.7104 29.9558 35.4618C30.1038 35.1884 30.1782 34.8798 30.171 34.5671C30.1771 34.2579 30.1041 33.9525 29.9591 33.6804C29.824 33.4317 29.623 33.2262 29.3787 33.0871C29.1265 32.9477 28.8433 32.8763 28.5561 32.8798C28.266 32.8756 27.9797 32.9465 27.7243 33.0858C27.4771 33.2229 27.2728 33.4276 27.1347 33.6764C26.9925 33.9519 26.9182 34.2582 26.9182 34.5691C26.9182 34.88 26.9925 35.1862 27.1347 35.4618C27.2715 35.7104 27.4749 35.9151 27.7203 36.0524C27.9743 36.19 28.2579 36.262 28.5459 36.262C28.8339 36.262 29.1174 36.19 29.3714 36.0524H29.3694H29.3701ZM33.2895 36.5511C32.9503 36.367 32.6693 36.0897 32.4788 35.7511C32.2861 35.3872 32.1852 34.9807 32.1852 34.5678C32.1852 34.1548 32.2861 33.7483 32.4788 33.3844C32.6703 33.0444 32.9506 32.7664 33.2895 32.5798C33.6469 32.391 34.044 32.2924 34.4471 32.2924C34.8501 32.2924 35.2472 32.391 35.6046 32.5798C35.9428 32.7664 36.2232 33.0444 36.4147 33.3838C36.8089 34.1224 36.8089 35.0124 36.4147 35.7504C36.2249 36.0896 35.944 36.3672 35.6046 36.5511C35.2468 36.7387 34.8499 36.8365 34.4471 36.8365C34.0442 36.8365 33.6473 36.7387 33.2895 36.5511ZM35.2729 36.0524C35.5191 35.9151 35.7224 35.7104 35.8586 35.4618C36.0073 35.1884 36.0824 34.8798 36.0745 34.5671C36.0806 34.2579 36.0076 33.9525 35.8626 33.6804C35.7275 33.4317 35.5265 33.2262 35.2822 33.0871C35.03 32.9477 34.7468 32.8763 34.4596 32.8798C34.1695 32.8756 33.8832 32.9465 33.6278 33.0858C33.3806 33.2229 33.1763 33.4276 33.0382 33.6764C32.8966 33.9521 32.8226 34.2583 32.8226 34.5691C32.8226 34.8799 32.8966 35.1861 33.0382 35.4618C33.1763 35.7104 33.3797 35.9151 33.6258 36.0524C33.8798 36.19 34.1633 36.262 34.4513 36.262C34.7394 36.262 35.0229 36.19 35.2769 36.0524H35.2723H35.2729ZM41.3693 32.3884H41.9944V34.2564H44.2364V32.3891H44.8616V36.7417H44.2364V34.7917H41.9938V36.7417H41.3686L41.3693 32.3884ZM46.9358 36.3778C46.7813 36.2082 46.662 36.0088 46.5852 35.7915C46.5083 35.5742 46.4753 35.3435 46.4883 35.1131V32.3844H47.1135V35.1364C47.0931 35.4478 47.2056 35.7538 47.4221 35.9751C47.6636 36.1593 47.9576 36.2589 48.2598 36.2589C48.5621 36.2589 48.8561 36.1593 49.0976 35.9751C49.3141 35.7531 49.4259 35.4478 49.4042 35.1364V32.3891H50.0307V35.1171C50.044 35.3478 50.0111 35.5788 49.9339 35.7962C49.8568 36.0137 49.7371 36.2131 49.5819 36.3824C49.2831 36.6891 48.8429 36.8424 48.2625 36.8424C47.6821 36.8424 47.2398 36.6884 46.9358 36.3784V36.3778ZM52.7452 32.9231H51.4113V32.3811H54.7095V32.9231H53.377V36.7411H52.7452V32.9231ZM56.7515 36.5551C56.4141 36.3735 56.1354 36.0974 55.9487 35.7597C55.7506 35.3948 55.6512 34.9834 55.6604 34.5671C55.651 34.148 55.7504 33.7337 55.9487 33.3658C56.1349 33.0273 56.4137 32.7507 56.7515 32.5691C57.1155 32.3778 57.5208 32.2815 57.9308 32.2891C58.4603 32.2703 58.981 32.4305 59.4107 32.7444V33.3658C59.0118 33.031 58.5034 32.8601 57.986 32.8871C57.6805 32.8809 57.3781 32.9517 57.1062 33.0931C56.8544 33.2253 56.6462 33.4292 56.5074 33.6798C56.365 33.9566 56.2907 34.2642 56.2907 34.5764C56.2907 34.8886 56.365 35.1962 56.5074 35.4731C56.6482 35.7244 56.8575 35.9298 57.1095 36.0638C57.38 36.2038 57.6807 36.2751 57.9847 36.2697C58.2605 36.2741 58.5352 36.2331 58.7981 36.1484C59.0432 36.064 59.2695 35.9315 59.4641 35.7584V36.3744C59.0949 36.6864 58.5829 36.8424 57.9288 36.8424C57.5191 36.8473 57.1147 36.7485 56.7522 36.5551H56.7515ZM61.0006 32.3884H61.6297V34.2564H63.8698V32.3891H64.495V36.7417H63.8698V34.7917H61.6297V36.7417H61.0026L61.0006 32.3884ZM66.1513 32.3884H66.7831V36.7411H66.1513V32.3884ZM68.904 36.7697C68.7017 36.7365 68.5047 36.6759 68.3183 36.5897V36.0144C68.7161 36.2028 69.1506 36.2985 69.5897 36.2944C70.228 36.2944 70.5465 36.0771 70.5465 35.6424C70.5532 35.5136 70.5168 35.3863 70.4432 35.2811C70.3611 35.1799 70.2583 35.098 70.1418 35.0411C70.0102 34.9724 69.7983 34.8784 69.5028 34.7571C69.1754 34.6418 68.8761 34.4571 68.625 34.2151C68.4437 34.0079 68.3474 33.7384 68.3558 33.4618C68.3501 33.2454 68.4123 33.0327 68.5335 32.8544C68.6651 32.6711 68.8441 32.5278 69.0501 32.4424C69.2909 32.3411 69.5502 32.2911 69.8108 32.2958C70.0227 32.2938 70.2346 32.3124 70.4425 32.3518C70.6334 32.3904 70.8183 32.4511 70.9953 32.5331V33.0751C70.6566 32.9177 70.2887 32.8349 69.9161 32.8324C69.6797 32.8179 69.4442 32.874 69.2389 32.9938C69.1642 33.0441 69.1035 33.1132 69.0627 33.1942C69.0219 33.2752 69.0024 33.3655 69.006 33.4564C69.0031 33.5793 69.0385 33.6999 69.1073 33.8011C69.1883 33.9058 69.2916 33.9911 69.4081 34.0504C69.5423 34.1231 69.7404 34.2131 70.0016 34.3218C70.2399 34.4151 70.4695 34.5297 70.6887 34.6631C71.0295 34.8644 71.2296 35.2431 71.2052 35.6431C71.2132 35.811 71.1811 35.9784 71.1117 36.1311C71.0423 36.2839 70.9376 36.4174 70.8065 36.5204C70.5393 36.7277 70.1464 36.8318 69.6272 36.8318C69.3848 36.8325 69.1428 36.8118 68.904 36.7697ZM73.7269 36.5511C73.3877 36.3674 73.1068 36.09 72.9169 35.7511C72.7241 35.3872 72.6233 34.9807 72.6233 34.5678C72.6233 34.1548 72.7241 33.7483 72.9169 33.3844C73.1077 33.0444 73.388 32.7658 73.7263 32.5798C74.0838 32.3909 74.481 32.2922 74.8842 32.2922C75.2873 32.2922 75.6845 32.3909 76.042 32.5798C76.3809 32.7664 76.6613 33.0444 76.8521 33.3838C77.2469 34.1224 77.2469 35.0124 76.8521 35.7504C76.6623 36.0896 76.3814 36.3672 76.042 36.5511C75.6843 36.7387 75.2873 36.8365 74.8845 36.8365C74.4817 36.8365 74.0847 36.7387 73.7269 36.5511ZM75.7077 36.0524C75.9525 35.9151 76.1552 35.7104 76.2934 35.4618C76.4337 35.1864 76.507 34.881 76.507 34.5711C76.507 34.2612 76.4337 33.9558 76.2934 33.6804C76.1577 33.4319 75.9565 33.2265 75.7123 33.0871C75.4602 32.9477 75.1769 32.8763 74.8897 32.8798C74.5997 32.8756 74.3134 32.9465 74.058 33.0858C73.8104 33.2224 73.606 33.4271 73.4683 33.6764C73.3196 33.9484 73.2446 34.2564 73.2512 34.5671C73.2446 34.8791 73.3183 35.1871 73.465 35.4618C73.6026 35.7104 73.8053 35.9151 74.0507 36.0524C74.5673 36.3324 75.1872 36.3324 75.7038 36.0524H75.7071H75.7077ZM78.6743 32.3884H79.2705L81.4553 35.6698V32.3884H82.0877V36.7411H81.4862L79.3014 33.4597V36.7411H78.6743V32.3884Z" fill="#4D4D4F"/>
</g>
<defs>
<clipPath id="clip0_1249_14810">
<rect width="102" height="36" fill="white" transform="translate(0 0.842285)"/>
</clipPath>
</defs>
</svg>
