<svg width="45" height="45" viewBox="0 0 45 45" xmlns="http://www.w3.org/2000/svg">
    <g fill="none" fill-rule="evenodd">
        <circle fill="#0570AE" cx="22.426" cy="22.426" r="22.426"/>
        <path d="M16.054 16.326c1.283 0 2.087-.848 2.075-1.909-.01-1.082-.792-1.908-2.053-1.908-1.25 0-2.076.826-2.076 1.908 0 1.06.792 1.909 2.031 1.909h.023zm7.544 12.567V22.72c0-.335.034-.659.123-.904.268-.659.87-1.34 1.886-1.34 1.328 0 1.864 1.016 1.864 2.5v5.916h3.672v-6.34c0-3.392-1.808-4.977-4.23-4.977-1.904 0-2.783 1.015-3.275 1.767l-.04.061v-1.571h-3.672l.001.018v.032c.004.142.013.629.017 2.06v.299l.001.16v.518l.001.187v1.766c-.003 1.516-.008 3.479-.02 6.02h3.672zm-5.703 0v-11.06h-3.683v11.06h3.683z" fill="#FFF" fill-rule="nonzero"/>
    </g>
</svg>
