<svg width="72" height="76" viewBox="0 0 72 76" fill="none" xmlns="http://www.w3.org/2000/svg">
<ellipse cx="50.418" cy="21.7014" rx="21.5821" ry="21.7014" fill="#FFCB0A"/>
<ellipse cx="35.7313" cy="39.1706" rx="30.3582" ry="30.5261" fill="#ED1D23"/>
<ellipse cx="21.5821" cy="54.2986" rx="21.5821" ry="21.7014" fill="#25BDAD"/>
<path fill-rule="evenodd" clip-rule="evenodd" d="M5.37305 39.918C9.33811 35.3232 15.1903 32.4171 21.7181 32.4171C33.6613 32.4171 43.3432 42.145 43.3432 54.1451C43.3432 60.2326 40.8517 65.7353 36.8374 69.68C36.5009 69.6911 36.163 69.6967 35.8238 69.6967C19.2759 69.6967 5.8098 56.4388 5.37305 39.918Z" fill="#C6168D"/>
<path fill-rule="evenodd" clip-rule="evenodd" d="M33.044 8.76807C33.9498 8.6863 34.8671 8.64453 35.7941 8.64453C51.7025 8.64453 64.7577 20.9467 66.0897 36.6192C62.1558 40.7971 56.5913 43.4028 50.4226 43.4028C38.5006 43.4028 28.8359 33.6705 28.8359 21.6651C28.8359 16.8366 30.3993 12.3759 33.044 8.76807Z" fill="#EC008C"/>
</svg>
