<svg width="70" height="70" viewBox="0 0 70 70" fill="none" xmlns="http://www.w3.org/2000/svg">
<path d="M59.426 29.7797C59.426 40.714 43.3758 57.6702 37.2945 63.7022C36.0207 64.9658 33.9724 64.9656 32.6987 63.7019C26.6191 57.6695 10.5742 40.7139 10.5742 29.7797C10.5742 16.2898 21.5068 5.35022 34.9967 5.35022C48.4866 5.35022 59.426 16.2898 59.426 29.7797Z" fill="#ED1C24"/>
<path d="M34.9994 44.4492C43.1027 44.4492 49.6716 37.8802 49.6716 29.7769C49.6716 21.6737 43.1027 15.1047 34.9994 15.1047C26.8961 15.1047 20.3271 21.6737 20.3271 29.7769C20.3271 37.8802 26.8961 44.4492 34.9994 44.4492Z" fill="white"/>
<path fill-rule="evenodd" clip-rule="evenodd" d="M30.591 23.001L34.9556 27.3653L39.3178 23.0059C40.0026 22.3211 41.1104 22.3211 41.7952 23.0059C42.4799 23.6907 42.4799 24.7985 41.7952 25.4832L37.4329 29.8427L41.7998 34.2121C42.4846 34.8969 42.4846 36.0047 41.7998 36.6895C41.4586 37.033 41.0076 37.2037 40.5612 37.2037C40.1124 37.2037 39.6637 37.033 39.3225 36.6895L34.9556 32.32L30.5957 36.6827C30.2545 37.0263 29.8058 37.1969 29.357 37.1969C28.9083 37.1969 28.4596 37.0263 28.1184 36.6827C27.4336 35.9979 27.4336 34.8901 28.1184 34.2054L32.4782 29.8427L28.1137 25.4783C27.4289 24.7936 27.4289 23.6858 28.1137 23.001C28.8008 22.3162 29.9086 22.3162 30.591 23.001Z" fill="#ED1C24"/>
</svg>
