<svg width="30" height="30" viewBox="0 0 30 30" fill="none" xmlns="http://www.w3.org/2000/svg">
<circle cx="15" cy="15" r="15" fill="#F8F8F8"/>
<g clip-path="url(#clip0_2692_16197)">
<path d="M20.3274 11.1631C19.8809 10.3006 19.2202 9.56183 18.4061 9.01483C17.592 8.46784 16.6506 8.13013 15.6684 8.03276C15.2241 7.98908 14.7765 7.98908 14.3322 8.03276C13.35 8.1302 12.4086 8.4679 11.5945 9.01482C10.7803 9.56175 10.1195 10.3004 9.67283 11.1628C9.11079 12.2632 8.8937 13.502 9.0489 14.723C9.20409 15.9441 9.72464 17.0929 10.545 18.0246L14.5452 22.7894C14.6005 22.8553 14.6699 22.9083 14.7486 22.9447C14.8272 22.9811 14.9131 23 15.0001 23C15.0871 23 15.173 22.9811 15.2517 22.9447C15.3304 22.9083 15.3998 22.8553 15.455 22.7894L19.4553 18.0246C20.2756 17.0929 20.7961 15.9442 20.9513 14.7232C21.1065 13.5022 20.8895 12.2635 20.3274 11.1631ZM15.0001 16.0766C14.5342 16.0766 14.0788 15.9413 13.6915 15.6877C13.3041 15.4341 13.0022 15.0737 12.8239 14.652C12.6456 14.2303 12.599 13.7663 12.6898 13.3187C12.7807 12.871 13.0051 12.4598 13.3345 12.1371C13.6639 11.8143 14.0837 11.5945 14.5406 11.5055C14.9975 11.4164 15.4711 11.4621 15.9016 11.6368C16.332 11.8115 16.6999 12.1073 16.9587 12.4868C17.2175 12.8663 17.3557 13.3124 17.3557 13.7689C17.3549 14.3807 17.1065 14.9673 16.6649 15.3999C16.2233 15.8325 15.6246 16.0759 15.0001 16.0766Z" fill="#4D4D4F"/>
</g>
<defs>
<clipPath id="clip0_2692_16197">
<rect width="16" height="16" fill="white" transform="translate(7 7)"/>
</clipPath>
</defs>
</svg>
