<svg width="20" height="20" viewBox="0 0 20 20" fill="none" xmlns="http://www.w3.org/2000/svg">
<path d="M10 6.25C7.9325 6.25 6.25 7.9325 6.25 10C6.25 12.0675 7.9325 13.75 10 13.75C12.0675 13.75 13.75 12.0675 13.75 10C13.75 7.9325 12.0675 6.25 10 6.25ZM10 12.5C8.62125 12.5 7.5 11.3787 7.5 10C7.5 8.62125 8.62125 7.5 10 7.5C11.3787 7.5 12.5 8.62125 12.5 10C12.5 11.3787 11.3787 12.5 10 12.5Z" fill="#4D4D4F"/>
<path d="M19.375 9.375H17.4688C17.1663 5.7375 14.2625 2.83375 10.625 2.53125V0.625C10.625 0.28 10.345 0 10 0C9.655 0 9.375 0.28 9.375 0.625V2.53125C5.7375 2.83375 2.83375 5.73875 2.53125 9.375H0.625C0.28 9.375 0 9.655 0 10C0 10.345 0.28 10.625 0.625 10.625H2.53125C2.83375 14.2625 5.7375 17.1663 9.375 17.4688V19.375C9.375 19.72 9.655 20 10 20C10.345 20 10.625 19.72 10.625 19.375V17.4688C14.2625 17.1663 17.1663 14.2625 17.4688 10.625H19.375C19.72 10.625 20 10.3462 20 10C20 9.65625 19.72 9.375 19.375 9.375ZM10 16.25C6.55375 16.25 3.75 13.4462 3.75 10C3.75 6.55375 6.55375 3.75 10 3.75C13.4462 3.75 16.25 6.55375 16.25 10C16.25 13.4462 13.4462 16.25 10 16.25Z" fill="#4D4D4F"/>
</svg>
