<svg width="70" height="70" viewBox="0 0 70 70" fill="none" xmlns="http://www.w3.org/2000/svg">
<path d="M59.426 29.7797C59.426 40.714 43.3758 57.6702 37.2945 63.7022C36.0207 64.9658 33.9724 64.9656 32.6987 63.7019C26.6191 57.6695 10.5742 40.7139 10.5742 29.7797C10.5742 16.2898 21.5068 5.35022 34.9967 5.35022C48.4866 5.35022 59.426 16.2898 59.426 29.7797Z" fill="#76AC4E"/>
<path d="M34.9994 44.4492C43.1027 44.4492 49.6716 37.8802 49.6716 29.7769C49.6716 21.6737 43.1027 15.1047 34.9994 15.1047C26.8961 15.1047 20.3271 21.6737 20.3271 29.7769C20.3271 37.8802 26.8961 44.4492 34.9994 44.4492Z" fill="white"/>
<path d="M30.5455 36.0534L27.0186 32.6088C26.1529 31.7635 26.1365 30.3763 26.9818 29.5106C27.8277 28.6446 29.2162 28.6299 30.0797 29.4741L32.0064 31.3558L39.0371 23.8521C39.8644 22.9695 41.2502 22.9242 42.1334 23.7512C43.0166 24.5785 43.0616 25.9651 42.2343 26.848L33.6746 35.9841C32.8334 36.8821 31.4205 36.9092 30.5455 36.0534Z" fill="#76AC4E"/>
</svg>
