<svg width="42" height="40" viewBox="0 0 42 40" fill="none" xmlns="http://www.w3.org/2000/svg">
<path d="M41.9817 27.8404C41.9817 26.1857 40.6404 24.8442 38.9858 24.8442C37.3313 24.8442 35.99 26.1857 35.99 27.8404V36.8276C35.99 38.4823 37.3313 39.8238 38.9858 39.8238C40.6404 39.8238 41.9817 38.4823 41.9817 36.8276V27.8404Z" fill="#EC008C"/>
<path d="M23.968 15.8575C23.968 14.2028 22.6267 12.8613 20.9722 12.8613C19.3176 12.8613 17.9763 14.2028 17.9763 15.8575V36.828C17.9763 38.4828 19.3176 39.8242 20.9722 39.8242C22.6267 39.8242 23.968 38.4828 23.968 36.828V15.8575Z" fill="#EC008C"/>
<path d="M11.9841 18.8511C10.3297 18.8511 8.98787 20.1922 8.98787 21.8473V27.8389H8.9585V29.3702C8.9585 30.1897 8.29423 30.8533 7.47544 30.8533C6.65664 30.8533 5.99238 30.189 5.99238 29.3702V27.8389C5.99238 26.1846 4.65126 24.8427 2.99619 24.8427C1.34182 24.8427 0 26.1839 0 27.8389V36.8268C0 38.4812 1.34112 39.823 2.99619 39.823C4.65056 39.823 5.99238 38.4819 5.99238 36.8268V35.3053C5.99238 34.4858 6.65664 33.8222 7.47544 33.8222C8.29423 33.8222 8.9585 34.4865 8.9585 35.3053V36.8268H8.98787C8.98787 38.4812 10.329 39.823 11.9841 39.823C13.6384 39.823 14.9802 38.4819 14.9802 36.8268V21.8473C14.9802 20.1929 13.6391 18.8511 11.9841 18.8511Z" fill="#EC008C"/>
<path d="M38.9947 15.8211C38.1542 15.8211 37.3941 16.1665 36.8487 16.7238H36.8362C36.4425 17.2273 35.8314 17.5524 35.1433 17.5524C33.9784 17.5524 33.0331 16.6252 32.9974 15.4694H32.9939V8.40372C32.9939 8.37925 32.9925 8.35548 32.9918 8.3317H32.9939C32.9939 7.50452 33.6645 6.83396 34.4916 6.83396C35.3188 6.83396 35.9894 7.50452 35.9894 8.3317V9.79448C35.9894 11.4489 37.3305 12.7907 38.9856 12.7907C40.6399 12.7907 41.9818 11.4496 41.9818 9.79448V8.3317C41.9818 4.19508 38.6283 0.842285 34.4923 0.842285C30.3564 0.842285 27.0029 4.19578 27.0029 8.3317H27.005C27.005 8.35548 27.0029 8.37925 27.0029 8.40372V36.8273C27.0029 38.4817 28.344 39.8235 29.9991 39.8235C31.6535 39.8235 32.9953 38.4824 32.9953 36.8273V22.233C32.9953 21.0464 33.9574 20.0843 35.144 20.0843C35.7321 20.0843 36.2628 20.3213 36.6509 20.7045C37.2018 21.3912 38.0472 21.831 38.9954 21.831C40.6546 21.831 41.9999 20.4857 41.9999 18.8264C41.9999 17.1671 40.6546 15.8218 38.9954 15.8218L38.9947 15.8211Z" fill="#EC008C"/>
<path d="M0.182109 1.86525C0.0618416 1.74499 0.00170898 1.60444 0.00170898 1.44362C0.00170898 1.2828 0.0618416 1.13666 0.182109 1.01919C0.302376 0.90102 0.442921 0.842285 0.603744 0.842285C0.764566 0.842285 0.910704 0.901719 1.02817 1.01919C1.14634 1.13736 1.20508 1.2786 1.20508 1.44362C1.20508 1.60864 1.14564 1.74429 1.02817 1.86525C0.910004 1.98552 0.768761 2.04566 0.603744 2.04566C0.438726 2.04566 0.303075 1.98552 0.182109 1.86525ZM0.0723305 2.39946H1.13446V6.22284H0.0723305V2.39946Z" fill="#4D4D4F"/>
<path d="M1.55853 4.14069C1.55853 3.78199 1.63964 3.46314 1.80256 3.18485C1.96548 2.90656 2.18993 2.687 2.47521 2.52618C2.7605 2.36606 3.08774 2.28564 3.45553 2.28564C3.82332 2.28564 4.14217 2.36466 4.42536 2.52268C4.70854 2.68071 4.9323 2.89887 5.09801 3.17786C5.26303 3.45615 5.34554 3.77709 5.34554 4.14069V6.22229H4.28341V4.14069C4.28341 3.90505 4.2044 3.70857 4.04637 3.55334C3.88835 3.39741 3.69117 3.3198 3.45483 3.3198C3.21849 3.3198 3.01432 3.39741 2.85629 3.55334C2.69827 3.70927 2.61925 3.90505 2.61925 4.14069V6.22229H1.55713V4.14069H1.55853Z" fill="#4D4D4F"/>
<path d="M6.53935 6.06655C6.24917 5.88755 6.01912 5.64422 5.84921 5.33726C5.6793 5.0303 5.59399 4.68837 5.59399 4.31079C5.59399 4.0325 5.64224 3.77029 5.73873 3.52486C5.83523 3.27943 5.97088 3.06337 6.14568 2.87668C6.32049 2.68998 6.52327 2.54524 6.75471 2.44106C6.98616 2.33757 7.23648 2.28513 7.50498 2.28513C7.72664 2.28513 7.93221 2.32149 8.121 2.39491C8.30979 2.46833 8.47481 2.57111 8.61675 2.70257V1.19434H9.67888V6.22108H8.61675V5.90923C8.47481 6.04627 8.30979 6.15116 8.121 6.22458C7.93221 6.298 7.72664 6.33436 7.50498 6.33436C7.15117 6.33436 6.82883 6.24485 6.53865 6.06515L6.53935 6.06655ZM8.33776 5.0226C8.52446 4.83591 8.61745 4.59887 8.61745 4.31079C8.61745 4.1269 8.5748 3.95908 8.49019 3.80805C8.40489 3.65701 8.28952 3.53815 8.14338 3.45074C7.99724 3.36334 7.82942 3.31999 7.64063 3.31999C7.45184 3.31999 7.28333 3.36334 7.13439 3.45074C6.98546 3.53815 6.86869 3.65701 6.78408 3.80805C6.69877 3.95908 6.65682 4.1269 6.65682 4.31079C6.65682 4.59887 6.74982 4.83591 6.93651 5.0226C7.1232 5.2093 7.35745 5.3023 7.64133 5.3023C7.92522 5.3023 8.15247 5.2093 8.33846 5.0226H8.33776Z" fill="#4D4D4F"/>
<path d="M11.1912 6.17684C10.9436 6.07056 10.7276 5.92442 10.543 5.73773C10.3591 5.55103 10.2164 5.33567 10.1143 5.08954C10.013 4.84411 9.96191 4.5847 9.96191 4.3106C9.96191 3.93792 10.0507 3.59879 10.2276 3.29463C10.4045 2.99046 10.6465 2.74574 10.9534 2.56184C11.2604 2.37794 11.6121 2.28564 12.0086 2.28564C12.405 2.28564 12.7567 2.37794 13.0637 2.56184C13.3706 2.74574 13.6126 2.99046 13.7895 3.29463C13.9664 3.59879 14.0552 3.93792 14.0552 4.3106C14.0552 4.5847 14.0041 4.84411 13.9028 5.08954C13.8014 5.33497 13.6587 5.55103 13.4741 5.73773C13.2902 5.92442 13.0742 6.07056 12.8259 6.17684C12.5777 6.28312 12.3057 6.33626 12.0079 6.33626C11.71 6.33626 11.438 6.28312 11.1898 6.17684H11.1912ZM12.5155 5.16786C12.6644 5.07836 12.7812 4.95809 12.8658 4.80706C12.9511 4.65602 12.9931 4.49101 12.9931 4.3113C12.9931 4.1316 12.9504 3.96099 12.8658 3.81206C12.7812 3.66312 12.6637 3.54425 12.5155 3.45475C12.3666 3.36525 12.198 3.3205 12.0093 3.3205C11.8205 3.3205 11.6519 3.36525 11.503 3.45475C11.3541 3.54425 11.2373 3.66382 11.1527 3.81206C11.0674 3.96099 11.0254 4.12741 11.0254 4.3113C11.0254 4.4952 11.0688 4.65602 11.1562 4.80706C11.2436 4.95809 11.3618 5.07836 11.51 5.16786C11.6589 5.25736 11.8254 5.30211 12.0093 5.30211C12.1931 5.30211 12.3666 5.25736 12.5155 5.16786Z" fill="#4D4D4F"/>
<path d="M15.0209 6.18313C14.7636 6.08175 14.558 5.93561 14.4049 5.74402C14.2517 5.55313 14.1748 5.32308 14.1748 5.05388H15.216C15.2257 5.18604 15.2915 5.29022 15.4145 5.36574C15.5369 5.44125 15.6767 5.47901 15.832 5.47901C16.0208 5.47901 16.155 5.44615 16.2354 5.37972C16.3158 5.3133 16.3557 5.23358 16.3557 5.13919C16.3557 5.04479 16.3228 4.97137 16.2564 4.91963C16.19 4.86789 16.1152 4.83712 16.0299 4.82733L15.3642 4.74203C15.0244 4.69937 14.7517 4.57911 14.5461 4.38123C14.3405 4.18335 14.2384 3.92323 14.2384 3.60229C14.2384 3.33309 14.3049 3.10094 14.437 2.90516C14.5692 2.70938 14.7496 2.55694 14.9789 2.44856C15.2076 2.34018 15.4684 2.28564 15.7614 2.28564C16.0543 2.28564 16.3277 2.33529 16.5683 2.43458C16.8088 2.53387 17.0011 2.67441 17.1451 2.85621C17.2892 3.03801 17.3633 3.25617 17.3682 3.51139H16.32C16.306 3.39811 16.2466 3.30721 16.1431 3.23869C16.0389 3.17017 15.9285 3.1359 15.8103 3.1359C15.6642 3.1359 15.5474 3.16877 15.46 3.23519C15.3726 3.30162 15.3292 3.38832 15.3292 3.4974C15.3292 3.60648 15.3726 3.6862 15.46 3.73794C15.5474 3.78968 15.6502 3.82324 15.7676 3.83723L16.1781 3.88687C16.5697 3.93442 16.878 4.05679 17.1025 4.25537C17.3262 4.45325 17.4388 4.70357 17.4388 5.00564C17.4388 5.27484 17.3738 5.50838 17.2437 5.70626C17.1137 5.90414 16.9312 6.05937 16.6948 6.16985C16.4585 6.28102 16.1823 6.33626 15.8662 6.33626C15.5502 6.33626 15.2775 6.28522 15.0202 6.18383L15.0209 6.18313Z" fill="#4D4D4F"/>
<path d="M20.6604 2.56254C20.9674 2.74644 21.2093 2.99116 21.3862 3.29533C21.5631 3.59949 21.6519 3.93862 21.6519 4.3113V6.22299H20.5898V5.93281C20.4667 6.05587 20.315 6.15377 20.1332 6.22649C19.9514 6.2999 19.7542 6.33626 19.5423 6.33626C19.264 6.33626 19.0039 6.28312 18.7634 6.17684C18.5229 6.07056 18.3124 5.92442 18.1334 5.73773C17.9537 5.55103 17.8138 5.33567 17.7118 5.08954C17.6104 4.84411 17.5593 4.5847 17.5593 4.3106C17.5593 4.03651 17.6097 3.7715 17.7118 3.52817C17.8131 3.28484 17.9558 3.07018 18.1404 2.88418C18.3243 2.69749 18.5403 2.55135 18.7886 2.44507C19.0361 2.33879 19.3088 2.28564 19.6067 2.28564C20.0031 2.28564 20.3548 2.37794 20.6618 2.56184L20.6604 2.56254ZM20.1115 5.16786C20.2604 5.07836 20.3772 4.95809 20.4618 4.80706C20.5471 4.65602 20.5891 4.491 20.5891 4.3113C20.5891 4.1316 20.5464 3.96099 20.4618 3.81206C20.3765 3.66312 20.2597 3.54425 20.1115 3.45475C19.9626 3.36525 19.7941 3.3205 19.6053 3.3205C19.4165 3.3205 19.248 3.36525 19.099 3.45475C18.9501 3.54425 18.8333 3.66382 18.7487 3.81206C18.6634 3.96099 18.6215 4.12741 18.6215 4.3113C18.6215 4.4952 18.6641 4.65602 18.7487 4.80706C18.834 4.95809 18.9508 5.07836 19.099 5.16786C19.248 5.25736 19.4165 5.30211 19.6053 5.30211C19.7941 5.30211 19.9626 5.25736 20.1115 5.16786Z" fill="#4D4D4F"/>
<path d="M22.7427 6.12124C22.4875 5.9772 22.2868 5.78001 22.1407 5.53039C21.9946 5.28007 21.9211 4.99688 21.9211 4.68083V1.48047H22.9833V2.40065H23.9678V3.4418H22.9833V4.68083C22.9833 4.85564 23.0434 5.00317 23.1637 5.12344C23.2839 5.24371 23.4315 5.30384 23.6063 5.30384H23.9671V6.3373H23.6063C23.2853 6.3373 22.9973 6.26528 22.7427 6.12124Z" fill="#4D4D4F"/>
</svg>
