<svg width="20" height="21" viewBox="0 0 20 21" fill="none" xmlns="http://www.w3.org/2000/svg">
<path fill-rule="evenodd" clip-rule="evenodd" d="M9.42366 2.16663C11.462 2.16663 13.1203 3.82496 13.1203 5.86329V6.63996C13.1203 6.98496 12.8403 7.26496 12.4953 7.26496C12.1503 7.26496 11.8703 6.98496 11.8703 6.63996V5.86329C11.8703 4.51329 10.7728 3.41663 9.42366 3.41663H5.36116C4.01366 3.41663 2.91699 4.51329 2.91699 5.86329V15.1375C2.91699 16.4866 4.01366 17.5833 5.36116 17.5833H9.43283C10.7762 17.5833 11.8703 16.49 11.8703 15.1466V14.3608C11.8703 14.0158 12.1503 13.7358 12.4953 13.7358C12.8403 13.7358 13.1203 14.0158 13.1203 14.3608V15.1466C13.1203 17.18 11.4653 18.8333 9.43283 18.8333H5.36116C3.32449 18.8333 1.66699 17.1758 1.66699 15.1375V5.86329C1.66699 3.82496 3.32449 2.16663 5.36116 2.16663H9.42366ZM16.1571 7.62829L18.5971 10.0575C18.6188 10.0791 18.6383 10.1015 18.6562 10.1253L18.5971 10.0575C18.6266 10.0866 18.6529 10.1184 18.6756 10.1523C18.6857 10.1677 18.6953 10.1836 18.7043 10.1999C18.7116 10.2127 18.7183 10.226 18.7245 10.2395C18.7297 10.2515 18.7348 10.2634 18.7395 10.2756C18.7458 10.2914 18.7513 10.3077 18.7561 10.3242C18.7597 10.3372 18.7631 10.3502 18.766 10.3633C18.7697 10.3792 18.7726 10.3952 18.7749 10.4114C18.7763 10.4219 18.7775 10.4328 18.7785 10.4439C18.7804 10.4629 18.7812 10.4814 18.7812 10.5L18.777 10.5516L18.7753 10.5847C18.7751 10.5861 18.7749 10.5876 18.7747 10.589L18.7812 10.5C18.7812 10.5462 18.7761 10.592 18.7662 10.6366C18.7631 10.6497 18.7597 10.6627 18.756 10.6755C18.7513 10.6922 18.7458 10.7085 18.7396 10.7245C18.7348 10.7365 18.7297 10.7484 18.7243 10.7602C18.7183 10.7739 18.7116 10.7873 18.7044 10.8003C18.6953 10.8164 18.6857 10.8323 18.6753 10.8477C18.6695 10.8568 18.6631 10.8658 18.6564 10.8747C18.6366 10.9008 18.6149 10.9253 18.5915 10.9481L16.1571 13.3725C16.0354 13.4941 15.8754 13.555 15.7162 13.555C15.5562 13.555 15.3954 13.4941 15.2737 13.3708C15.0304 13.1258 15.0312 12.7308 15.2754 12.4875L16.642 11.125H8.12183C7.77683 11.125 7.49683 10.845 7.49683 10.5C7.49683 10.155 7.77683 9.87496 8.12183 9.87496H16.6437L15.2754 8.51329C15.0312 8.26996 15.0296 7.87496 15.2737 7.62996C15.5171 7.38496 15.9121 7.38496 16.1571 7.62829Z" fill="#4D4D4F"/>
</svg>
