<svg width="36" height="36" viewBox="0 0 36 36" xmlns="http://www.w3.org/2000/svg">
    <g fill="none" fill-rule="evenodd">
        <circle cx="18" cy="18" r="18"/>
        <path d="M24.857 10C26.593 10 28 11.46 28 13.26v9.48c0 1.8-1.407 3.26-3.143 3.26H11.143C9.407 26 8 24.54 8 22.74v-9.48C8 11.46 9.407 10 11.143 10zm1.429 3.235-5.758 5.673a3.617 3.617 0 0 1-5.002.108l-.112-.105-5.7-5.607v9.437c0 .77.567 1.403 1.291 1.474l.138.007h13.714c.79 0 1.429-.663 1.429-1.481V13.235zm-1.429-1.457H11.143c-.147 0-.29.023-.423.066l5.874 5.777a1.947 1.947 0 0 0 2.666.08l.088-.082 5.877-5.792a1.383 1.383 0 0 0-.368-.05z" fill="#FFF" fill-rule="nonzero"/>
    </g>
</svg>
