<svg width="20" height="21" viewBox="0 0 20 21" fill="none" xmlns="http://www.w3.org/2000/svg">
<path d="M4.34596 5.80161C4.81988 4.86721 5.52109 4.06694 6.38514 3.47438C7.24918 2.88182 8.24832 2.51597 9.29071 2.41048C9.76225 2.36317 10.2374 2.36317 10.7089 2.41048C11.7513 2.51604 12.7504 2.88188 13.6145 3.47437C14.4785 4.06686 15.1798 4.86701 15.654 5.8013C16.2505 6.99339 16.4809 8.33534 16.3162 9.65813C16.1514 10.9809 15.599 12.2254 14.7283 13.2348L10.4828 18.3965C10.4241 18.4679 10.3504 18.5253 10.267 18.5648C10.1835 18.6042 10.0923 18.6247 9.99996 18.6247C9.90763 18.6247 9.81645 18.6042 9.73296 18.5648C9.64948 18.5253 9.57578 18.4679 9.51715 18.3965L5.27158 13.2348C4.40096 12.2254 3.84849 10.981 3.68378 9.65829C3.51906 8.33555 3.74946 6.99365 4.34596 5.80161ZM9.99996 11.1245C10.4944 11.1245 10.9778 10.9779 11.3889 10.7032C11.8 10.4285 12.1204 10.038 12.3097 9.58119C12.4989 9.12438 12.5484 8.62171 12.4519 8.13676C12.3555 7.65181 12.1174 7.20635 11.7677 6.85672C11.4181 6.50709 10.9726 6.26898 10.4877 6.17252C10.0027 6.07606 9.50007 6.12557 9.04325 6.31479C8.58644 6.504 8.19599 6.82444 7.92128 7.23556C7.64658 7.64668 7.49996 8.13003 7.49996 8.62448C7.50074 9.28729 7.76438 9.92272 8.23305 10.3914C8.70172 10.8601 9.33716 11.1237 9.99996 11.1245Z" fill="#4D4D4F"/>
</svg>
