<svg width="20" height="20" viewBox="0 0 20 20" fill="none" xmlns="http://www.w3.org/2000/svg">
<path d="M15.6538 5.3021C15.1799 4.3677 14.4787 3.56743 13.6146 2.97487C12.7506 2.38231 11.7514 2.01646 10.709 1.91097C10.2375 1.86366 9.7624 1.86366 9.29086 1.91097C8.24849 2.01653 7.24937 2.38237 6.3853 2.97486C5.52122 3.56735 4.81991 4.3675 4.3458 5.30178C3.74929 6.49388 3.51889 7.83583 3.6836 9.15862C3.84832 10.4814 4.40078 11.7259 5.27142 12.7353L9.51698 17.897C9.57561 17.9684 9.64932 18.0258 9.7328 18.0652C9.81628 18.1047 9.90747 18.1251 9.9998 18.1251C10.0921 18.1251 10.1833 18.1047 10.2668 18.0652C10.3503 18.0258 10.424 17.9684 10.4826 17.897L14.7282 12.7353C15.5988 11.7259 16.1513 10.4815 16.316 9.15878C16.4807 7.83604 16.2503 6.49414 15.6538 5.3021ZM9.9998 10.625C9.50534 10.625 9.02199 10.4783 8.61087 10.2036C8.19975 9.92894 7.87932 9.5385 7.6901 9.08168C7.50088 8.62487 7.45137 8.1222 7.54783 7.63725C7.6443 7.15229 7.8824 6.70684 8.23203 6.35721C8.58166 6.00757 9.02712 5.76947 9.51207 5.67301C9.99702 5.57655 10.4997 5.62605 10.9565 5.81527C11.4133 6.00449 11.8038 6.32492 12.0785 6.73605C12.3532 7.14717 12.4998 7.63052 12.4998 8.12497C12.499 8.78777 12.2354 9.42321 11.7667 9.89188C11.298 10.3606 10.6626 10.6242 9.9998 10.625Z" fill="#AAAAAA"/>
</svg>
