<svg width="20" height="20" viewBox="0 0 20 20" fill="none" xmlns="http://www.w3.org/2000/svg">
<mask id="mask0_1542_22550" style="mask-type:alpha" maskUnits="userSpaceOnUse" x="0" y="0" width="20" height="20">
<rect width="20" height="20" fill="#D9D9D9"/>
</mask>
<g mask="url(#mask0_1542_22550)">
</g>
<g clip-path="url(#clip0_1542_22550)">
<path d="M0.0211668 11.0118C0.0211668 10.7219 0.0156399 10.4787 0 10.2618H0.548456L0.574209 10.6342H0.589496C0.713557 10.4373 0.941336 10.2045 1.36538 10.2045C1.6964 10.2045 1.95487 10.3915 2.06341 10.6704H2.074C2.16231 10.5306 2.26556 10.4276 2.38421 10.3549C2.52379 10.2567 2.68431 10.2045 2.89151 10.2045C3.3099 10.2045 3.73359 10.4891 3.73359 11.2964V12.7803H3.11317V11.389C3.11317 10.9703 2.96853 10.7219 2.66384 10.7219C2.44618 10.7219 2.28555 10.8773 2.21875 11.0584C2.20323 11.1203 2.18759 11.1978 2.18759 11.2699V12.7803H1.56682V11.3219C1.56682 10.9703 1.42735 10.7219 1.13266 10.7219C0.894651 10.7219 0.734606 10.9081 0.677691 11.0836C0.651938 11.1462 0.641002 11.2184 0.641002 11.2908V12.7803H0.0211668V11.0118Z" fill="#003A70"/>
<path d="M5.53065 11.5497C5.08062 11.5392 4.65164 11.6371 4.65164 12.0201C4.65164 12.268 4.81204 12.3822 5.01371 12.3822C5.26665 12.3822 5.45328 12.2167 5.5096 12.0357C5.52524 11.9893 5.53065 11.9373 5.53065 11.8962V11.5497ZM6.15107 12.1753C6.15107 12.4028 6.16154 12.6243 6.18765 12.7802H5.61344L5.57216 12.5008H5.55605C5.40118 12.6974 5.13754 12.8369 4.81204 12.8369C4.30498 12.8369 4.02075 12.4705 4.02075 12.087C4.02075 11.451 4.58402 11.1306 5.51501 11.1357V11.0943C5.51501 10.9287 5.44763 10.6546 5.00336 10.6546C4.75489 10.6546 4.49595 10.7326 4.32567 10.8411L4.20138 10.4275C4.38753 10.3134 4.71361 10.2045 5.11178 10.2045C5.91859 10.2045 6.15107 10.7169 6.15107 11.2649V12.1753Z" fill="#003A70"/>
<path d="M6.59113 11.0118C6.59113 10.7219 6.58536 10.4787 6.57031 10.2618H7.12829L7.15946 10.6392H7.17474C7.28328 10.4431 7.55774 10.2045 7.97626 10.2045C8.41629 10.2045 8.87126 10.4891 8.87126 11.2855V12.7803H8.23497V11.3582C8.23497 10.9961 8.10044 10.7219 7.75413 10.7219C7.50071 10.7219 7.32526 10.9027 7.25765 11.0942C7.23742 11.1514 7.23189 11.2291 7.23189 11.3007V12.7803H6.59113V11.0118Z" fill="#003A70"/>
<path d="M10.9929 11.3113C10.9929 11.2599 10.9876 11.1978 10.9775 11.146C10.9204 10.8978 10.719 10.6962 10.4292 10.6962C10.0207 10.6962 9.79329 11.0584 9.79329 11.5289C9.79329 11.9892 10.0207 12.3257 10.4243 12.3257C10.6825 12.3257 10.9103 12.1497 10.9722 11.8756C10.9876 11.8186 10.9929 11.756 10.9929 11.6888V11.3113ZM11.6288 9.24984V12.0716C11.6288 12.3301 11.6394 12.6096 11.6495 12.78H11.0807L11.0553 12.3822H11.0447C10.8948 12.661 10.5889 12.8369 10.2223 12.8369C9.62254 12.8369 9.14664 12.3257 9.14664 11.5497C9.14159 10.7065 9.66923 10.2045 10.2742 10.2045C10.6204 10.2045 10.8689 10.3495 10.9825 10.5363H10.9929V9.24984H11.6288Z" fill="#003A70"/>
<path d="M12.0785 10.262H12.7207V12.7803H12.0785V10.262Z" fill="#003A70"/>
<path d="M13.1697 11.074C13.1697 10.7327 13.1646 10.4893 13.1489 10.2621H13.7024L13.7229 10.7426H13.7439C13.8679 10.3858 14.1628 10.2621 14.4318 10.2621C14.4937 10.2621 14.5299 10.2514 14.5817 10.2621V10.8208C14.5299 10.8102 14.4731 10.7999 14.3952 10.7999C14.0904 10.7999 13.8835 10.9963 13.8269 11.2806C13.8165 11.3374 13.8063 11.4051 13.8063 11.4778V12.7803H13.1697V11.074Z" fill="#003A70"/>
<path d="M14.8765 10.262H15.5174V12.7803H14.8765V10.262Z" fill="#003A70"/>
<path fill-rule="evenodd" clip-rule="evenodd" d="M19.4744 7.60165C19.1579 7.24123 18.8221 7.40398 18.554 7.53686C18.4417 7.59236 18.034 7.86377 17.6299 8.05298C17.3421 8.18786 16.9288 8.14705 16.7022 7.86718C16.6885 7.85024 16.3222 7.40645 16.2834 7.35177C16.0455 7.05343 15.4437 6.80601 14.7248 7.21747C14.3395 7.44043 13.4317 7.96137 13.0923 8.15516C12.8861 8.26041 12.4072 8.30639 12.1368 7.94103C12.1323 7.93503 11.7769 7.49158 11.7627 7.47453C11.7522 7.46254 11.5227 7.12211 11.0111 7.11164C10.9358 7.10976 10.56 7.10752 10.1927 7.31602C9.70577 7.5946 8.5724 8.24254 8.5724 8.24254C8.57158 8.24254 8.57158 8.24312 8.57158 8.24312C8.10567 8.50983 7.74231 8.71691 7.74231 8.71691L8.17129 9.2442C8.37214 9.49314 8.8244 9.68611 9.21693 9.4608C9.21693 9.4608 10.6669 8.62119 10.6719 8.61884C11.2992 8.27464 11.7832 8.27464 12.1039 8.40282C12.3923 8.52429 12.643 8.82768 12.643 8.82768C12.643 8.82768 12.971 9.23408 13.0286 9.30511C13.2151 9.53465 13.5236 9.44458 13.5236 9.44458C13.5236 9.44458 13.6375 9.43141 13.8106 9.3291C13.8106 9.3291 15.2147 8.515 15.2155 8.51477C15.6616 8.25312 16.0709 8.20432 16.2796 8.22337C16.9342 8.28299 17.1378 8.74031 17.4219 9.05922C17.589 9.24725 17.7396 9.35356 17.9702 9.34815C18.122 9.34474 18.2931 9.25313 18.3184 9.23667L20 8.26594C20 8.26594 19.8277 8.00629 19.4744 7.60165Z" fill="#FFB700"/>
</g>
<defs>
<clipPath id="clip0_1542_22550">
<rect width="20" height="5.83671" fill="white" transform="translate(0 7)"/>
</clipPath>
</defs>
</svg>
