<svg width="15" height="13" viewBox="0 0 15 13" fill="none" xmlns="http://www.w3.org/2000/svg">
<path d="M8.63556 11.3154H5.90546C5.40847 11.3154 5.40847 10.5645 5.90546 10.5645H8.63556C9.13255 10.5645 9.13255 11.3154 8.63556 11.3154Z" fill="#4D4D4F"/>
<path d="M10.6097 12.8184H3.93085C3.43386 12.8184 3.43386 12.0674 3.93085 12.0674H10.6097C11.1067 12.0674 11.1067 12.8184 10.6097 12.8184Z" fill="#4D4D4F"/>
<path d="M6.89487 0.179688C5.23969 0.269306 3.74922 0.938356 2.60254 1.97172L4.0336 3.40278C4.7961 2.7399 5.77289 2.29064 6.89487 2.20753V0.179688Z" fill="#4D4D4F"/>
<path d="M2.30913 6.795C2.3889 5.70106 2.81997 4.73178 3.50338 3.93439L2.06898 2.5C1.02861 3.65553 0.367067 5.11345 0.279785 6.795H2.30913Z" fill="#4D4D4F"/>
<path d="M2.30579 7.5459H0.279785C0.358222 9.02251 0.885585 10.38 1.73871 11.4754C1.86905 11.6426 2.11704 11.6608 2.27876 11.5237L3.24804 10.7026C3.40558 10.5691 3.4211 10.3391 3.29644 10.1744C2.73519 9.43289 2.37906 8.52886 2.30579 7.5459Z" fill="#4D4D4F"/>
<path d="M13.2669 3.54785C12.9281 3.9639 12.4252 4.58088 11.8632 5.26929C12.1083 5.85607 12.252 6.49541 12.252 7.1713C12.252 8.30697 11.872 9.35385 11.2322 10.1918C11.1113 10.35 11.1455 10.5778 11.2978 10.706L12.2627 11.5182C12.4264 11.6561 12.6771 11.6372 12.8084 11.4681C13.7306 10.2814 14.2797 8.79044 14.2797 7.17114C14.2799 5.82402 13.9027 4.59323 13.2669 3.54785Z" fill="#4D4D4F"/>
<path d="M12.8197 2.90529C11.5923 1.32136 9.71513 0.291335 7.6459 0.179688V2.20887C8.93276 2.307 10.2547 2.90679 11.1932 4.10704C11.1932 4.10704 6.72234 7.42576 6.5633 7.58497C6.19765 7.95062 6.19765 8.54357 6.5633 8.90921C6.92895 9.27486 7.5219 9.27486 7.88755 8.90921C8.12453 8.67207 12.8197 2.90529 12.8197 2.90529ZM12.801 2.92832C12.8012 2.92832 12.8012 2.92815 12.8012 2.92815L12.801 2.92832Z" fill="#4D4D4F"/>
</svg>
