<svg width="40" height="14" viewBox="0 0 40 14" fill="none" xmlns="http://www.w3.org/2000/svg">
<g clip-path="url(#clip0_1541_22455)">
<path fill-rule="evenodd" clip-rule="evenodd" d="M11.0082 11.2807C9.77645 12.4515 8.13598 13.0947 6.43673 13.0729C4.72904 13.0987 3.07901 12.4555 1.83933 11.2807C1.25604 10.7151 0.792297 10.0381 0.475605 9.28982C0.158914 8.54158 -0.00427246 7.73736 -0.00427246 6.92486C-0.00427246 6.11235 0.158914 5.30813 0.475605 4.55989C0.792297 3.81165 1.25604 3.13463 1.83933 2.56901C3.07744 1.38728 4.73059 0.739829 6.44193 0.766412C8.14117 0.744671 9.78165 1.38781 11.0134 2.55862C11.5973 3.12387 12.0616 3.80077 12.3787 4.54906C12.6958 5.29735 12.8592 6.10176 12.8592 6.91447C12.8592 7.72717 12.6958 8.53159 12.3787 9.27988C12.0616 10.0282 11.5973 10.7051 11.0134 11.2703L11.0082 11.2807ZM6.44193 2.77161C5.89953 2.76636 5.36169 2.87106 4.86087 3.07939C4.36004 3.28772 3.90662 3.59535 3.52795 3.98372C3.14928 4.3721 2.85323 4.83317 2.65764 5.33911C2.46206 5.84504 2.37101 6.38536 2.38998 6.92745C2.38998 7.4582 2.49452 7.98375 2.69763 8.47409C2.90073 8.96444 3.19843 9.40997 3.57373 9.78527C3.94902 10.1606 4.39456 10.4583 4.8849 10.6614C5.37525 10.8645 5.90079 10.969 6.43154 10.969C6.96228 10.969 7.48783 10.8645 7.97818 10.6614C8.46852 10.4583 8.91406 10.1606 9.28935 9.78527C9.66465 9.40997 9.96234 8.96444 10.1655 8.47409C10.3686 7.98375 10.4731 7.4582 10.4731 6.92745C10.492 6.38712 10.4016 5.84854 10.2073 5.344C10.013 4.83946 9.71876 4.37935 9.34232 3.99127C8.96588 3.60319 8.51494 3.29512 8.01655 3.08554C7.51816 2.87596 6.98258 2.76918 6.44193 2.77161ZM26.1822 2.21576L21.2419 13.2339L20.9614 13.182C19.5484 12.9275 19.2627 12.5742 18.603 11.1404L14.8991 3.07291H13.5069V1.11446H18.7692V3.07291H17.5121L20.4887 9.74823L23.377 3.07291H21.8186V1.11446H26.1822V2.21576ZM38.1302 11.2807C36.8826 12.4329 35.2467 13.0728 33.5484 13.0728C31.8501 13.0728 30.2142 12.4329 28.9666 11.2807C28.3833 10.7151 27.9196 10.0381 27.6029 9.28982C27.2862 8.54158 27.123 7.73736 27.123 6.92486C27.123 6.11235 27.2862 5.30813 27.6029 4.55989C27.9196 3.81165 28.3833 3.13463 28.9666 2.56901C30.2142 1.4168 31.8501 0.776941 33.5484 0.776941C35.2467 0.776941 36.8826 1.4168 38.1302 2.56901C38.7155 3.13351 39.181 3.81016 39.4989 4.55856C39.8168 5.30695 39.9807 6.11173 39.9807 6.92486C39.9807 7.73798 39.8168 8.54276 39.4989 9.29116C39.181 10.0395 38.7155 10.7162 38.1302 11.2807ZM33.5848 2.77161C33.0422 2.76639 32.5041 2.87107 32.003 3.07934C31.5019 3.28761 31.0481 3.59515 30.6691 3.98345C30.29 4.37175 29.9934 4.83276 29.7973 5.33872C29.6011 5.84468 29.5094 6.38511 29.5276 6.92745C29.5276 7.4582 29.6322 7.98375 29.8353 8.47409C30.0384 8.96444 30.3361 9.40997 30.7114 9.78527C31.0867 10.1606 31.5322 10.4583 32.0226 10.6614C32.5129 10.8645 33.0385 10.969 33.5692 10.969C34.0999 10.969 34.6255 10.8645 35.1158 10.6614C35.6062 10.4583 36.0517 10.1606 36.427 9.78527C36.8023 9.40997 37.1 8.96444 37.3031 8.47409C37.5062 7.98375 37.6108 7.4582 37.6108 6.92745C37.6304 6.38737 37.5406 5.84891 37.3469 5.34439C37.1532 4.83987 36.8595 4.37971 36.4834 3.99155C36.1074 3.60338 35.6568 3.29523 35.1587 3.08559C34.6606 2.87595 34.1252 2.76915 33.5848 2.77161Z" fill="#4B2489"/>
</g>
<defs>
<clipPath id="clip0_1541_22455">
<rect width="40" height="12.4675" fill="white" transform="translate(0 0.766602)"/>
</clipPath>
</defs>
</svg>
