<svg width="20" height="20" viewBox="0 0 20 20" fill="none" xmlns="http://www.w3.org/2000/svg">
<path d="M3.92499 2.74166C3.84729 2.66396 3.75505 2.60233 3.65353 2.56028C3.55201 2.51823 3.44321 2.49658 3.33333 2.49658C3.22344 2.49658 3.11464 2.51823 3.01312 2.56028C2.9116 2.60233 2.81936 2.66396 2.74166 2.74166C2.58474 2.89858 2.49658 3.11141 2.49658 3.33333C2.49658 3.55524 2.58474 3.76807 2.74166 3.92499L7.43333 8.61666C7.1365 9.16884 7.02548 9.80197 7.11673 10.4222C7.20799 11.0424 7.49665 11.6168 7.93994 12.06C8.38323 12.5033 8.95755 12.792 9.57779 12.8833C10.198 12.9745 10.8311 12.8635 11.3833 12.5667L16.075 17.2583C16.1525 17.3364 16.2446 17.3984 16.3462 17.4407C16.4477 17.483 16.5566 17.5048 16.6667 17.5048C16.7767 17.5048 16.8856 17.483 16.9871 17.4407C17.0887 17.3984 17.1809 17.3364 17.2583 17.2583C17.3364 17.1809 17.3984 17.0887 17.4407 16.9871C17.483 16.8856 17.5048 16.7767 17.5048 16.6667C17.5048 16.5566 17.483 16.4477 17.4407 16.3462C17.3984 16.2446 17.3364 16.1525 17.2583 16.075L3.92499 2.74166ZM9.99999 11.25C9.66847 11.25 9.35053 11.1183 9.11611 10.8839C8.88169 10.6495 8.74999 10.3315 8.74999 9.99999V9.94166L10.05 11.2417L9.99999 11.25Z" fill="#4D4D4F"/>
<path d="M10.1836 14.1664C6.60022 14.2498 4.25022 11.1748 3.51689 9.99977C4.03894 9.16702 4.66636 8.40516 5.38355 7.73311L4.16689 6.55811C3.22632 7.44433 2.42056 8.46347 1.77522 9.58311C1.70208 9.70979 1.66357 9.85349 1.66357 9.99977C1.66357 10.1461 1.70208 10.2898 1.77522 10.4164C2.30022 11.3248 5.10855 15.8331 10.0169 15.8331H10.2252C11.1482 15.8057 12.0592 15.6168 12.9169 15.2748L11.6002 13.9581C11.1372 14.0799 10.662 14.1498 10.1836 14.1664Z" fill="#4D4D4F"/>
<path d="M18.2252 9.58331C17.6918 8.65831 14.7502 4.01664 9.77516 4.16664C8.85221 4.19402 7.94119 4.38299 7.0835 4.72497L8.40016 6.04164C8.86319 5.91983 9.33834 5.84996 9.81683 5.83331C13.3918 5.74164 15.7418 8.82498 16.4835 9.99998C15.9485 10.8352 15.307 11.5972 14.5752 12.2666L15.8335 13.4416C16.7859 12.5577 17.603 11.5385 18.2585 10.4166C18.3266 10.2871 18.3594 10.1418 18.3536 9.99551C18.3477 9.84921 18.3034 9.70704 18.2252 9.58331Z" fill="#4D4D4F"/>
</svg>
