<svg width="100" height="100" viewBox="0 0 100 100" fill="none" xmlns="http://www.w3.org/2000/svg">
<circle cx="50" cy="50" r="50" fill="#EC008C"/>
<g clip-path="url(#clip0_1098_7732)">
<path d="M68.1824 50.1678V44.5458C68.1824 42.6395 66.7038 41.0892 64.8355 40.9388L59.6146 31.8197C59.1308 30.9763 58.3495 30.3735 57.4146 30.1231C56.4842 29.8745 55.5113 30.0051 54.6786 30.4898L36.7809 40.9095H33.6375C31.632 40.9095 30.0011 42.5403 30.0011 44.5458V66.3637C30.0011 68.3691 31.6319 70 33.6375 70H64.5461C66.5515 70 68.1824 68.3692 68.1824 66.3637V60.7417C69.2383 60.3652 70.0006 59.3656 70.0006 58.182V52.7275C70.0006 51.5439 69.2383 50.5443 68.1824 50.1678ZM62.7229 40.9095H54.7993L60.742 37.4497L62.7229 40.9095ZM59.8387 35.8719L51.1858 40.9095H47.5967L58.9413 34.3045L59.8387 35.8719ZM55.5938 32.0611C56.0048 31.8205 56.4851 31.7566 56.9441 31.8791C57.4084 32.0034 57.7955 32.3035 58.0361 32.7234L58.038 32.7267L43.9834 40.9095H40.3944L55.5938 32.0611ZM66.3642 66.3637C66.3642 67.3659 65.5484 68.1818 64.5461 68.1818H33.6375C32.6352 68.1818 31.8194 67.3659 31.8194 66.3637V44.5458C31.8194 43.5436 32.6352 42.7277 33.6375 42.7277H64.5461C65.5484 42.7277 66.3642 43.5436 66.3642 44.5458V50.0003H60.9098C57.902 50.0003 55.4553 52.447 55.4553 55.4547C55.4553 58.4625 57.902 60.9092 60.9098 60.9092H66.3642V66.3637ZM68.1824 58.182C68.1824 58.6835 67.775 59.0911 67.2733 59.0911H60.9098C58.9043 59.0911 57.2734 57.4603 57.2734 55.4547C57.2734 53.4493 58.9042 51.8184 60.9098 51.8184H67.2733C67.7749 51.8184 68.1824 52.2259 68.1824 52.7275V58.182Z" fill="white"/>
<path d="M60.9089 53.6366C59.9066 53.6366 59.0907 54.4525 59.0907 55.4547C59.0907 56.457 59.9066 57.2728 60.9089 57.2728C61.9111 57.2728 62.727 56.457 62.727 55.4547C62.7271 54.4525 61.9112 53.6366 60.9089 53.6366Z" fill="white"/>
</g>
<defs>
<clipPath id="clip0_1098_7732">
<rect width="40" height="40" fill="white" transform="translate(30 30)"/>
</clipPath>
</defs>
</svg>
