<svg width="20" height="20" viewBox="0 0 20 20" fill="none" xmlns="http://www.w3.org/2000/svg">
<path d="M10.2317 1.20616e-05C12.3376 0.00188498 14.3864 0.700962 16.0722 1.99287C17.7581 3.28479 18.9906 5.10024 19.5857 7.16819C20.1808 9.23614 20.1066 11.4457 19.3742 13.4669C18.6418 15.4881 17.2904 17.2127 15.5219 18.383C13.7533 19.5534 11.6625 20.1068 9.56143 19.9606C7.4604 19.8144 5.4619 18.9765 3.86429 17.572C2.26669 16.1675 1.15567 14.2716 0.697107 12.1675C0.238546 10.0635 0.457039 7.86396 1.31997 5.89745C1.49029 5.51129 2.08841 4.92309 2.46712 5.0954C2.84583 5.2677 2.86086 6.14258 2.69054 6.53129C1.88745 8.36118 1.74586 10.4237 2.29105 12.3506C2.83623 14.2775 4.0327 15.9433 5.66679 17.0505C7.30089 18.1577 9.26622 18.6343 11.2119 18.3951C13.1575 18.156 14.9567 17.2166 16.2883 15.7448C17.6199 14.2731 18.3972 12.3647 18.4812 10.3604C18.5653 8.35617 17.9508 6.38659 16.7473 4.80335C15.5439 3.22011 13.83 2.12631 11.9115 1.71726C9.99308 1.30821 7.99506 1.61054 6.27426 2.57027C6.09942 2.6684 5.89366 2.69141 5.70225 2.63423C5.51083 2.57706 5.34945 2.44438 5.25359 2.2654C5.15774 2.08641 5.13526 1.87577 5.19111 1.67982C5.24696 1.48387 5.37656 1.31866 5.5514 1.22052C6.98639 0.417194 8.59614 -0.00259415 10.2317 1.20616e-05Z" fill="#ED2324"/>
<path d="M10.2317 11.282C10.0324 11.282 9.84129 11.201 9.70037 11.0567C9.55945 10.9125 9.48029 10.7168 9.48029 10.5128V5.8974C9.48029 5.69339 9.55945 5.49773 9.70037 5.35348C9.84129 5.20922 10.0324 5.12817 10.2317 5.12817C10.431 5.12817 10.6221 5.20922 10.763 5.35348C10.9039 5.49773 10.9831 5.69339 10.9831 5.8974V9.74356H13.7383C13.9376 9.74356 14.1287 9.8246 14.2696 9.96886C14.4105 10.1131 14.4897 10.3088 14.4897 10.5128C14.4897 10.7168 14.4105 10.9125 14.2696 11.0567C14.1287 11.201 13.9376 11.282 13.7383 11.282H10.2317Z" fill="#ED2324"/>
<path d="M0.270534 5.60685C0.299515 5.69816 0.345788 5.78273 0.406709 5.85573C0.467629 5.92872 0.542004 5.98871 0.625582 6.03227C0.709159 6.07583 0.800302 6.1021 0.893802 6.10958C0.987301 6.11706 1.08132 6.10561 1.1705 6.07588L2.41588 5.48908L2.74501 6.82146C2.80047 6.99609 2.91807 7.14296 3.07446 7.2329C3.23084 7.32284 3.41455 7.34926 3.58909 7.30691L3.64513 7.29097C3.82531 7.23104 3.97485 7.10028 4.06086 6.92747C4.14687 6.75467 4.1623 6.55396 4.10376 6.3695L3.55579 4.341C3.5267 4.24957 3.48028 4.1649 3.41919 4.09186C3.3581 4.01881 3.28353 3.95881 3.19976 3.91531C3.11599 3.8718 3.02466 3.84564 2.93099 3.83831C2.83733 3.83098 2.74318 3.84264 2.65392 3.87261L0.729168 4.68538C0.639912 4.715 0.557236 4.76234 0.485869 4.8247C0.414501 4.88705 0.355841 4.9632 0.313245 5.04878C0.270648 5.13437 0.24495 5.22771 0.237622 5.32346C0.230293 5.41922 0.241477 5.51552 0.270534 5.60685Z" fill="#ED2324"/>
</svg>
