<svg width="70" height="70" viewBox="0 0 70 70" fill="none" xmlns="http://www.w3.org/2000/svg">
<circle cx="35" cy="35" r="35" fill="#FFCB05"/>
<g clip-path="url(#clip0_1542_29986)">
<path d="M44.4792 48.2592V42.7511C44.4792 40.8596 43.6625 39.0586 42.2378 37.8117L39.0236 35L42.2378 32.1883C43.6626 30.9414 44.4792 29.1404 44.4792 27.2489V21.7408C45.3264 21.4389 45.9375 20.6369 45.9375 19.6875C45.9375 18.4814 44.9561 17.5 43.75 17.5H26.25C25.0439 17.5 24.0625 18.4814 24.0625 19.6875C24.0625 20.6369 24.6736 21.4389 25.5208 21.7408V27.2489C25.5208 29.1404 26.3375 30.9414 27.7622 32.1883L30.9764 35L27.7622 37.8117C26.3374 39.0586 25.5208 40.8596 25.5208 42.7511V48.2592C24.6736 48.5611 24.0625 49.3631 24.0625 50.3125C24.0625 51.5186 25.0439 52.5 26.25 52.5H43.75C44.9561 52.5 45.9375 51.5186 45.9375 50.3125C45.9375 49.3631 45.3264 48.5611 44.4792 48.2592ZM43.0208 48.125H26.9792V42.7511C26.9792 41.2796 27.615 39.8796 28.7219 38.9098L32.5631 35.5484C32.7221 35.4098 32.8125 35.2101 32.8125 35.0001C32.8125 34.7901 32.7221 34.5903 32.5631 34.4518L28.7219 31.0903C27.615 30.1205 26.9792 28.7205 26.9792 27.2491V21.875H43.0209V27.2489C43.0209 28.7204 42.3851 30.1204 41.2782 31.0902L37.4369 34.4516C37.2779 34.5902 37.1875 34.79 37.1875 35C37.1875 35.21 37.2779 35.4098 37.4369 35.5483L41.2781 38.9097C42.3864 39.8796 43.0208 41.2796 43.0208 42.751V48.125Z" fill="white"/>
<path d="M41.4036 45.4825L35.5702 38.1909C35.2932 37.8452 34.7084 37.8452 34.4313 38.1909L28.598 45.4825C28.423 45.7013 28.3894 46.0017 28.5105 46.254C28.6316 46.5063 28.8867 46.6667 29.1668 46.6667H40.8334C41.1134 46.6667 41.3686 46.5062 41.4911 46.254C41.6121 46.0017 41.5786 45.7013 41.4036 45.4825Z" fill="white"/>
<path d="M38.5905 29.6176C38.4781 29.3449 38.2113 29.167 37.9167 29.167H32.0834C31.7888 29.167 31.522 29.3449 31.4096 29.6176C31.2959 29.8903 31.3586 30.2024 31.5671 30.4124L34.4838 33.3291C34.6268 33.4706 34.8134 33.5421 35.0001 33.5421C35.1868 33.5421 35.3734 33.4706 35.5163 33.3291L38.433 30.4124C38.6415 30.2039 38.7042 29.8903 38.5905 29.6176Z" fill="white"/>
</g>
<defs>
<clipPath id="clip0_1542_29986">
<rect width="35" height="35" fill="white" transform="translate(17.5 17.5)"/>
</clipPath>
</defs>
</svg>
