<svg width="12" height="12" viewBox="0 0 12 12" fill="none" xmlns="http://www.w3.org/2000/svg">
<path d="M9.25001 10.546V8.65751C9.25001 8.00902 8.97 7.39151 8.48152 6.96401L7.37951 6L8.48152 5.03599C8.97002 4.60849 9.25001 3.99098 9.25001 3.34249V1.45399C9.54049 1.35049 9.75 1.0755 9.75 0.75C9.75 0.336492 9.41351 0 9 0H3C2.58649 0 2.25 0.336492 2.25 0.75C2.25 1.0755 2.45951 1.35049 2.74999 1.45399V3.34249C2.74999 3.99098 3.03 4.60849 3.51848 5.03599L4.62049 6L3.51848 6.96401C3.02998 7.39151 2.74999 8.00902 2.74999 8.65751V10.546C2.45951 10.6495 2.25 10.9245 2.25 11.25C2.25 11.6635 2.58649 12 3 12H9C9.41351 12 9.75 11.6635 9.75 11.25C9.75 10.9245 9.54049 10.6495 9.25001 10.546ZM8.74999 10.5H3.25001V8.65751C3.25001 8.15302 3.468 7.67302 3.8475 7.34051L5.1645 6.18802C5.21899 6.14051 5.25 6.07202 5.25 6.00002C5.25 5.92802 5.21899 5.85952 5.1645 5.81203L3.8475 4.65954C3.468 4.32703 3.25001 3.84703 3.25001 3.34254V1.5H8.75002V3.34249C8.75002 3.84698 8.53202 4.32698 8.15252 4.65949L6.83552 5.81198C6.78101 5.85949 6.75 5.928 6.75 6C6.75 6.072 6.78101 6.14051 6.8355 6.18799L8.1525 7.34048C8.53249 7.67299 8.74999 8.15299 8.74999 8.65748V10.5Z" fill="white"/>
<path d="M8.19562 9.59377L6.19563 7.09376C6.10063 6.97526 5.90012 6.97526 5.80513 7.09376L3.80514 9.59377C3.74514 9.66877 3.73363 9.77177 3.77514 9.85826C3.81665 9.94477 3.90414 9.99975 4.00014 9.99975H8.00015C8.09615 9.99975 8.18364 9.94474 8.22564 9.85826C8.2671 9.77177 8.25562 9.66877 8.19562 9.59377Z" fill="white"/>
<path d="M7.23097 4.1545C7.19246 4.06101 7.10096 4 6.99997 4H4.99998C4.89899 4 4.80749 4.06101 4.76898 4.1545C4.72998 4.24799 4.75147 4.35501 4.82298 4.42701L5.82299 5.42702C5.872 5.47551 5.93598 5.50002 5.99999 5.50002C6.064 5.50002 6.12798 5.47553 6.17699 5.42702L7.177 4.42701C7.24846 4.3555 7.26997 4.24799 7.23097 4.1545Z" fill="white"/>
</svg>
