<svg width="100" height="100" viewBox="0 0 100 100" fill="none" xmlns="http://www.w3.org/2000/svg">
<circle cx="50" cy="50" r="50" fill="#EC008C"/>
<path d="M69.314 44.5959L67.3577 42.6396C66.4438 41.7257 64.957 41.7259 64.0431 42.6396L59.9224 46.7603V33.5156C59.9224 31.5771 58.3453 30 56.4067 30H33.5161C31.5776 30 30.0005 31.5771 30.0005 33.5156V66.4844C30.0005 68.4229 31.5776 70 33.5161 70H56.4067C58.3453 70 59.9224 68.4229 59.9224 66.4844V57.1849L69.314 47.9105C70.2278 46.9967 70.2278 45.5098 69.314 44.5959ZM55.2985 58.4571L51.7733 60.1023L53.4168 56.5805L62.1649 47.8325L64.099 49.7666L55.2985 58.4571ZM57.5786 66.4844C57.5786 67.1305 57.0529 67.6562 56.4067 67.6562H33.5161C32.8699 67.6562 32.3442 67.1305 32.3442 66.4844V33.5156C32.3442 32.8695 32.8699 32.3438 33.5161 32.3438H56.4067C57.0529 32.3438 57.5786 32.8695 57.5786 33.5156V49.1041C51.0803 55.6024 51.5046 55.1355 51.3802 55.4022L48.2866 62.0314C48.0782 62.478 48.1714 63.0072 48.5199 63.3556C48.8683 63.7041 49.3977 63.7973 49.8441 63.5889L56.4733 60.4952C56.7163 60.3818 56.7563 60.3113 57.5786 59.4993V66.4844ZM65.7666 48.1198L63.8221 46.1752L65.7004 44.2969L67.6561 46.2538L65.7666 48.1198Z" fill="white"/>
<path d="M36.2505 39.9219H53.7505C54.3977 39.9219 54.9224 39.3972 54.9224 38.75C54.9224 38.1028 54.3977 37.5781 53.7505 37.5781H36.2505C35.6034 37.5781 35.0787 38.1028 35.0787 38.75C35.0787 39.3972 35.6034 39.9219 36.2505 39.9219Z" fill="white"/>
<path d="M36.2505 46.1719H50.0005C50.6477 46.1719 51.1724 45.6472 51.1724 45C51.1724 44.3528 50.6477 43.8281 50.0005 43.8281H36.2505C35.6034 43.8281 35.0787 44.3528 35.0787 45C35.0787 45.6472 35.6034 46.1719 36.2505 46.1719Z" fill="white"/>
<path d="M46.2505 50.0781H36.2505C35.6034 50.0781 35.0787 50.6028 35.0787 51.25C35.0787 51.8972 35.6034 52.4219 36.2505 52.4219H46.2505C46.8977 52.4219 47.4224 51.8972 47.4224 51.25C47.4224 50.6028 46.8977 50.0781 46.2505 50.0781Z" fill="white"/>
</svg>
