<svg width="20" height="20" viewBox="0 0 20 20" fill="none" xmlns="http://www.w3.org/2000/svg">
<path d="M15.625 14.6875C15.9702 14.6875 16.25 14.4077 16.25 14.0625C16.25 13.7173 15.9702 13.4375 15.625 13.4375C15.2798 13.4375 15 13.7173 15 14.0625C15 14.4077 15.2798 14.6875 15.625 14.6875Z" fill="#ED1C24"/>
<path d="M13.125 14.6875C13.4702 14.6875 13.75 14.4077 13.75 14.0625C13.75 13.7173 13.4702 13.4375 13.125 13.4375C12.7798 13.4375 12.5 13.7173 12.5 14.0625C12.5 14.4077 12.7798 14.6875 13.125 14.6875Z" fill="#ED1C24"/>
<path d="M10.625 14.6875C10.9702 14.6875 11.25 14.4077 11.25 14.0625C11.25 13.7173 10.9702 13.4375 10.625 13.4375C10.2798 13.4375 10 13.7173 10 14.0625C10 14.4077 10.2798 14.6875 10.625 14.6875Z" fill="#ED1C24"/>
<path d="M16.4106 10.3125H3.58938C1.61 10.3125 0 11.9225 0 13.9019V14.2231C0 16.2025 1.61 17.8125 3.58938 17.8125H16.4106C18.39 17.8125 20 16.2025 20 14.2231V13.9019C20 11.9225 18.39 10.3125 16.4106 10.3125ZM18.75 14.2231C18.75 15.5131 17.7006 16.5625 16.4106 16.5625H3.58938C2.29938 16.5625 1.25 15.5131 1.25 14.2231V13.9019C1.25 12.6119 2.29938 11.5625 3.58938 11.5625H16.4106C17.7006 11.5625 18.75 12.6119 18.75 13.9019V14.2231Z" fill="#ED1C24"/>
<path d="M6.05866 5.01188C7.10928 3.99688 8.50866 3.4375 9.99991 3.4375C11.4912 3.4375 12.8905 3.99688 13.9412 5.01188C14.0624 5.12937 14.2193 5.1875 14.3755 5.1875C14.5393 5.1875 14.7024 5.12375 14.8249 4.99687C15.0649 4.74875 15.058 4.35312 14.8105 4.11312C13.5249 2.87125 11.8162 2.1875 9.99991 2.1875C8.18366 2.1875 6.47491 2.87125 5.18991 4.11312C4.94178 4.3525 4.93491 4.74875 5.17491 4.99687C5.41491 5.245 5.81053 5.2525 6.05866 5.01188Z" fill="#ED1C24"/>
<path d="M13.1251 7.1875C13.2889 7.1875 13.452 7.12375 13.5745 6.99687C13.8145 6.74875 13.8076 6.35313 13.5595 6.11313C12.6076 5.19375 11.3432 4.6875 10.0001 4.6875C8.657 4.6875 7.39262 5.19375 6.44137 6.11313C6.19325 6.35313 6.18637 6.74875 6.42637 6.99687C6.66512 7.245 7.06262 7.2525 7.3095 7.01187C8.027 6.31875 8.982 5.9375 10.0001 5.9375C11.0182 5.9375 11.9732 6.31875 12.6914 7.01187C12.812 7.12937 12.9689 7.1875 13.1251 7.1875Z" fill="#ED1C24"/>
<path d="M8.00308 7.98813C7.75558 8.22813 7.7487 8.62375 7.9887 8.87187C8.22932 9.12 8.62433 9.12687 8.87245 8.88687C9.47183 8.30687 10.5287 8.30687 11.1281 8.88687C11.2493 9.00437 11.4062 9.0625 11.5624 9.0625C11.7262 9.0625 11.8887 8.99875 12.0118 8.87187C12.2518 8.62375 12.2449 8.22813 11.9974 7.98813C11.4624 7.47188 10.7531 7.1875 9.99995 7.1875C9.24683 7.1875 8.53745 7.47188 8.00308 7.98813Z" fill="#ED1C24"/>
</svg>
