<svg width="16" height="16" viewBox="0 0 16 16" fill="none" xmlns="http://www.w3.org/2000/svg">
<path d="M15.8263 14.9883L11.5247 10.6866C12.4678 9.55577 13.037 8.10273 13.037 6.51844C13.037 2.92408 10.1129 -6.10352e-05 6.5185 -6.10352e-05C2.92414 -6.10352e-05 0 2.92408 0 6.51844C0 10.1128 2.92414 13.0369 6.5185 13.0369C8.1028 13.0369 9.55583 12.4678 10.6866 11.5246L14.9884 15.8264C15.1041 15.9421 15.2558 16 15.4074 16C15.5589 16 15.7106 15.9421 15.8263 15.8264C16.0579 15.5949 16.0579 15.2198 15.8263 14.9883ZM1.18518 6.51844C1.18518 3.57771 3.57747 1.18512 6.5185 1.18512C9.45953 1.18512 11.8518 3.57771 11.8518 6.51844C11.8518 9.45917 9.45953 11.8518 6.5185 11.8518C3.57747 11.8518 1.18518 9.45917 1.18518 6.51844Z" fill="#4D4D4F"/>
</svg>
