<svg width="31" height="30" viewBox="0 0 31 30" fill="none" xmlns="http://www.w3.org/2000/svg">
<path d="M15.5011 20.0952C14.4648 20.0952 13.4518 19.7879 12.5902 19.2122C11.7286 18.6365 11.057 17.8182 10.6605 16.8608C10.2639 15.9034 10.1601 14.8499 10.3623 13.8335C10.5645 12.8172 11.0635 11.8836 11.7962 11.1508C12.529 10.4181 13.4626 9.91906 14.4789 9.71689C15.4953 9.51472 16.5488 9.61848 17.5062 10.015C18.4636 10.4116 19.2819 11.0832 19.8576 11.9448C20.4333 12.8064 20.7406 13.8194 20.7406 14.8557C20.7378 16.2445 20.1849 17.5755 19.2029 18.5575C18.2209 19.5395 16.8899 20.0924 15.5011 20.0952ZM15.5011 11.8557C14.9078 11.8557 14.3278 12.0317 13.8344 12.3613C13.3411 12.6909 12.9565 13.1595 12.7295 13.7077C12.5024 14.2558 12.443 14.859 12.5588 15.441C12.6745 16.0229 12.9602 16.5575 13.3798 16.977C13.7994 17.3966 14.3339 17.6823 14.9159 17.7981C15.4978 17.9138 16.101 17.8544 16.6492 17.6274C17.1974 17.4003 17.6659 17.0158 17.9955 16.5224C18.3252 16.0291 18.5011 15.4491 18.5011 14.8557C18.5013 14.4616 18.4239 14.0714 18.2732 13.7072C18.1225 13.3431 17.9016 13.0122 17.623 12.7334C17.3444 12.4547 17.0136 12.2336 16.6495 12.0827C16.2854 11.9319 15.8952 11.8542 15.5011 11.8542V11.8557Z" fill="#EC008C"/>
<path d="M15.6001 29.712C14.6411 29.7108 13.7217 29.3292 13.0437 28.6509C12.3656 27.9726 11.9844 27.053 11.9836 26.094C11.9834 25.8948 11.926 25.6998 11.8183 25.5322C11.7106 25.3646 11.557 25.2315 11.3759 25.1486C11.1947 25.0657 10.9936 25.0365 10.7964 25.0645C10.5991 25.0925 10.414 25.1765 10.2631 25.3065C9.93718 25.6587 9.54479 25.943 9.10854 26.143C8.67229 26.3429 8.2008 26.4546 7.7212 26.4717C7.24161 26.4887 6.76338 26.4106 6.31406 26.2421C5.86474 26.0735 5.4532 25.8178 5.10312 25.4895C4.75809 25.1628 4.48078 24.7714 4.28703 24.3375C4.09328 23.9036 3.9869 23.4359 3.97394 22.9609C3.96099 22.4859 4.04172 22.013 4.21153 21.5693C4.38134 21.1255 4.6369 20.7195 4.96362 20.3745L5.08962 20.247C5.18676 20.1582 5.26495 20.0507 5.3195 19.931C5.37405 19.8112 5.40383 19.6817 5.40705 19.5501C5.41028 19.4185 5.38688 19.2877 5.33825 19.1654C5.28963 19.0431 5.2168 18.9319 5.12412 18.8385C4.94675 18.6685 4.71128 18.5725 4.46562 18.57H4.26312C3.30377 18.57 2.38371 18.1889 1.70534 17.5105C1.02698 16.8322 0.645874 15.9121 0.645874 14.9528C0.645874 13.9934 1.02698 13.0733 1.70534 12.395C2.38371 11.7166 3.30377 11.3355 4.26312 11.3355C4.46221 11.335 4.65699 11.2774 4.82434 11.1696C4.9917 11.0617 5.12462 10.9082 5.20735 10.7271C5.29008 10.546 5.31915 10.345 5.2911 10.1479C5.26306 9.95076 5.17908 9.76583 5.04912 9.615C4.69258 9.28266 4.40637 8.88214 4.20746 8.43716C4.00855 7.99219 3.90098 7.51181 3.89112 7.0245C3.87841 6.30914 4.07808 5.60608 4.46489 5.00419C4.8517 4.4023 5.40828 3.9286 6.06427 3.64299C6.72026 3.35738 7.4462 3.27268 8.15032 3.39959C8.85445 3.5265 9.50513 3.85933 10.0201 4.356L10.1701 4.506C10.3045 4.63761 10.4752 4.72584 10.6603 4.75927C10.8454 4.7927 11.0362 4.76979 11.2081 4.6935C11.2871 4.65908 11.3696 4.63343 11.4541 4.617C11.587 4.5325 11.6964 4.41595 11.7724 4.27808C11.8484 4.14021 11.8886 3.98544 11.8891 3.828V3.618C11.8891 2.65845 12.2703 1.73819 12.9488 1.05969C13.6273 0.381181 14.5476 0 15.5071 0C16.4667 0 17.3869 0.381181 18.0654 1.05969C18.7439 1.73819 19.1251 2.65845 19.1251 3.618C19.1162 3.7503 19.1341 3.88304 19.1777 4.00825C19.2214 4.13346 19.2899 4.24855 19.3791 4.34662C19.4684 4.44469 19.5765 4.52372 19.6971 4.57894C19.8176 4.63417 19.9481 4.66446 20.0806 4.668H20.0896C20.3352 4.66711 20.5707 4.57083 20.7466 4.3995C21.0752 4.04916 21.4698 3.76724 21.9078 3.56997C22.3457 3.3727 22.8183 3.26397 23.2984 3.25003C23.7785 3.23609 24.2567 3.31721 24.7053 3.48874C25.154 3.66027 25.5643 3.91881 25.9126 4.2495C26.2557 4.57986 26.5301 4.97471 26.7203 5.41139C26.9104 5.84807 27.0124 6.31798 27.0205 6.79418C27.0286 7.27038 26.9425 7.74349 26.7674 8.18637C26.5922 8.62925 26.3313 9.03318 25.9996 9.375L25.8496 9.525C25.7173 9.6589 25.6286 9.8297 25.5951 10.015C25.5616 10.2002 25.585 10.3913 25.6621 10.563C25.6967 10.6418 25.7219 10.7243 25.7371 10.809C25.8223 10.9419 25.9394 11.0513 26.0778 11.1273C26.2161 11.2033 26.3713 11.2434 26.5291 11.244H26.7361C27.6957 11.244 28.6159 11.6252 29.2944 12.3037C29.9729 12.9822 30.3541 13.9024 30.3541 14.862C30.3541 15.8216 29.9729 16.7418 29.2944 17.4203C28.6159 18.0988 27.6957 18.48 26.7361 18.48C26.536 18.4652 26.3361 18.5117 26.163 18.6132C25.9899 18.7148 25.8518 18.8666 25.7671 19.0485V19.059C25.6904 19.2308 25.6673 19.4218 25.7007 19.6069C25.7342 19.7921 25.8227 19.9629 25.9546 20.097C26.3018 20.4316 26.5792 20.8318 26.7707 21.2743C26.9621 21.7169 27.0639 22.1931 27.07 22.6752C27.0762 23.1574 26.9866 23.636 26.8064 24.0833C26.6263 24.5306 26.3592 24.9377 26.0206 25.281C25.6857 25.6181 25.2871 25.8853 24.8481 26.0671C24.4091 26.2489 23.9383 26.3416 23.4631 26.34C22.988 26.341 22.5175 26.2479 22.0785 26.0661C21.6396 25.8844 21.241 25.6175 20.9056 25.281C20.8144 25.1717 20.6994 25.0848 20.5694 25.0268C20.4394 24.9688 20.2979 24.9414 20.1556 24.9465C19.9061 24.9512 19.6682 25.053 19.4926 25.2303C19.317 25.4076 19.2174 25.6464 19.2151 25.896V26.0985C19.2127 27.0564 18.8311 27.9743 18.1536 28.6515C17.4761 29.3287 16.558 29.71 15.6001 29.712ZM10.9501 22.8C11.3854 22.8003 11.8157 22.8923 12.2131 23.07C12.7974 23.2955 13.3008 23.6907 13.6585 24.2048C14.0162 24.7189 14.2118 25.3283 14.2201 25.9545C14.2063 26.1456 14.2313 26.3375 14.2938 26.5187C14.3563 26.6998 14.4549 26.8664 14.5836 27.0083C14.7124 27.1502 14.8686 27.2645 15.0428 27.3443C15.217 27.4241 15.4056 27.4677 15.5971 27.4725C15.9626 27.4721 16.313 27.3267 16.5714 27.0683C16.8299 26.8099 16.9752 26.4595 16.9756 26.094V25.875C16.9802 25.0384 17.3127 24.2369 17.9017 23.6426C18.4906 23.0483 19.2891 22.7087 20.1256 22.6965C20.5469 22.6758 20.9677 22.7454 21.3599 22.9006C21.7521 23.0558 22.1066 23.2931 22.3996 23.5965C22.5339 23.747 22.6978 23.8683 22.881 23.9527C23.0643 24.037 23.2629 24.0828 23.4646 24.087C23.6456 24.0879 23.8249 24.0526 23.992 23.9833C24.1592 23.914 24.3108 23.8121 24.4381 23.6835C24.5662 23.5555 24.6678 23.4035 24.7371 23.2362C24.8064 23.0689 24.8421 22.8896 24.8421 22.7085C24.8421 22.5274 24.8064 22.3481 24.7371 22.1808C24.6678 22.0135 24.5662 21.8615 24.4381 21.7335C23.9776 21.2941 23.6589 20.7273 23.5227 20.1055C23.3865 19.4838 23.4391 18.8356 23.6738 18.244C23.9084 17.6524 24.3144 17.1443 24.8397 16.7849C25.365 16.4256 25.9857 16.2313 26.6221 16.227C26.8121 16.2392 27.0026 16.2128 27.1821 16.1494C27.3615 16.086 27.5263 15.9869 27.6665 15.8581C27.8067 15.7293 27.9193 15.5734 27.9976 15.3999C28.0759 15.2264 28.1183 15.0388 28.1221 14.8485C28.1217 14.483 27.9764 14.1326 27.7179 13.8742C27.4595 13.6158 27.1091 13.4704 26.7436 13.47H26.5201C25.8989 13.4686 25.2917 13.2854 24.7735 12.9428C24.2553 12.6003 23.8488 12.1135 23.6041 11.5425C23.5616 11.4445 23.5333 11.341 23.5201 11.235C23.3193 10.674 23.2808 10.0678 23.409 9.48598C23.5371 8.90412 23.8268 8.3702 24.2446 7.9455L24.3571 7.8345C24.4894 7.70235 24.5938 7.54511 24.6644 7.372C24.735 7.1989 24.7703 7.01343 24.7681 6.8265C24.7633 6.55373 24.6776 6.28854 24.522 6.06448C24.3664 5.84043 24.1477 5.66759 23.8938 5.56785C23.6399 5.46811 23.3621 5.44596 23.0956 5.5042C22.8291 5.56243 22.5858 5.69844 22.3966 5.895C22.0982 6.20579 21.7413 6.45446 21.3464 6.62669C20.9515 6.79892 20.5264 6.89129 20.0956 6.8985H20.0701C19.2279 6.89697 18.4202 6.56355 17.8221 5.97054C17.2241 5.37752 16.8838 4.57269 16.8751 3.7305C16.8871 3.54058 16.8605 3.3502 16.7971 3.1708C16.7336 2.9914 16.6345 2.82669 16.5057 2.68657C16.3769 2.54646 16.2212 2.43383 16.0478 2.35545C15.8743 2.27707 15.6869 2.23457 15.4966 2.2305C15.1311 2.2309 14.7807 2.37626 14.5223 2.63469C14.2639 2.89312 14.1185 3.24352 14.1181 3.609V3.825C14.118 4.44586 13.9361 5.0531 13.5949 5.5718C13.2537 6.09051 12.7682 6.498 12.1981 6.744C12.0995 6.78758 11.9948 6.8159 11.8876 6.828C11.3271 7.02939 10.7211 7.06837 10.1394 6.94046C9.5577 6.81255 9.02396 6.52294 8.59962 6.105L8.46462 5.97C8.19959 5.72746 7.85035 5.59796 7.49126 5.60909C7.13217 5.62022 6.79162 5.7711 6.54212 6.02959C6.29262 6.28809 6.1539 6.63377 6.15549 6.99302C6.15707 7.35228 6.29885 7.69672 6.55062 7.953C7.02656 8.40589 7.3523 8.99374 7.48398 9.63739C7.61566 10.281 7.54696 10.9496 7.28712 11.553C7.06384 12.1406 6.66917 12.6475 6.1543 13.008C5.63944 13.3686 5.02812 13.5661 4.39962 13.575C4.20876 13.5616 4.01715 13.5869 3.83636 13.6496C3.65558 13.7123 3.48937 13.811 3.34778 13.9397C3.20618 14.0683 3.09214 14.2244 3.01254 14.3984C2.93294 14.5724 2.88942 14.7607 2.88462 14.952C2.88502 15.3175 3.03038 15.6679 3.28882 15.9263C3.54725 16.1847 3.89764 16.3301 4.26312 16.3305H4.47012C5.09644 16.3338 5.70798 16.521 6.22879 16.8689C6.74961 17.2169 7.15674 17.7101 7.39961 18.2874C7.64249 18.8647 7.71042 19.5007 7.59495 20.1163C7.47948 20.7318 7.18571 21.2999 6.75012 21.75L6.58512 21.9135C6.33385 22.1793 6.19839 22.534 6.20852 22.8997C6.21865 23.2653 6.37353 23.612 6.63912 23.8635C6.90531 24.114 7.25986 24.249 7.62527 24.2389C7.99067 24.2288 8.33721 24.0744 8.58912 23.8095C9.20942 23.1752 10.0556 22.8123 10.9426 22.8H10.9501Z" fill="#EC008C"/>
</svg>
