<svg width="20" height="20" viewBox="0 0 20 20" fill="none" xmlns="http://www.w3.org/2000/svg">
<g clip-path="url(#clip0_1541_22781)">
<path d="M15.27 0.840035L0.65 2.79004C0.65 2.79004 0 2.87004 0 3.64004V17.53C0 17.53 0.08 19.16 1.95 19.16H18.52C18.52 19.16 20 18.81 20 17.33V5.87004C20 5.87004 20.03 4.24004 18.08 4.24004H2.09C2.09 4.24004 1.47 4.14004 1.31 3.48004C1.26 3.22004 1.37 3.20004 1.64 3.20004H16.32V1.62004C16.32 1.62004 16.27 0.770035 15.27 0.840035Z" fill="#ED4C2F"/>
<path d="M10.2999 16.7996C9.08988 16.7996 8.18988 16.3096 6.87988 14.9996C6.64988 14.7696 6.63988 14.3896 6.87988 14.1496C7.10988 13.9196 7.48988 13.9096 7.72988 14.1496C9.11988 15.5196 9.75988 15.8596 10.8699 15.5596C11.5099 15.3896 12.0899 14.5596 12.1299 13.6196C12.1599 12.8896 11.6399 12.4096 10.5999 12.1996C8.72988 11.8296 7.61988 11.1096 7.30988 10.0696C7.05988 9.22955 7.38988 8.29955 8.19988 7.50955L8.22988 7.47955C9.97988 6.01955 12.0099 7.10955 12.8399 7.88955C13.0799 8.11955 13.0899 8.49955 12.8699 8.73955C12.6399 8.97955 12.2699 8.98955 12.0299 8.76955C11.9599 8.69955 10.3899 7.27955 9.02988 8.38955C8.55988 8.84955 8.35988 9.34955 8.46988 9.73955C8.63988 10.2996 9.47988 10.7596 10.8399 11.0396C13.1599 11.4996 13.3599 13.0396 13.3399 13.6696C13.2899 15.0596 12.1299 16.6096 11.0399 16.7496C10.7899 16.7796 10.5599 16.7996 10.3299 16.7996H10.2999Z" fill="white"/>
</g>
<defs>
<clipPath id="clip0_1541_22781">
<rect width="20" height="20" fill="white"/>
</clipPath>
</defs>
</svg>
