<svg width="20" height="20" viewBox="0 0 20 20" fill="none" xmlns="http://www.w3.org/2000/svg">
<path d="M10 19.9609C7.33938 19.9609 4.83797 18.9248 2.95656 17.0434C1.07516 15.162 0.0390625 12.6606 0.0390625 10C0.0390625 7.33934 1.07516 4.83793 2.95656 2.95656C4.83797 1.07516 7.33934 0.0390625 10 0.0390625C12.6607 0.0390625 15.162 1.07516 17.0434 2.95656C18.9248 4.83793 19.9609 7.33934 19.9609 10C19.9609 12.6606 18.9248 15.162 17.0434 17.0434C15.162 18.9248 12.6606 19.9609 10 19.9609ZM10 1.21094C5.15371 1.21094 1.21094 5.15371 1.21094 10C1.21094 14.8463 5.15371 18.7891 10 18.7891C14.8463 18.7891 18.7891 14.8463 18.7891 10C18.7891 5.15371 14.8463 1.21094 10 1.21094Z" fill="#ED1C24"/>
<path d="M10 11.7578C9.0307 11.7578 8.24219 10.9693 8.24219 10C8.24219 9.03074 9.0307 8.24219 10 8.24219C10.9693 8.24219 11.7578 9.03074 11.7578 10C11.7578 10.9693 10.9693 11.7578 10 11.7578ZM10 9.41406C9.67687 9.41406 9.41406 9.67691 9.41406 10C9.41406 10.3231 9.67687 10.5859 10 10.5859C10.3231 10.5859 10.5859 10.3231 10.5859 10C10.5859 9.67691 10.3231 9.41406 10 9.41406Z" fill="#ED1C24"/>
<path d="M0.625 9.41406H2.38281V10.5859H0.625V9.41406Z" fill="#ED1C24"/>
<path d="M17.6172 9.41406H19.375V10.5859H17.6172V9.41406Z" fill="#ED1C24"/>
<path d="M9.41406 17.6172H10.5859V19.375H9.41406V17.6172Z" fill="#ED1C24"/>
<path d="M9.41406 0.625H10.5859V2.38281H9.41406V0.625Z" fill="#ED1C24"/>
<path d="M4.20074 14.9698L5.02926 15.7984L3.78646 17.0412L2.95794 16.2126L4.20074 14.9698Z" fill="#ED1C24"/>
<path d="M16.2137 2.95447L17.0422 3.78298L15.7994 5.02576L14.9709 4.19724L16.2137 2.95447Z" fill="#ED1C24"/>
<path d="M15.8005 14.9686L17.0433 16.2114L16.2148 17.0399L14.972 15.7971L15.8005 14.9686Z" fill="#ED1C24"/>
<path d="M3.78515 2.95587L5.02792 4.19865L4.19941 5.02716L2.95663 3.78439L3.78515 2.95587Z" fill="#ED1C24"/>
<path d="M13.6865 5.4823L14.515 6.31079L10.9999 9.82588L10.1715 8.99739L13.6865 5.4823Z" fill="#ED1C24"/>
</svg>
