<svg width="40" height="40" viewBox="0 0 40 40" fill="none" xmlns="http://www.w3.org/2000/svg">
<g clip-path="url(#clip0_4276_31977)">
<path d="M20 40C30.7005 40 39.375 31.3255 39.375 20.625C39.375 9.92448 30.7005 1.25 20 1.25C9.29948 1.25 0.625 9.92448 0.625 20.625C0.625 31.3255 9.29948 40 20 40Z" fill="#E7EFFF"/>
<path d="M3.4375 13.75C3.95527 13.75 4.375 13.3303 4.375 12.8125C4.375 12.2947 3.95527 11.875 3.4375 11.875C2.91973 11.875 2.5 12.2947 2.5 12.8125C2.5 13.3303 2.91973 13.75 3.4375 13.75Z" fill="#FFA100"/>
<path d="M39.0625 28.5906C39.5803 28.5906 40 28.1708 40 27.6531C40 27.1353 39.5803 26.7156 39.0625 26.7156C38.5447 26.7156 38.125 27.1353 38.125 27.6531C38.125 28.1708 38.5447 28.5906 39.0625 28.5906Z" fill="#FFA100"/>
<path d="M34.6875 4.375C35.2053 4.375 35.625 3.95527 35.625 3.4375C35.625 2.91973 35.2053 2.5 34.6875 2.5C34.1697 2.5 33.75 2.91973 33.75 3.4375C33.75 3.95527 34.1697 4.375 34.6875 4.375Z" fill="#00C99F"/>
<path d="M4.0625 36.875C4.58027 36.875 5 36.4553 5 35.9375C5 35.4197 4.58027 35 4.0625 35C3.54473 35 3.125 35.4197 3.125 35.9375C3.125 36.4553 3.54473 36.875 4.0625 36.875Z" fill="#00C99F"/>
<path d="M35 18.125H5L8.32187 8.15625C8.44642 7.78318 8.68514 7.45871 9.00425 7.22878C9.32335 6.99884 9.70668 6.87508 10.1 6.875H29.9C30.2933 6.87508 30.6766 6.99884 30.9958 7.22878C31.3149 7.45871 31.5536 7.78318 31.6781 8.15625L35 18.125Z" fill="#32BCAD"/>
<path d="M33.125 19.375V34.875C32.3254 35.614 31.4639 36.2831 30.55 36.875H9.44687C8.53451 36.2823 7.67413 35.6133 6.875 34.875V19.375H33.125Z" fill="#FFCB05"/>
<path d="M6.875 21.875C6.37772 21.875 5.90081 21.6775 5.54917 21.3258C5.19754 20.9742 5 20.4973 5 20V18.125H8.75V20C8.75 20.4973 8.55246 20.9742 8.20083 21.3258C7.84919 21.6775 7.37228 21.875 6.875 21.875Z" fill="#1BA495"/>
<path d="M10.625 21.875C10.1277 21.875 9.65081 21.6775 9.29917 21.3258C8.94754 20.9742 8.75 20.4973 8.75 20V18.125H12.5V20C12.5 20.4973 12.3025 20.9742 11.9508 21.3258C11.5992 21.6775 11.1223 21.875 10.625 21.875Z" fill="#1BA495"/>
<path d="M14.375 21.875C13.8777 21.875 13.4008 21.6775 13.0492 21.3258C12.6975 20.9742 12.5 20.4973 12.5 20V18.125H16.25V20C16.25 20.4973 16.0525 20.9742 15.7008 21.3258C15.3492 21.6775 14.8723 21.875 14.375 21.875Z" fill="#1BA495"/>
<path d="M18.125 21.875C17.6277 21.875 17.1508 21.6775 16.7992 21.3258C16.4475 20.9742 16.25 20.4973 16.25 20V18.125H20V20C20 20.4973 19.8025 20.9742 19.4508 21.3258C19.0992 21.6775 18.6223 21.875 18.125 21.875Z" fill="#1BA495"/>
<path d="M21.875 21.875C21.3777 21.875 20.9008 21.6775 20.5492 21.3258C20.1975 20.9742 20 20.4973 20 20V18.125H23.75V20C23.75 20.4973 23.5525 20.9742 23.2008 21.3258C22.8492 21.6775 22.3723 21.875 21.875 21.875Z" fill="#1BA495"/>
<path d="M25.625 21.875C25.1277 21.875 24.6508 21.6775 24.2992 21.3258C23.9475 20.9742 23.75 20.4973 23.75 20V18.125H27.5V20C27.5 20.4973 27.3025 20.9742 26.9508 21.3258C26.5992 21.6775 26.1223 21.875 25.625 21.875Z" fill="#1BA495"/>
<path d="M29.375 21.875C28.8777 21.875 28.4008 21.6775 28.0492 21.3258C27.6975 20.9742 27.5 20.4973 27.5 20V18.125H31.25V20C31.25 20.4973 31.0525 20.9742 30.7008 21.3258C30.3492 21.6775 29.8723 21.875 29.375 21.875V21.875Z" fill="#1BA495"/>
<path d="M33.125 21.875C32.6277 21.875 32.1508 21.6775 31.7992 21.3258C31.4475 20.9742 31.25 20.4973 31.25 20V18.125H35V20C35 20.4973 34.8025 20.9742 34.4508 21.3258C34.0992 21.6775 33.6223 21.875 33.125 21.875V21.875Z" fill="#1BA495"/>
<path d="M30.55 36.875C27.4088 38.9147 23.7438 40.0002 19.9984 40.0002C16.2531 40.0002 12.5881 38.9147 9.44687 36.875H30.55Z" fill="#017DC7"/>
<path d="M36.1125 31.3875C35.2588 32.6646 34.2559 33.8354 33.125 34.875V30.625C34.1692 30.623 35.197 30.8853 36.1125 31.3875V31.3875Z" fill="#017DC7"/>
<path d="M6.87501 30.625V34.875C5.74483 33.8347 4.742 32.664 3.88751 31.3875C4.80305 30.8853 5.83079 30.623 6.87501 30.625V30.625Z" fill="#017DC7"/>
<path d="M16.875 25V36.875C8.85625 36.875 9.4875 36.8969 9.375 36.8281V25C9.375 24.8342 9.44085 24.6753 9.55806 24.5581C9.67527 24.4408 9.83424 24.375 10 24.375H16.25C16.4158 24.375 16.5747 24.4408 16.6919 24.5581C16.8092 24.6753 16.875 24.8342 16.875 25Z" fill="white"/>
<path d="M20 25H30V32.5H20V25Z" fill="white"/>
<path d="M30 33.125H20C19.8342 33.125 19.6753 33.0592 19.5581 32.9419C19.4408 32.8247 19.375 32.6658 19.375 32.5V25C19.375 24.8342 19.4408 24.6753 19.5581 24.5581C19.6753 24.4408 19.8342 24.375 20 24.375H30C30.1658 24.375 30.3247 24.4408 30.4419 24.5581C30.5592 24.6753 30.625 24.8342 30.625 25V32.5C30.625 32.6658 30.5592 32.8247 30.4419 32.9419C30.3247 33.0592 30.1658 33.125 30 33.125ZM20.625 31.875H29.375V25.625H20.625V31.875Z" fill="#FFA100"/>
<path d="M15 32.5C14.8342 32.5 14.6753 32.4342 14.5581 32.3169C14.4408 32.1997 14.375 32.0408 14.375 31.875V30.625C14.375 30.4592 14.4408 30.3003 14.5581 30.1831C14.6753 30.0658 14.8342 30 15 30C15.1658 30 15.3247 30.0658 15.4419 30.1831C15.5592 30.3003 15.625 30.4592 15.625 30.625V31.875C15.625 32.0408 15.5592 32.1997 15.4419 32.3169C15.3247 32.4342 15.1658 32.5 15 32.5Z" fill="#FFA100"/>
</g>
<defs>
<clipPath id="clip0_4276_31977">
<rect width="40" height="40" fill="white"/>
</clipPath>
</defs>
</svg>
