<svg width="20" height="20" viewBox="0 0 20 20" fill="none" xmlns="http://www.w3.org/2000/svg">
<g clip-path="url(#clip0_660_4636)">
<path d="M10 0C11.9778 0 13.9112 0.58649 15.5557 1.6853C17.2002 2.78412 18.4819 4.3459 19.2388 6.17317C19.9957 8.00043 20.1937 10.0111 19.8079 11.9509C19.422 13.8907 18.4696 15.6725 17.0711 17.0711C15.6725 18.4696 13.8907 19.422 11.9509 19.8079C10.0111 20.1937 8.00043 19.9957 6.17317 19.2388C4.3459 18.4819 2.78412 17.2002 1.6853 15.5557C0.58649 13.9112 0 11.9778 0 10C0 7.34784 1.05357 4.8043 2.92893 2.92893C4.8043 1.05357 7.34784 0 10 0V0ZM10 1.5C8.31886 1.5 6.67547 1.99852 5.27765 2.93251C3.87984 3.8665 2.79037 5.19402 2.14702 6.74719C1.50368 8.30036 1.33535 10.0094 1.66333 11.6583C1.9913 13.3071 2.80085 14.8217 3.98959 16.0104C5.17834 17.1992 6.69289 18.0087 8.34173 18.3367C9.99057 18.6646 11.6996 18.4963 13.2528 17.853C14.806 17.2096 16.1335 16.1202 17.0675 14.7223C18.0015 13.3245 18.5 11.6811 18.5 10C18.5 7.74566 17.6045 5.58365 16.0104 3.98959C14.4163 2.39553 12.2543 1.5 10 1.5Z" fill="#ED2324"/>
<path fill-rule="evenodd" clip-rule="evenodd" d="M12.8422 10.8553L8.76889 13.3331C8.61727 13.4252 8.4439 13.4752 8.26656 13.4781C8.08922 13.4811 7.91429 13.4368 7.75971 13.3498C7.60512 13.2629 7.47645 13.1364 7.38688 12.9833C7.29731 12.8302 7.25007 12.656 7.25 12.4787V7.52646C7.25007 7.34909 7.29731 7.17494 7.38688 7.02185C7.47645 6.86877 7.60512 6.74226 7.75971 6.6553C7.91429 6.56834 8.08922 6.52406 8.26656 6.52699C8.4439 6.52993 8.61727 6.57998 8.76889 6.67201L12.8422 9.14535C12.9889 9.23455 13.1102 9.36001 13.1943 9.50966C13.2785 9.65931 13.3227 9.8281 13.3227 9.99979C13.3227 10.1715 13.2785 10.3403 13.1943 10.4899C13.1102 10.6396 12.9889 10.765 12.8422 10.8542V10.8553Z" fill="#ED2324"/>
</g>
<defs>
<clipPath id="clip0_660_4636">
<rect width="20" height="20" fill="white"/>
</clipPath>
</defs>
</svg>
