<svg width="20" height="20" viewBox="0 0 20 20" fill="none" xmlns="http://www.w3.org/2000/svg">
<g clip-path="url(#clip0_2172_12317)">
<path d="M10 0C11.9778 0 13.9112 0.58649 15.5557 1.6853C17.2002 2.78412 18.4819 4.3459 19.2388 6.17317C19.9957 8.00043 20.1937 10.0111 19.8079 11.9509C19.422 13.8907 18.4696 15.6725 17.0711 17.0711C15.6725 18.4696 13.8907 19.422 11.9509 19.8079C10.0111 20.1937 8.00043 19.9957 6.17317 19.2388C4.3459 18.4819 2.78412 17.2002 1.6853 15.5557C0.58649 13.9112 0 11.9778 0 10C0 7.34784 1.05357 4.8043 2.92893 2.92893C4.8043 1.05357 7.34784 0 10 0V0ZM10 1.5C8.31886 1.5 6.67547 1.99852 5.27765 2.93251C3.87984 3.8665 2.79037 5.19402 2.14702 6.74719C1.50368 8.30036 1.33535 10.0094 1.66333 11.6583C1.9913 13.3071 2.80085 14.8217 3.98959 16.0104C5.17834 17.1992 6.69289 18.0087 8.34173 18.3367C9.99057 18.6647 11.6996 18.4963 13.2528 17.853C14.806 17.2096 16.1335 16.1202 17.0675 14.7223C18.0015 13.3245 18.5 11.6811 18.5 10C18.5 7.74566 17.6045 5.58365 16.0104 3.98959C14.4163 2.39553 12.2543 1.5 10 1.5V1.5Z" fill="#ED2324"/>
<path fill-rule="evenodd" clip-rule="evenodd" d="M12.8422 10.8556L8.76889 13.3333C8.61727 13.4254 8.4439 13.4754 8.26656 13.4784C8.08922 13.4813 7.91429 13.437 7.75971 13.3501C7.60512 13.2631 7.47645 13.1366 7.38688 12.9835C7.29731 12.8304 7.25007 12.6563 7.25 12.4789V7.52667C7.25007 7.34931 7.29731 7.17515 7.38688 7.02207C7.47645 6.86898 7.60512 6.74247 7.75971 6.65551C7.91429 6.56855 8.08922 6.52427 8.26656 6.52721C8.4439 6.53014 8.61727 6.5802 8.76889 6.67223L12.8422 9.14556C12.9889 9.23476 13.1102 9.36022 13.1943 9.50987C13.2785 9.65952 13.3227 9.82832 13.3227 10C13.3227 10.1717 13.2785 10.3405 13.1943 10.4901C13.1102 10.6398 12.9889 10.7653 12.8422 10.8544V10.8556Z" fill="#ED2324"/>
</g>
<defs>
<clipPath id="clip0_2172_12317">
<rect width="20" height="20" fill="white"/>
</clipPath>
</defs>
</svg>
