<svg width="20" height="20" viewBox="0 0 20 20" fill="none" xmlns="http://www.w3.org/2000/svg">
<path d="M13.3145 10.7481C13.1544 10.7481 12.9945 10.687 12.8724 10.5649C12.1055 9.79759 11.0854 9.37502 10 9.37502C8.91473 9.37502 7.89461 9.79759 7.12766 10.5649C6.88363 10.809 6.48785 10.8091 6.24375 10.5651C5.99965 10.3211 5.99953 9.92533 6.24356 9.68123C7.24664 8.67771 8.58071 8.12502 10 8.12502C11.4194 8.12502 12.7534 8.67767 13.7565 9.68123C14.0005 9.92537 14.0004 10.3211 13.7563 10.5651C13.6343 10.687 13.4743 10.7481 13.3145 10.7481Z" fill="#ED1C24"/>
<path d="M11.768 12.2945C11.608 12.2945 11.4481 12.2335 11.3261 12.1115C10.9721 11.7575 10.5012 11.5625 10.0001 11.5625C9.49898 11.5625 9.02808 11.7575 8.67406 12.1115C8.43 12.3555 8.03426 12.3555 7.79019 12.1115C7.54609 11.8674 7.54609 11.4717 7.79019 11.2276C8.38027 10.6375 9.16512 10.3125 10.0001 10.3125C10.835 10.3125 11.6199 10.6375 12.21 11.2276C12.4541 11.4717 12.4541 11.8674 12.21 12.1115C12.0879 12.2335 11.928 12.2945 11.768 12.2945Z" fill="#ED1C24"/>
<path d="M10 15C9.48309 15 9.0625 14.5794 9.0625 14.0625C9.0625 13.5456 9.48309 13.125 10 13.125C10.5169 13.125 10.9375 13.5456 10.9375 14.0625C10.9375 14.5794 10.5169 15 10 15Z" fill="#ED1C24"/>
<path d="M19.7446 6.99603L10.3696 0.121057C10.1496 -0.0402708 9.85043 -0.0402708 9.63039 0.121057L0.25543 6.99603C-0.022928 7.20017 -0.083084 7.59126 0.121056 7.86962C0.325235 8.14798 0.716366 8.20817 0.994646 8.00399L1.25004 7.81669V18.2031C1.25004 19.1938 2.05613 19.9999 3.0469 19.9999H16.9531C17.9439 19.9999 18.75 19.1938 18.75 18.2031V7.81673L19.0054 8.00403C19.1168 8.08571 19.2462 8.12509 19.3745 8.12509C19.5668 8.12509 19.7565 8.03661 19.8789 7.86966C20.0831 7.59126 20.0229 7.20013 19.7446 6.99603ZM17.5 18.2031C17.5 18.5047 17.2547 18.75 16.9531 18.75H3.0469C2.74534 18.75 2.50003 18.5047 2.50003 18.2031V6.90005L10 1.40008L17.5 6.90005V18.2031Z" fill="#ED1C24"/>
</svg>
