<svg width="30" height="30" viewBox="0 0 30 30" fill="none" xmlns="http://www.w3.org/2000/svg">
<g clip-path="url(#clip0_463_2459)">
<path d="M25.392 30.0009H4.05C2.97587 30.0009 1.94574 29.5742 1.18622 28.8147C0.426695 28.0552 0 27.025 0 25.9509L0 14.1789C0 13.1048 0.426695 12.0746 1.18622 11.3151C1.94574 10.5556 2.97587 10.1289 4.05 10.1289H25.392C26.4661 10.1289 27.4963 10.5556 28.2558 11.3151C29.0153 12.0746 29.442 13.1048 29.442 14.1789V25.9554C29.4408 27.0288 29.0136 28.0577 28.2542 28.8163C27.4948 29.5748 26.4653 30.0009 25.392 30.0009ZM4.05 12.3369C3.56147 12.3369 3.09295 12.531 2.74751 12.8764C2.40207 13.2219 2.208 13.6904 2.208 14.1789V25.9554C2.20919 26.4432 2.40378 26.9105 2.7491 27.255C3.09441 27.5995 3.56225 27.7929 4.05 27.7929H25.392C25.88 27.7925 26.3479 27.5985 26.693 27.2534C27.0381 26.9083 27.2321 26.4404 27.2325 25.9524V14.1789C27.2321 13.6909 27.0381 13.223 26.693 12.8779C26.3479 12.5328 25.88 12.3388 25.392 12.3384L4.05 12.3369Z" fill="#EC008C"/>
<path d="M25.0245 12.3369C24.7317 12.3369 24.4509 12.2206 24.2439 12.0135C24.0368 11.8065 23.9205 11.5257 23.9205 11.2329V9.76289C23.9201 9.27488 23.7261 8.80697 23.381 8.4619C23.0359 8.11682 22.568 7.92279 22.08 7.92239H7.3605C6.87249 7.92279 6.40458 8.11682 6.05951 8.4619C5.71443 8.80697 5.5204 9.27488 5.52 9.76289V11.2329C5.52 11.5257 5.40369 11.8065 5.19665 12.0135C4.98961 12.2206 4.7088 12.3369 4.416 12.3369C4.1232 12.3369 3.84239 12.2206 3.63535 12.0135C3.42831 11.8065 3.312 11.5257 3.312 11.2329V9.76289C3.312 8.68876 3.7387 7.65863 4.49822 6.89911C5.25774 6.13959 6.28787 5.71289 7.362 5.71289H22.0815C23.1556 5.71289 24.1858 6.13959 24.9453 6.89911C25.7048 7.65863 26.1315 8.68876 26.1315 9.76289V11.2329C26.1315 11.3781 26.1028 11.5219 26.0472 11.6561C25.9915 11.7902 25.9099 11.912 25.8071 12.0146C25.7043 12.1172 25.5822 12.1984 25.4479 12.2537C25.3136 12.309 25.1697 12.3373 25.0245 12.3369Z" fill="#EC008C"/>
<path d="M20.6085 7.92105C20.3157 7.92105 20.0349 7.80473 19.8279 7.59769C19.6208 7.39065 19.5045 7.10985 19.5045 6.81705V4.61055C19.5041 4.12254 19.3101 3.65463 18.965 3.30956C18.6199 2.96448 18.152 2.77044 17.664 2.77005H11.7765C11.2885 2.77044 10.8206 2.96448 10.4755 3.30956C10.1304 3.65463 9.9364 4.12254 9.936 4.61055V6.81705C9.936 7.10985 9.81969 7.39065 9.61265 7.59769C9.40561 7.80473 9.1248 7.92105 8.832 7.92105C8.5392 7.92105 8.25839 7.80473 8.05135 7.59769C7.84431 7.39065 7.728 7.10985 7.728 6.81705V4.61055C7.728 3.53668 8.15449 2.50677 8.91369 1.74729C9.67288 0.987815 10.7026 0.560945 11.7765 0.560547L17.664 0.560547C18.7381 0.560547 19.7683 0.987242 20.5278 1.74676C21.2873 2.50629 21.714 3.53642 21.714 4.61055V6.81705C21.714 6.96215 21.6854 7.10583 21.6298 7.23988C21.5742 7.37392 21.4928 7.49569 21.3901 7.59822C21.2874 7.70076 21.1656 7.78205 21.0314 7.83744C20.8973 7.89283 20.7536 7.92124 20.6085 7.92105Z" fill="#EC008C"/>
<path d="M13.248 18.5918H7.3605C7.0677 18.5918 6.78689 18.4755 6.57985 18.2684C6.37281 18.0614 6.2565 17.7806 6.2565 17.4878C6.2565 17.195 6.37281 16.9142 6.57985 16.7071C6.78689 16.5001 7.0677 16.3838 7.3605 16.3838H13.248C13.5408 16.3838 13.8216 16.5001 14.0286 16.7071C14.2357 16.9142 14.352 17.195 14.352 17.4878C14.352 17.7806 14.2357 18.0614 14.0286 18.2684C13.8216 18.4755 13.5408 18.5918 13.248 18.5918Z" fill="#EC008C"/>
<path d="M17.664 23.7441H7.3605C7.0677 23.7441 6.78689 23.6278 6.57985 23.4208C6.37281 23.2137 6.2565 22.9329 6.2565 22.6401C6.2565 22.3473 6.37281 22.0665 6.57985 21.8595C6.78689 21.6524 7.0677 21.5361 7.3605 21.5361H17.664C17.9568 21.5361 18.2376 21.6524 18.4446 21.8595C18.6517 22.0665 18.768 22.3473 18.768 22.6401C18.768 22.9329 18.6517 23.2137 18.4446 23.4208C18.2376 23.6278 17.9568 23.7441 17.664 23.7441Z" fill="#EC008C"/>
</g>
<defs>
<clipPath id="clip0_463_2459">
<rect width="30" height="30" fill="white"/>
</clipPath>
</defs>
</svg>
