<svg width="70" height="70" viewBox="0 0 70 70" fill="none" xmlns="http://www.w3.org/2000/svg">
<path fill-rule="evenodd" clip-rule="evenodd" d="M69.8061 34.903C69.8061 54.1812 54.1812 69.8061 34.903 69.8061C15.6249 69.8061 0 54.1812 0 34.903C0 15.6249 15.6249 0 34.903 0C54.1812 0 69.8061 15.6249 69.8061 34.903Z" fill="#B0E01F"/>
<path fill-rule="evenodd" clip-rule="evenodd" d="M24.2756 35.1411C23.3643 34.2299 21.8869 34.2299 20.9757 35.1411C20.0645 36.0523 20.0645 37.5297 20.9757 38.4409L29.2253 46.6905C29.567 47.0322 29.9883 47.2458 30.4296 47.3312C31.0914 47.4594 31.798 47.2992 32.3479 46.8507C32.409 46.8009 32.4682 46.7475 32.5252 46.6905L49.0243 30.1914C49.9355 29.2801 49.9355 27.8027 49.0243 26.8915C48.1131 25.9803 46.6357 25.9803 45.7245 26.8915L30.8752 41.7408L24.2756 35.1411Z" fill="white"/>
<path d="M30.4296 47.3312L30.6006 46.4476L30.6006 46.4476L30.4296 47.3312ZM32.3479 46.8507L31.7791 46.1533L31.7791 46.1533L32.3479 46.8507ZM32.5252 46.6905L33.1615 47.3269L32.5252 46.6905ZM49.0243 30.1914L48.3879 29.555L49.0243 30.1914ZM30.8752 41.7408L30.2388 42.3772L30.8752 43.0136L31.5116 42.3772L30.8752 41.7408ZM21.6121 35.7775C22.1719 35.2177 23.0794 35.2177 23.6392 35.7775L24.9119 34.5047C23.6493 33.242 21.602 33.242 20.3393 34.5047L21.6121 35.7775ZM21.6121 37.8045C21.0524 37.2448 21.0524 36.3372 21.6121 35.7775L20.3393 34.5047C19.0766 35.7674 19.0766 37.8146 20.3393 39.0773L21.6121 37.8045ZM29.8617 46.0541L21.6121 37.8045L20.3393 39.0773L28.5889 47.3269L29.8617 46.0541ZM30.6006 46.4476C30.3302 46.3953 30.0725 46.2649 29.8617 46.0541L28.5889 47.3269C29.0615 47.7995 29.6465 48.0963 30.2585 48.2148L30.6006 46.4476ZM31.7791 46.1533C31.4432 46.4272 31.0097 46.5268 30.6006 46.4476L30.2585 48.2148C31.1731 48.3919 32.1528 48.1712 32.9167 47.5481L31.7791 46.1533ZM31.8888 46.0541C31.8534 46.0895 31.8168 46.1225 31.7791 46.1533L32.9167 47.5482C33.0013 47.4792 33.083 47.4055 33.1615 47.3269L31.8888 46.0541ZM48.3879 29.555L31.8888 46.0541L33.1615 47.3269L49.6607 30.8277L48.3879 29.555ZM48.3879 27.5279C48.9477 28.0877 48.9477 28.9952 48.3879 29.555L49.6607 30.8277C50.9234 29.5651 50.9234 27.5178 49.6607 26.2551L48.3879 27.5279ZM46.3609 27.5279C46.9206 26.9682 47.8282 26.9682 48.3879 27.5279L49.6607 26.2551C48.398 24.9924 46.3508 24.9924 45.0881 26.2551L46.3609 27.5279ZM31.5116 42.3772L46.3609 27.5279L45.0881 26.2551L30.2388 41.1044L31.5116 42.3772ZM23.6392 35.7775L30.2388 42.3772L31.5116 41.1044L24.9119 34.5047L23.6392 35.7775Z" fill="white"/>
</svg>
