<svg width="20" height="20" viewBox="0 0 20 20" fill="none" xmlns="http://www.w3.org/2000/svg">
<path fill-rule="evenodd" clip-rule="evenodd" d="M18.4529 9.97645C18.4529 14.6583 14.6583 18.4529 9.97645 18.4529C5.29463 18.4529 1.5 14.6583 1.5 9.97645C1.5 5.29463 5.29463 1.5 9.97645 1.5C14.6583 1.5 18.4529 5.29463 18.4529 9.97645Z" fill="#B0E01F"/>
<path fill-rule="evenodd" clip-rule="evenodd" d="M7.39544 10.0344C7.17414 9.81307 6.81535 9.81307 6.59405 10.0344C6.37276 10.2557 6.37276 10.6145 6.59405 10.8358L8.59752 12.8392C8.71079 12.9525 8.86009 13.0078 9.00853 13.0051C9.15017 13.0026 9.29106 12.9473 9.39914 12.8392L13.4061 8.83228C13.6274 8.61098 13.6274 8.25219 13.4061 8.03089C13.1848 7.80959 12.826 7.8096 12.6047 8.03089L8.99833 11.6373L7.39544 10.0344Z" fill="white"/>
</svg>
