<svg width="14" height="15" viewBox="0 0 14 15" fill="none" xmlns="http://www.w3.org/2000/svg">
<path fill-rule="evenodd" clip-rule="evenodd" d="M6.99967 0.833008C10.6757 0.833008 13.6663 3.82367 13.6663 7.49967C13.6663 11.1757 10.6757 14.1663 6.99967 14.1663C3.32367 14.1663 0.333008 11.1757 0.333008 7.49967C0.333008 3.82367 3.32367 0.833008 6.99967 0.833008ZM6.99967 1.83301C3.87501 1.83301 1.33301 4.37501 1.33301 7.49967C1.33301 10.6243 3.87501 13.1663 6.99967 13.1663C10.1243 13.1663 12.6663 10.6243 12.6663 7.49967C12.6663 4.37501 10.1243 1.83301 6.99967 1.83301ZM6.77381 4.22994C7.05047 4.22994 7.27381 4.45394 7.27381 4.72994V7.67794L9.54381 9.03127C9.78047 9.17327 9.85847 9.47994 9.71714 9.71727C9.62314 9.87394 9.45714 9.96127 9.28714 9.96127C9.19981 9.96127 9.11181 9.93861 9.03114 9.89127L6.51781 8.39194C6.36714 8.30127 6.27381 8.13794 6.27381 7.96194V4.72994C6.27381 4.45394 6.49781 4.22994 6.77381 4.22994Z" fill="#4D4D4F"/>
</svg>
