<svg width="16" height="17" viewBox="0 0 16 17" fill="none" xmlns="http://www.w3.org/2000/svg">
<path fill-rule="evenodd" clip-rule="evenodd" d="M7.99967 1.83301C11.6757 1.83301 14.6663 4.82367 14.6663 8.49967C14.6663 12.1757 11.6757 15.1663 7.99967 15.1663C4.32367 15.1663 1.33301 12.1757 1.33301 8.49967C1.33301 4.82367 4.32367 1.83301 7.99967 1.83301ZM7.99967 2.83301C4.87501 2.83301 2.33301 5.37501 2.33301 8.49967C2.33301 11.6243 4.87501 14.1663 7.99967 14.1663C11.1243 14.1663 13.6663 11.6243 13.6663 8.49967C13.6663 5.37501 11.1243 2.83301 7.99967 2.83301ZM7.77381 5.22994C8.05047 5.22994 8.27381 5.45394 8.27381 5.72994V8.67794L10.5438 10.0313C10.7805 10.1733 10.8585 10.4799 10.7171 10.7173C10.6231 10.8739 10.4571 10.9613 10.2871 10.9613C10.1998 10.9613 10.1118 10.9386 10.0311 10.8913L7.51781 9.39194C7.36714 9.30127 7.27381 9.13794 7.27381 8.96194V5.72994C7.27381 5.45394 7.49781 5.22994 7.77381 5.22994Z" fill="#4D4D4F"/>
</svg>
