<svg width="45" height="45" viewBox="0 0 45 45" xmlns="http://www.w3.org/2000/svg">
    <g fill="none" fill-rule="evenodd">
        <circle fill="#6DC4EB" cx="22.426" cy="22.426" r="22.426"/>
        <path d="M19.468 28.8c5.576 0 8.626-4.618 8.626-8.626 0-.131 0-.263-.01-.394a6.518 6.518 0 0 0 1.521-1.567 6.078 6.078 0 0 1-1.746.469 3.023 3.023 0 0 0 1.333-1.67c-.582.346-1.239.6-1.924.731a3.024 3.024 0 0 0-2.215-.957 3.03 3.03 0 0 0-3.032 3.032c0 .234.029.469.076.694a8.617 8.617 0 0 1-6.252-3.172c-.262.45-.413.966-.413 1.53a3.03 3.03 0 0 0 1.352 2.524 3.053 3.053 0 0 1-1.37-.384v.037a3.032 3.032 0 0 0 2.43 2.976 3.205 3.205 0 0 1-.797.103 3.82 3.82 0 0 1-.573-.047 3.037 3.037 0 0 0 2.835 2.102 6.072 6.072 0 0 1-3.764 1.296c-.253 0-.488-.01-.732-.038a8.567 8.567 0 0 0 4.655 1.361z" fill="#FFF" fill-rule="nonzero"/>
    </g>
</svg>
