<svg width="26" height="11" viewBox="0 0 26 11" fill="none" xmlns="http://www.w3.org/2000/svg">
<g clip-path="url(#clip0_1969_27327)">
<path d="M20.05 0.0302734C17.2 0.0302734 14.13 2.79027 12.76 4.17027C11.39 2.79027 8.32 0.0302734 5.47 0.0302734C2.04 0.0302734 0 2.07027 0 5.50027C0 8.93027 2.04 10.9703 5.47 10.9703C8.32 10.9703 11.39 8.21027 12.76 6.83027C14.13 8.21027 17.2 10.9703 20.05 10.9703C23.47 10.9703 25.52 8.93027 25.52 5.50027C25.52 2.07027 23.47 0.0302734 20.05 0.0302734ZM5.47 9.14027C3.05 9.14027 1.82 7.91027 1.82 5.49027C1.82 3.07027 3.05 1.85027 5.47 1.85027C7.47 1.85027 10.14 4.11027 11.51 5.50027C10.14 6.89027 7.48 9.15027 5.47 9.15027V9.14027ZM20.05 9.14027C18.05 9.14027 15.38 6.88027 14.01 5.49027C15.38 4.10027 18.04 1.84027 20.05 1.84027C22.47 1.84027 23.7 3.07027 23.7 5.49027C23.7 7.91027 22.47 9.14027 20.05 9.14027Z" fill="#4D4D4F"/>
</g>
<defs>
<clipPath id="clip0_1969_27327">
<rect width="25.52" height="10.94" fill="white" transform="translate(0 0.0302734)"/>
</clipPath>
</defs>
</svg>
