<svg width="49" height="48" viewBox="0 0 49 48" fill="none" xmlns="http://www.w3.org/2000/svg">
<path d="M36.125 16.5661C35.4767 13.9746 33.9812 11.6741 31.876 10.0297C29.7708 8.38525 27.1765 7.4913 24.5052 7.48975C21.8339 7.4882 19.2387 8.37914 17.1315 10.0211C15.0244 11.6631 13.5263 13.9619 12.875 16.5526C9.80271 16.8409 6.9596 18.3017 4.9362 20.6314C2.9128 22.9612 1.86464 25.9809 2.00945 29.0632C2.15425 32.1456 3.48088 35.0537 5.71378 37.1835C7.94668 39.3133 10.9142 40.5011 14 40.5001H18.5C18.8978 40.5001 19.2793 40.3421 19.5606 40.0608C19.8419 39.7795 20 39.3979 20 39.0001C20 38.6023 19.8419 38.2207 19.5606 37.9394C19.2793 37.6581 18.8978 37.5001 18.5 37.5001H14C12.8181 37.5035 11.6471 37.2742 10.5538 36.8251C9.46057 36.376 8.46648 35.7159 7.62831 34.8826C5.93556 33.1997 4.98068 30.9133 4.97371 28.5263C4.96675 26.1394 5.90829 23.8474 7.59119 22.1547C9.2741 20.4619 11.5605 19.5071 13.9475 19.5001C14.3324 19.5291 14.7143 19.4141 15.0192 19.1774C15.324 18.9407 15.5301 18.5992 15.5975 18.2191C15.9029 16.0772 16.9708 14.1174 18.6051 12.6996C20.2394 11.2818 22.3304 10.5012 24.494 10.5012C26.6575 10.5012 28.7485 11.2818 30.3828 12.6996C32.0171 14.1174 33.085 16.0772 33.3905 18.2191C33.4689 18.586 33.6723 18.9142 33.9658 19.1478C34.2593 19.3815 34.6249 19.506 35 19.5001C37.3869 19.5001 39.6761 20.4483 41.3639 22.1361C43.0518 23.824 44 26.1131 44 28.5001C44 30.887 43.0518 33.1762 41.3639 34.8641C39.6761 36.5519 37.3869 37.5001 35 37.5001H30.5C30.1021 37.5001 29.7206 37.6581 29.4393 37.9394C29.158 38.2207 29 38.6023 29 39.0001C29 39.3979 29.158 39.7795 29.4393 40.0608C29.7206 40.3421 30.1021 40.5001 30.5 40.5001H35C38.0631 40.468 40.9981 39.2657 43.2034 37.1395C45.4087 35.0133 46.7173 32.1242 46.8611 29.0642C47.005 26.0042 45.9731 23.0051 43.977 20.6814C41.9809 18.3577 39.1716 16.8853 36.125 16.5661Z" fill="#ED1C24"/>
<path d="M30.9395 29.5607C31.2224 29.8339 31.6013 29.9851 31.9946 29.9817C32.3879 29.9783 32.7641 29.8205 33.0422 29.5424C33.3203 29.2643 33.4781 28.8881 33.4815 28.4948C33.4849 28.1015 33.3337 27.7226 33.0605 27.4397L25.5605 19.9397C25.2792 19.6585 24.8977 19.5005 24.5 19.5005C24.1023 19.5005 23.7208 19.6585 23.4395 19.9397L15.9395 27.4397C15.6663 27.7226 15.5151 28.1015 15.5185 28.4948C15.5219 28.8881 15.6797 29.2643 15.9578 29.5424C16.2359 29.8205 16.6121 29.9783 17.0054 29.9817C17.3987 29.9851 17.7776 29.8339 18.0605 29.5607L23 24.6212V43.5002C23 43.898 23.158 44.2795 23.4393 44.5608C23.7206 44.8421 24.1022 45.0002 24.5 45.0002C24.8978 45.0002 25.2794 44.8421 25.5607 44.5608C25.842 44.2795 26 43.898 26 43.5002V24.6212L30.9395 29.5607Z" fill="#ED1C24"/>
</svg>
