<svg width="15" height="15" viewBox="0 0 15 15" fill="none" xmlns="http://www.w3.org/2000/svg">
<g clip-path="url(#clip0_1969_27329)">
<path d="M7.14 0.360352C3.19813 0.360352 0 3.55848 0 7.50035C0 11.4422 3.19813 14.6404 7.14 14.6404C11.0819 14.6404 14.28 11.4422 14.28 7.50035C14.28 3.55848 11.0819 0.360352 7.14 0.360352ZM10.1976 8.01271H7.14C6.85903 8.01271 6.62764 7.78132 6.62764 7.50035V3.93035C6.62764 3.64938 6.85903 3.41799 7.14 3.41799C7.42097 3.41799 7.65236 3.64938 7.65236 3.93035V6.98799H10.2059C10.4869 6.98799 10.7183 7.21938 10.7183 7.50035C10.7183 7.78132 10.4869 8.01271 10.2059 8.01271H10.1976Z" fill="#4D4D4F"/>
</g>
<defs>
<clipPath id="clip0_1969_27329">
<rect width="14.28" height="14.28" fill="white" transform="translate(0 0.360352)"/>
</clipPath>
</defs>
</svg>
