<svg width="30" height="30" viewBox="0 0 30 30" fill="none" xmlns="http://www.w3.org/2000/svg">
<path d="M13.125 30H7.032C5.16787 29.998 3.38063 29.2567 2.06235 27.9387C0.744064 26.6207 0.00238224 24.8336 0 22.9695L0 7.032C0.0019853 5.16761 0.743492 3.38014 2.06182 2.06182C3.38014 0.743492 5.16761 0.0019853 7.032 0L22.9695 0C24.8336 0.00238224 26.6207 0.744064 27.9387 2.06235C29.2567 3.38063 29.998 5.16787 30 7.032V12.891C30 13.2017 29.8766 13.4997 29.6569 13.7194C29.4372 13.9391 29.1392 14.0625 28.8285 14.0625C28.5178 14.0625 28.2198 13.9391 28.0001 13.7194C27.7804 13.4997 27.657 13.2017 27.657 12.891V7.032C27.6554 5.78929 27.161 4.59792 26.2823 3.71919C25.4036 2.84046 24.2122 2.34609 22.9695 2.3445H7.032C5.78929 2.34609 4.59792 2.84046 3.71919 3.71919C2.84046 4.59792 2.34609 5.78929 2.3445 7.032V22.9695C2.34609 24.2122 2.84046 25.4036 3.71919 26.2823C4.59792 27.161 5.78929 27.6554 7.032 27.657H13.125C13.4357 27.657 13.7337 27.7804 13.9534 28.0001C14.1731 28.2198 14.2965 28.5178 14.2965 28.8285C14.2965 29.1392 14.1731 29.4372 13.9534 29.6569C13.7337 29.8766 13.4357 30 13.125 30ZM19.1595 6.45C19.1595 6.29616 19.1292 6.14382 19.0703 6.00169C19.0115 5.85955 18.9252 5.73041 18.8164 5.62162C18.7076 5.51284 18.5784 5.42655 18.4363 5.36768C18.2942 5.3088 18.1418 5.2785 17.988 5.2785H12.012C11.7011 5.2785 11.4029 5.402 11.1831 5.62184C10.9633 5.84168 10.8398 6.13985 10.8398 6.45075C10.8398 6.76165 10.9633 7.05982 11.1831 7.27966C11.4029 7.4995 11.7011 7.623 12.012 7.623H17.988C18.142 7.623 18.2944 7.59265 18.4367 7.53368C18.5789 7.47471 18.7081 7.38829 18.8169 7.27935C18.9257 7.1704 19.012 7.04108 19.0708 6.89877C19.1295 6.75647 19.1597 6.60397 19.1595 6.45ZM30 22.0905C30 20.5261 29.5361 18.9969 28.667 17.6962C27.7979 16.3955 26.5626 15.3817 25.1173 14.7831C23.6721 14.1844 22.0817 14.0278 20.5474 14.333C19.0131 14.6382 17.6038 15.3915 16.4976 16.4976C15.3915 17.6038 14.6382 19.0131 14.333 20.5474C14.0278 22.0817 14.1844 23.6721 14.7831 25.1173C15.3817 26.5626 16.3955 27.7979 17.6962 28.667C18.9969 29.5361 20.5261 30 22.0905 30C24.1875 29.9976 26.1979 29.1635 27.6807 27.6807C29.1635 26.1979 29.9976 24.1875 30 22.0905V22.0905ZM27.657 22.0905C27.657 23.1915 27.3305 24.2677 26.7189 25.1831C26.1072 26.0985 25.2379 26.812 24.2207 27.2333C23.2036 27.6546 22.0843 27.7648 21.0045 27.55C19.9247 27.3353 18.9329 26.8051 18.1544 26.0266C17.3759 25.2481 16.8457 24.2563 16.631 23.1765C16.4162 22.0967 16.5264 20.9774 16.9477 19.9603C17.369 18.9431 18.0825 18.0738 18.9979 17.4621C19.9133 16.8505 20.9896 16.524 22.0905 16.524C23.5663 16.5256 24.9813 17.1126 26.0249 18.1561C27.0684 19.1997 27.6554 20.6147 27.657 22.0905ZM24.207 20.919H23.2695V19.98C23.2695 19.6693 23.1461 19.3713 22.9264 19.1516C22.7067 18.9319 22.4087 18.8085 22.098 18.8085C21.7873 18.8085 21.4893 18.9319 21.2696 19.1516C21.0499 19.3713 20.9265 19.6693 20.9265 19.98V20.9175H19.98C19.6691 20.9175 19.3709 21.041 19.1511 21.2608C18.9313 21.4807 18.8077 21.7788 18.8077 22.0897C18.8077 22.4006 18.9313 22.6988 19.1511 22.9187C19.3709 23.1385 19.6691 23.262 19.98 23.262H20.9175V24.1995C20.9175 24.5104 21.041 24.8086 21.2608 25.0284C21.4807 25.2482 21.7788 25.3717 22.0897 25.3717C22.4006 25.3717 22.6988 25.2482 22.9187 25.0284C23.1385 24.8086 23.262 24.5104 23.262 24.1995V23.262H24.1995C24.5104 23.262 24.8086 23.1385 25.0284 22.9187C25.2482 22.6988 25.3717 22.4006 25.3717 22.0897C25.3717 21.7788 25.2482 21.4807 25.0284 21.2608C24.8086 21.041 24.5104 20.9175 24.1995 20.9175L24.207 20.919Z" fill="#EC008C"/>
</svg>
