<svg width="24" height="16" viewBox="0 0 24 16" fill="none" xmlns="http://www.w3.org/2000/svg">
<path d="M15.2452 2.10449H8.75586V13.8963H15.2452V2.10449Z" fill="#FF5F00"/>
<path d="M9.16748 8.00007C9.16748 5.60422 10.2799 3.4792 11.9898 2.10419C10.7332 1.10418 9.14688 0.5 7.41639 0.5C3.31677 0.5 0 3.8542 0 8.00007C0 12.1459 3.31677 15.5001 7.41639 15.5001C9.14688 15.5001 10.7332 14.896 11.9898 13.896C10.2799 12.5418 9.16748 10.3959 9.16748 8.00007Z" fill="#EB001B"/>
<path d="M24.0001 8.00007C24.0001 12.1459 20.6833 15.5001 16.5837 15.5001C14.8532 15.5001 13.2669 14.896 12.0103 13.896C13.7407 12.521 14.8326 10.3959 14.8326 8.00007C14.8326 5.60422 13.7201 3.4792 12.0103 2.10419C13.2669 1.10418 14.8532 0.5 16.5837 0.5C20.6833 0.5 24.0001 3.87503 24.0001 8.00007Z" fill="#F79E1B"/>
</svg>
