<svg width="70" height="70" viewBox="0 0 70 70" fill="none" xmlns="http://www.w3.org/2000/svg">
<path d="M35 0C15.7009 0 0 15.7009 0 35C0 54.2991 15.7009 70 35 70C54.2991 70 70 54.2991 70 35C70 15.7009 54.2991 0 35 0ZM35 55.1322C33.0372 55.1322 31.4458 53.5409 31.4458 51.578C31.4458 49.6152 33.0372 48.0239 35 48.0239C36.9628 48.0239 38.5542 49.6152 38.5542 51.578C38.5542 53.5409 36.9628 55.1322 35 55.1322ZM38.5542 36.8875C38.5542 38.8503 36.9628 40.4417 35 40.4417C33.0372 40.4417 31.4458 38.8503 31.4458 36.8875V18.1689C31.4458 16.206 33.0372 14.6147 35 14.6147C36.9628 14.6147 38.5542 16.206 38.5542 18.1689V36.8875Z" fill="#FFCB05"/>
</svg>
