<svg width="30" height="30" viewBox="0 0 30 30" fill="none" xmlns="http://www.w3.org/2000/svg">
<circle cx="15" cy="15" r="15" fill="#F8F8F8"/>
<path fill-rule="evenodd" clip-rule="evenodd" d="M10.4902 9.33971C7.98947 11.4767 7.20167 14.9255 8.44622 17.8729L6.87433 22.4315L11.62 21.462C14.4158 23.0837 17.9996 22.7968 20.5003 20.6598C23.6802 17.9425 24.0171 13.2055 21.2529 10.0796C18.4887 6.95359 13.67 6.62235 10.4902 9.33971ZM11.9771 19.9123L8.90592 20.6945L10.0561 17.7399L9.94317 17.4977C8.82456 15.0985 9.43281 12.2298 11.4902 10.4717C14.0341 8.29784 17.889 8.56283 20.1003 11.0636C22.3117 13.5644 22.0422 17.3539 19.4983 19.5278C17.4409 21.2859 14.4665 21.4788 12.2054 20.056L11.9771 19.9123ZM18.6553 16.6637C18.6645 16.6691 18.671 16.6728 18.6725 16.6737C18.7195 16.7013 18.7525 16.7219 18.7833 16.7436C18.8666 16.8022 18.9255 16.864 18.9542 16.9338C19.0457 17.1156 18.9701 17.5425 18.7895 17.9324C18.5905 18.3619 17.8522 18.743 17.3606 18.7725C16.7031 18.811 16.2215 18.6779 15.228 18.1508C14.6373 17.8368 14.0961 17.3946 13.6034 16.8591C13.2956 16.5246 13.0243 16.1729 12.7856 15.8173C12.644 15.6062 12.3912 15.1874 12.4604 15.2956C12.3356 15.0924 12.254 14.9454 12.1506 14.7062C11.9529 14.2486 11.8496 13.7939 11.888 13.3622C11.9313 12.8752 12.1019 12.4912 12.3641 12.1789C12.4235 12.1082 12.4848 12.0444 12.552 11.9813C12.5906 11.9449 12.6993 11.8484 12.6867 11.8598C12.8875 11.6811 13.1311 11.609 13.3499 11.6278C13.5877 11.6483 14.5413 13.1337 14.6558 13.4185C14.7264 13.5941 14.73 13.7621 14.6253 13.9337C14.6068 13.9633 14.5881 13.992 14.5691 14.0198C14.422 14.2354 14.1485 14.4966 14.063 14.5693C14.5294 15.5403 14.9666 15.9562 16.0938 16.637C16.1339 16.6616 16.1393 16.6714 16.1422 16.6707C16.1441 16.6703 16.145 16.666 16.1525 16.6588C16.379 16.4436 16.6339 16.1887 16.7258 16.0749C16.9267 15.8261 17.138 15.82 17.4193 15.9515C17.5559 16.0125 18.2487 16.4172 18.5564 16.606C18.5775 16.6185 18.6283 16.648 18.6553 16.6637Z" fill="#333333"/>
</svg>
